<svg xmlns="http://www.w3.org/2000/svg" xmlns:xlink="http://www.w3.org/1999/xlink" xmlns:v="https://vecta.io/nano"
     viewBox="0 0 937 120">
    <style>
        <![CDATA[.G{fill:#fff}.H{fill:#e1f4fd}.I{clip-path:url(#C)}.J{fill:#f24139}.K{font-family:Poppins-Black}.L{font-family:Poppins-ExtraBold}]]></style>
    <path d="M-9.4-9.8h957v140h-957z" fill="#7fcdee"/>
    <linearGradient id="A" gradientUnits="userSpaceOnUse" x1="1461.156" y1="935.087" x2="2225.733" y2="935.087">
        <stop offset="0" stop-color="#7fcdee" stop-opacity="0"/>
        <stop offset="1" stop-color="#7fcdee"/>
    </linearGradient>
    <path d="M1461.2 608.4h764.6v653.4h-764.6z" fill="url(#A)"/>
    <path d="M1964.2 142.6H1621c-12.8 0-23.1-10.4-23.1-23.1h0c0-12.8 10.4-23.1 23.1-23.1h343.2c12.8 0 23.1 10.4 23.1 23.1h0c0 12.8-10.4 23.1-23.1 23.1z"
          class="J"/>
    <text>
        <tspan font-size="41.778" x="1595.175" y="-20.981" class="G K">7TH OF SEPTEMBER</tspan>
        <tspan x="1596.575" y="49.319" font-size="78.333" class="G K">14:00 UTC</tspan>
        <tspan x="1619.775" y="129.819" font-size="28.649" class="G L">APESWAP.FINANCE/IAO</tspan>
    </text>
    <g class="J">
        <path d="M2000.3-160.7l-29.8-1.2c-1.1 10 1 20.6 5.5 29.1l44.5.1c-2.7 3.3-31.5 5.9-43 2.7 7.9 12.1 13.9 18.6 29.1 15.4 26.1-7.6 17.8-46.5-6.3-46.1zm67.6 2.6l-6.4 1.1-10.8 7.9c-.2-2.9-.7-5.9-1.5-8.7-3.3 5.5-11.1 2.7-18.8-3.6 10.7 2.7 13-14.5 2-14.9-4.9-.1-8.6 5.2-7 10-26.4-32.7 28-28.2 25.5 1.1l17 5.3c-1.9-47.4-65.1-64.4-89.3-24.9 7.8-5.7 17.5-8.9 27.6-8.6.9 0 1.3 1.2.7 1.8-5.1 5.3.8 19.9 13.1 32.6 12.6 13.3 26.4 18.2 31.7 13.8 0 14.4-6.1 27.3-15.7 36.1 19-7.2 32.7-26.7 31.9-49zm-33.5-11.8c2 0 2 3.1 0 3.1s-2-3.1 0-3.1zm-7.8-.5c0-4 5.9-4 6 0-.1 4.1-6 4.1-6 0z"/>
        <path d="M2061-162.1s3.5 1.2.6 5.1c-4.1 5.4 6.4-1.1 6.4-1.1.7-5.7-4.9-4.6-7-4z"/>
    </g>
    <circle transform="matrix(.7071 -.7071 .7071 .7071 702.2289 1381.8259)" cx="2019.1" cy="-156.8" r="54.6" fill="none"
            stroke="#f24139" stroke-width="8"/>
    <path d="M1546.5-162.2v48.9c0 3.1-1.1 4.7-3.5 4.7s-3.7-1.5-3.7-4.7v-83.1c0-3.1 1.2-4.7 3.6-4.7s3.6 1.5 3.6 4.7v26.8h24.2v-24.6c0-18.5-9.3-26.5-27.7-26.5-19.1 0-28.7 10.2-28.7 30.6v70.6c0 20.4 9.6 30.6 28.7 30.6 18.5.1 27.7-8.7 27.7-26.3v-46.9h-24.2zm62.3.1h-7.3v-63.1h-24.4v129.6h24.4v-45.8h7.3v45.8h24.4v-129.6h-24.4v63.1zm31.9 62.1h24.4v-129.6h-24.4V-100zm83.1-57.3c3.6-4.2 5.3-9.8 5.3-16.7v-21.4c0-15.5-8.5-24.3-25.4-24.3h-31.2v129.6h24.4v-47.5h5.1l3.5 47.5h25.2l-6.9-67.2zm-26.8-41.8h2c3.5 0 5.2 2.2 5.2 6.7v28.5c-.1 5.1-1.8 7.7-5.2 7.7h-2v-42.9zm70.5 65.8c7.7 0 13.8-2.6 18.3-7.7s6.8-11.8 6.8-20v-25.7c0-8.4-2.2-14.9-6.5-19.5-4.4-4.6-10.6-6.9-18.6-6.9h-31.7v129.6h24.4V-133h7.3zm-7.3-20.6v-38.8h2.3c3.3 0 5 2.2 5 6.4v25.9c0 4.4-1.6 6.6-5 6.6h-2.3zm61.6-60.9h-24.4v129.6h42.4v-20.6h-18v-109zm46 68.1h20v-19.5h-20v-32.9h21.1v-20.6h-45.5v129.6h45.8v-20.6h-21.4v-36zm54.7-28l-1-12.6-3.9-32.4H1891l19.7 102.5v27.1h24.4v-27.2l19.6-102.4h-26l-3.7 32.4-1.1 12.6h-1.4z"
          class="J"/>
    <text transform="translate(1582.709 -254.239)" font-size="114.268" class="G L">IAO 013</text>
    <defs>
        <path id="B" d="M-9.4-9.8h957v140h-957z"/>
    </defs>
    <clipPath id="C">
        <use xlink:href="#B"/>
    </clipPath>
    <g class="G">
        <path d="M1038.1 61.7c1.8-9.1-3.3-15.4-11.3-18.4C1045 32 1034 19.4 1025 5.8c-10.4-14.2-51-40.1-66.6-25.9 61.4-72.3-104-91-80.1-26.8 0 0-23.8-29.7-50.4 18.5 1.2-1.2-12-20.8-40.9-10.4-3.5-2.5-8.8-4-17-2 1-15.9-15.4-13.5-26.8-14.3-17.7-4.8-37.9-4.4-42.4 25.2-9.1-1.6-28-3.8-34.9 8.3-7.5 1.8-21.4 7.1-23.4 12.8l-1.7-.3c-37.4-35.2-97.4-6.4-96.8 35.8 0 0-9.4-7.1-23.7.4-3.7-6.8-14-17.5-39.6-3.9 0 0-21.6-21-35.7 8.2-1.5 0-3.1.1-4.7.3 8.7-39.7-60.8-45.7-72.8-7-8.7-6.9-35.6-3.2-35.1-2.4h0S330-28.6 280.3-6.8c1.7-44.3-69.4-28.1-94.7-4.2-7.5-2-15-.5-17.6.2-.3-.2-.5-.3-.8-.5 13.3-60.1-69.5-70.9-78-21.2 0 0-5.8-6.2-12.7-7.4C86.5-56.3 82.1-80 57-67.5c8.9-19.6-4.3-30.9-20.8-29.6 0 0-1.8-18.9-18.5-10.1 0 0-28.1-20.1-34.4 12 0 0-26.4 1.9-12 25.8-.3-1-17.6-6.6-17 17.4-.3 17.5 10 15.8 17 11.5 0 0 1.6 6.4 7.7 9.8-3.1 8.4-3.7 15.1-3.7 15.1-14.5-4.3-36.8-3.1-27.2 18.2-.3 1.7-.3 3.3-.3 4.9-7.2.9-27 6-20.4 34.8 3.4 18.7 15.7 27.3 28 16-2.4 3.4-.3 114.5-.8 121 2.6 12.8 9.9 21.1 35.6 21.6 13.3-.4 27.3-1.9 39.8-7 17-5.9 15.2-124 15.3-127.5.2 1 .5 2 .9 3 .3.9-.3 108.6.3 109.4 3.3 9.4 8.9 19.2 18.5 23.3 15.9 6.7 43.1-8.9 50.2-23.5 4.8 21.5 21.7 41.8 60.9 27.3 12.6 18.9 43.6 41.2 96.9 13.1 21.6 7.1 55.9 15.5 70.8-12.8 59.9 13.7 125.9 12.6 186.2 6.3 7.8 6.3 24.2 7.4 40.9-8.8-2.5 5.4 3.8 8.4 15.6 6.8 0 0 34.4 31 75.6-5.1 4.2 5.4 14.7 11 20.6 3-.1.3 9.7 10.4 16.7 0 5.5 7.1 25.6 19.1 42.9 0 0 0 22.7 13.3 31.7 0 0 0 17.7 2.1 19.8-6.9 3.9 3.4 11.7 5.5 11.7-2.7 14.8 14 27 17.7 36.6 16.8 11.5 4.7 26.4 9 37.2 4 9.6 5 22.8-4.2 27-11.3-1.7 18.8 61 21.2 67.5 2.7h.2c5.3 33.4 72.3 13.4 46.5-19.3 8.3-2 17.2-114.4 17.6-130zM796 193.6l-.6.3c.6-1 1.5-2.5 2.1-4.5.6 1 1.2 2 2 3-1.4.3-2.5.7-3.5 1.2zm-4.2-10.8c.2.2.4.4.6.5h-1.9c-.1 0 .5-.1 1.3-.5z"
              opacity=".4" class="I"/>
        <path d="M-41.5 219.8c-6.4-14.4 3.9-18.6 12.6-13.1-4.6-6.5-5.8-16.3 7-15.1C-27.5 181.7-54 78.1 5.3 105c0 0-12.5-31.1 25-22-24.8-40.7 29-72.4 60.4-49.1 0 0 3.4-12.2 19.8-5.5 3.1-39.8 69.7-26.8 76.6-2.7 42-49.5 140.3-24.6 141.5 47 7.2-7.9 40.1-7 61.9 27.2 22.8-2.5 41.9 10.8 39.8 18.8.5-4 2.4-11.3 9.9-8.8 0 0-19.6-34.6 36-30.1-12.3-56.5 86.4-65 103.5-10 10-8.9 48.6-5.3 50-3.5 0 0 3.5-72.4 74.1-41.3-2.4-79.2 148-20.4 143 10.3 0 0 43.1-63.7 87.9 22.4 23.2-4.1 52.7 8.9 53.4 43.1 1.2 21.5-10.1 82.1-22.8 85.7-14.5 2.7-30.6-2.6-30.6-2.6.3 32.4-30.3 60.2-82.7 40-19.1 29.3-65.7 57.1-137.8 18.6-30.6 10.1-79.5 22-100.7-18.2-37.6 9.8-76.7 12.3-115.4 14.2-48.3 2.4-102.7.2-149.3-5.2-11 9-34.5 10.5-58.1-12.5 3.8 8.1-7 12-22.2 9.6 0 0-48.9 44-107.5-7.3-6 7.6-20.9 15.6-29.3 4.2-.5 1.8-15.2 13.9-23.8 0-7.8 10.2-36.4 27.1-61 0 0 0-32.3 18.9-45.1 0 0 0-25.2 3-28.2-9.8-3.4 2.4-11.2 7.4-15.1 2.3z"
              opacity=".4" class="I"/>
    </g>
    <g class="I">
        <path d="M-20.3 19.3c-20.2-12.3-25.8 45 0 29 0 0 5.7 22.7 36.5 5.7 0 0 15.1 10.1 25.8-5 54.9 30.7 62.7-45.7 23.3-27.7 0 0 12-30.2-20.8-29.6 0 0-1.8-18.9-18.5-10.1 0 0-28.1-20.1-34.4 12 .1-.1-26.4 1.7-11.9 25.7z"
              class="G"/>
        <g class="H">
            <path d="M57.1 34.6s2.2-14.4-18.6-10.3c-20.8 4-6.9 14.2-44.4 2 0 0-5.2-6.4-14.4-7.1-20.2-12.3-25.8 45 0 29 0 0 5.7 22.7 36.5 5.7 0 0 15.1 10.1 25.8-5 0 0 40.9 21.4 46.6-9.8 1.5-8.4.5-13.6-1.7-16.6-.6-.2-17.5-5.2-29.8 12.1z"/>
            <path d="M-20.3 19.3s9.1.4 14.4 7.1c5.4 6.7 11.2 13.8 28 6.5 0 0 33.1-18.4 34.9 1.8 0 0 13-16.8 29.8-12.2 0 0-4.2-10.1-21.6-1.3C75.5 1.7 55.4-19 33.3-.7c3.1-23.8-45.2-7.9-38.2 5 0 0-23.5-1.7-15.4 15z"/>
            <path d="M-2.7 24.7S2.7 42 24.7 30c-.1 0-19.6 5.4-27.4-5.3zm61-2.2s-17-9.4-27.7 1.9c0 0 19.2-7.3 27.7 3.4 0-.1 6 1.4 0-5.3z"/>
        </g>
        <path d="M-.2 4.3c-10.6-25.6 23.8-22.9 32.7-17.4 0 0-6.2-3.7-14.1 6.3l1.6-6.1S14-13.3 9.3-.7c0 0-2.3-6.5 3.8-11.3 0 0-6.6.2-8.2 16.3 0 0-4.1-5.9-.6-14.7-.1 0-4.8 2.7-4.5 14.7zm20.8-5c9.3-9.8 33 2.4 28 16.1 0 0-1.7-10.3-8.5-13.2S28.4-4.2 20.6-.7zm37.8-5.6s15.8 5.1 7 27.4c-.1.1 3.4-19.2-7-27.4z"
              class="G"/>
        <g class="H">
            <path d="M-20.3 19.3c-15.9.8-15 25.4 0 22.9 0 0 1.5 6.1 7.8 6.5 27.2 1.9 7.4-35.8-7.8-29.4zm107.2 3.2s6.8 8.1-.5 23.5-25.8 4.1-19.6-9.4c0 0-8.1 7.7-9.8-2s19-13.4 19-13.4l10.9 1.3z"/>
            <path d="M69.7 32.8S65 49.4 76.6 50.4c11.6.9 14.8-19.6 10.3-24 0 0 2.9 19-10 20.3 0-.1-6.9 2.9-7.2-13.9z"/>
        </g>
        <path d="M843.4-17.8s-16-2.5-16 16.6 8 19.7 8 19.7-11.1 6.1 0 20.9 32.6 6.8 32.6 6.8 9.2 24.6 28.3 7.4c0 0 37.5 28.3 71.3-8.6 0 0 38.7 8.4 43.6-21.9S978.6-5.4 978.6-5.4s6.8-47.9-55.3-22.7c0 0-9.2-27-38.7-3.7 0-.1-28.6-28.8-41.2 14z"
              class="G"/>
        <g class="H">
            <path d="M1010.7 11.3c-26.3 35.1-66.6 17.1-66.6 17.1-17.2 32.6-40 10-40 10-19.1 19.2-32.6-.2-32.6-.2-22.7 2.5-20.9-23.4-20.9-23.4-24 0-18.7-29.2-18.7-29.2h0c-2.6 2.4-4.7 6.5-4.7 13.3 0 19.1 8 19.7 8 19.7s-11.1 6.1 0 20.9 32.6 6.8 32.6 6.8 9.2 24.6 28.3 7.4c0 0 37.5 28.3 71.3-8.6 0 0 38.7 8.4 43.6-21.9.9-4.8.7-8.7-.3-11.9z"/>
            <path d="M904.4 58.3l1.3.6-1.3-.6zm-8.2-4.8s.1.1 0 0c.1.1 0 0 0 0z"/>
            <path d="M896.2 53.5c-.5.5-1.1.9-1.6 1.4.6-.4 1.1-.9 1.6-1.4zm-9 5.5h-.1c.1.1.1.1.1 0zm3.7-1.5c-.2.1-.3.2-.5.3.2-.2.3-.2.5-.3zm15.3 1.6l1.5.6-1.5-.6zm105.4-40.9v-1.6 1.6zm-.7-6.4c0-.2-.1-.3-.1-.5 0 .1 0 .3.1.5zM892.4 56.5l-.8.5c.3-.1.6-.3.8-.5z"/>
            <path d="M850.8 14.8s-1.8 25.8 20.9 23.4c0 0 13.5 19.4 32.6.2 0 0 22.7 22.6 40-10 0 0 40.3 18.1 66.6-17.1-6.7-4.9-17-9.4-32.1-9.4 0 0-9.8-25.2-36.3-12.3 0 0 .9-15.4-17-11.1 0 0-14.9 7.1-21.7-.8-6.8-7.8-22.1-12.2-30.1 7.8 0 0-13.5-16.9-19.1 0 0 0-4.7-3.9-10.7-4.5-.1.4-.2.7-.3 1.1 0 0-6.6-1-11.3 3.3-.2.2-5.5 29.4 18.5 29.4zm160.5-1c0 .2 0 .4.1.6 0-.2 0-.4-.1-.6zM886 59.4h0 0zm10.7-5.5c.1.1.3.2.4.3-.1-.2-.3-.3-.4-.3zm.6.4c.1.1.3.2.5.3-.2-.1-.4-.2-.5-.3zm-3.2 1c-.3.3-.7.5-1 .7.3-.2.7-.4 1-.7zm116.4-29.2c0 .1 0 .1-.1.2.1-.1.1-.1.1-.2zm.7-3.1l.4-3.3-.4 3.3zM896.4 53.6c.1 0 .1.1.2.2-.1-.1-.2-.1-.2-.2zm6.4 3.9l1.4.7c-.5-.3-1-.5-1.4-.7zm-1.4-.8c.3.2.6.3.9.5l-.9-.5zm-3.4-2c.2.1.5.3.8.5-.3-.2-.6-.3-.8-.5zm2 1.3c.3.2.7.4 1.1.6L900 56zm-1-.6c.2.1.5.3.7.4-.2-.2-.5-.3-.7-.4z"/>
            <path d="M886 24.7c2.1 4.6 5.6 8.4 9.8 10.4 2.1 1 4.4 1.4 6.8 1.5l1.8.1h1.9c1.2 0 2.5-.1 3.7-.2 2.5-.1 4.9-.5 7.2-1a19.5 19.5 0 0 0 6.5-2.7c2-1.3 3.7-3 5.1-4.9 1.5-2 2.7-4.2 3.9-6.4-.5 2.5-1.3 5-2.4 7.3-1.2 2.3-2.9 4.5-5 6.2s-4.6 2.9-7.2 3.7c-2.6.7-5.2 1.1-7.8 1.3-1.3.1-2.6.1-3.9.1h-1.9c-.7 0-1.4-.1-2-.1-2.7-.3-5.4-1-7.8-2.4-4.9-2.9-7.9-7.8-8.7-12.9z"/>
        </g>
        <path d="M874-18.7c-.5.1-.9.2-1.4.4-1.6.4-4.6 1-8.3 1-5.6 0-6.2 14-6.2 14 2.3-3.4 4.9-6.4 8.1-8.5 3.1-2.2 6.7-3.5 10.5-4.1 1-.2 2.1-.3 3.1-.4 2.8-.2 5.6-.2 8.5 0a83.59 83.59 0 0 1 11.9 1.8c-8.7-22.3-26.2-4.2-26.2-4.2zm80.9 16.1c-.4-1.6-1.1-2.9-2.1-3.9-1-1.3-2.3-2.4-3.7-3.2-1.8-1.1-3.8-1.7-5.7-2.2-.2 0-.3-.1-.5-.1 1.3-4.8-2.3-5.4-2.3-5.4-9.6-4.1-19.5 9.6-19.5 9.6a110.03 110.03 0 0 1 10-2.2h.6c1.8.1 3.6.2 5.4.5 1.8.2 3.7.5 5.4 1 1.7.4 3.4.9 4.9 1.7 1.6.7 2.8 1.8 3.9 3 2.2 2.6 2.9 6.3 2.7 10.1 1.4-2.6 1.8-5.8.9-8.9z"
              class="G"/>
        <path d="M862.5 22.2l-2.2-1.5c-1.8-1.3-3.6-2.6-5.2-4.2-1.7-1.5-3.3-3.1-4.6-4.7-.7-.8-1.2-1.7-1.7-2.6-1.2-2.7-1.8-5.3-2.1-7.7V.1c0-4.3 1.2-8.7 3-13 0 0-9.6 6.1-5.4 19.3.6 2.7 1.8 5.3 3.5 7.5 11.3 18.5 24.6 12.3 24.6 12.3s-4.6-1.2-9.9-4z"
              class="H"/>
        <path d="M673.2 62.2c-38.8-10-38.5 28.9-4.4 10.9 0 0 10.2 14.2 46.3.7 0 0 13.8 18.2 53.9 1.8 0 0 5.1 9.8 17.1.7 0 0 16.8 15.7 43.3-.7 0 0 22.6 9.8 24.8-5.1 35.6 18.5 63.5-24.1 9.5-12 0 0-2.5-14.9-39.7-15.3 0 0-1.8-18.2-23.3-13.1 0 0 2.9-15.7-25.5-13.8 0 0-38.6-14.9-43.7 24.8 0 0-35.2-7.7-36.8 15.3 0 0-17.1-5.1-21.5 5.8z"
              class="H"/>
        <path d="M680.8 67c5.1 9.8 35.1-2.2 35.1-2.2s26.9 20.4 69.9 1.8c0 0 12 24 42.2 2.9 0 0 14.6 6.5 25.1-2.2 0 0 43 9.8 10.6-8.7 0 0-2.5-14.9-39.7-15.3 0 0-1.8-18.2-23.3-13.1 0 0 2.9-15.7-25.5-13.8 0 0-38.6-14.9-43.7 24.8 0 0-35.2-7.7-36.8 15.3 0-.1-19 .7-13.9 10.5z"
              class="G"/>
        <g class="H">
            <path d="M759.6 53.1c2.1-.9-62-26.3-64.8 3.3-27.7 2.3-15.2 24.7 21.2 8.4 0 0 26.9 20.4 69.9 1.8 0 0 12 24 42.2 2.9 0 0 14.6 6.5 25.1-2.2 47.8 12.5 6.9-22.8-33.1-13.3 0 0 6.6-12.2-19.3-23.8 1.1-21.5-57.8-23-41.2 22.9z"/>
            <path d="M827.4 69c-11 0-20.1-3.9-21.1-9-2.5 14.2 44.8 14.2 42.3 0-1.1 5.1-10.1 9-21.2 9zm-112.1-4c-6.5-2.1-10.7-7.5-9.8-12.5-5.6 13.1 22.1 21.8 25 7.9-2.2 4.6-8.7 6.6-15.2 4.6zm73.4-46.7c6.8 1 11.7 5.7 11.6 10.8 3.5-13.8-25.2-18.1-25.9-3.9 1.4-4.9 7.5-7.9 14.3-6.9zm25.6 21.2c5.3 4.3 7.3 10.8 4.6 15.2 10-10.2-12.8-28.3-20.5-16.3 3.7-3.6 10.5-3.2 15.9 1.1zm-56.5 28.1c9.8 2.2 21.2 1.1 27.9-7.1 1.8 5.5 5.3 10.9 10.8 13.2-5.7-1-10-5.8-12.3-10.9l1.8.3c-6.7 8.2-19.2 8.9-28.2 4.5z"/>
        </g>
        <path d="M473.6 107.3c-36.5-7.9-42.3 45.9-4.7 34.5 0 0 23.3 35.2 37.3 1.8 0 0 14.9 21.6 31.7-7.4 51.7 23.2 54.1-54.8 14.9-33.6 0 0-6.4-27.1-41.5-8.4.1 0-23.7-23.2-37.7 13.1z"
              class="G"/>
        <g class="H">
            <path d="M443.8 126.9c0 24.3 25.2 14.9 25.2 14.9s23.3 35.2 37.3 1.8c0 0 4.3 6.2 10.9 7.5l12.1-9.6s.3-2.9 8.3-4.7l.3-.6a16.15 16.15 0 0 0 .8.3c16.1-1.5 37.2-2.7 30.7-20.3-2.9-9.3-19.4 0-19.4 0 7-11.9-18.9-33.4-26.9-8.9.7-9.5-23.5-17.9-20.8 0-3.5-6.3-25.3-6.7-28.8 0 .1 0-29.7-4.7-29.7 19.6z"/>
            <path d="M558.1 133.3c-13.7 2.7-18.9-10.8-18.9-10.8 2.5 7.9-6.3 17.4-14.6 12.9.4 6.6-6.3 14.4-17.8 8.9 2.8 3.4 16.2 17.7 31.2-8 51.7 23.2 54.1-54.8 14.9-33.6 31.6-.7 18.9 27.9 5.2 30.6zm-84.5-26c-36.5-7.9-42.3 45.9-4.7 34.5 0 0 23.2 35 37.2 2.1-4.1-2.2-5.6-5.2-5.6-5.2-2.5 12.1-34.5 11-29.3-10.9-25 8.3-18.3-23.3 2.4-20.5z"/>
            <path d="M471.2 113.7s-10 8 0 14.1c0 0-3.7 16.4 12.8 13.6 0 0-14.8-2.3-9.1-14.6 0 .1-9.3-3.9-3.7-13.1zm19.9 25s9.9 11.4 17.5-3.3c-.1 0-8.6 7.7-17.5 3.3zm50.6-25s6.7 18.8-11.3 14.5c.1.1 12.7-2 11.3-14.5z"/>
        </g>
        <path d="M484 106.9s6.1-5.3 16.5 2.4c0 0 4.3-11.1 11-10.6 0 0-9.5 7.8-7.6 16.3-.1 0-4.8-8.7-19.9-8.1zm46.5-2.7c11.8-8.9 21.3 10 14.4 17.2 0-.1 6.7-13.9-14.4-17.2z"
              class="G"/>
        <path d="M6 55.4s-42.9-12-25 23c-39.6-2.2-25 75.5 5 50.9-16.9 52.5 98.3 35.6 89.9 8 0 0 9 40.5 41.9 26.3 33-14.3 29-29.3 29-29.3s14 35.5 52.9 14.3c0 0 18-4.3 11-29.2 35.9-3.7 29.2-73.2-13-58.9 13.3-59.2-66.1-74.1-77.9-22 0 0-13.9-15-24.4-3C84.3-15.1 7.5 5.8 6 55.4z"
              class="G"/>
        <g class="H">
            <path d="M219.1 61c-3.8-1.3-8.7-2.6-21.4-.6 0 0-.2-.3-.7-.7 6.9-34.5-30.1-55.6-38.6-14.8-1.7-.2-3.3-.3-5.1-.4-1.8-13.9-38.7-12.2-33.5 3.9-3.1 1-5.7 2.1-8 3.2-2.6-5.7-10.8-7.8-15.8-3.9C77.4 12 8.5 46.5 6 55.4c0 0-42.9-12-25 23 0 0-15.8 0-21.9 12.7 4.7 14 14.1 28.6 25.8 39.1.7-.5 1-.9 1-.9s-.2.5-.4 1.4C8.6 154.4 74.1 141 76 128.9c0 0 33.6 52.7 70.6 5.4 0 3 18.8 35.9 56.6 12.7 2.6-9.8.4-21-11.6-33 .2-.1 59.4-8.7 27.5-53z"/>
            <path d="M174.3 78.5c30 14.9 14.2 61.6-18.3 55.8 41.1 19 62.7-46.7 18.3-55.8zM28 163.2c51.8-3.8 48.3-24.3 48-25.9.5 2.2 9.9 40 41.9 26.1 23.8-11.3 28.1-17.9 29-29.3 0 0-29.9 34.6-56.8 3.6l-13.8-9C38.2 163-47.6 107.5-18.8 78.2c-39.6-2.2-25 75.5 5 50.9-.1.2-12.1 38.1 41.8 34.1z"/>
            <path d="M219.1 97.9c-17.3 13-27.3 16-27.3 16s27.6 34.5-12 41.2c11.5-2.6 39.6-6.1 30.9-35.8 0 0 27-3 23-35.9-1.6-13.3-7.8-19.6-14.6-22.4h0s17.4 23.9 0 36.9zm-109.2-1c-4.2 16.6-10.3 22-34.1 29.2-34.9 8.5-43-2-52.7-12.2.7 7.8 19.7 33.5 52.9 21.2l-.1 2.2 14 .5c24-15.8 20-40.9 20-40.9zm-118 6.2C-16 92.8-23.7 65.1-5.9 61c-10.5-1.9-16.8 9.7-15.5 18.8-7.2 4.1-8 6-1.9 19.7 6.8 15.2 27.4 16.1 27.4 16.1-4.3-4.2-8.8-8.1-12.2-12.5z"/>
        </g>
        <path d="M18.4 64.7C5.4 33.2 58 18 67.3 45.3 80.2 9.6 130.7 58.7 90.2 81c26.2-26.3-3.1-57.5-21.5-27.7C57.8 30.9 14 30.5 18.4 64.7zm9.9 14C13.5 56.9 46.1 22.6 60.6 59.8 40.9 37 27.1 61.2 28.3 78.7zm100.4-22.6c2.2-15.7 48.5-24.8 48.9 0 0 0-16.3-25.1-48.9 0z"
              class="G"/>
        <path d="M148.5 87.2c-41.8-10.9-58.6 70.8 0 53.3 0 0 0 47.7 58.2 28.1 0 0 29.1 49.4 96.9 13.1 0 0 78.8 31.1 75.1-40.8 41.1 19.3 46.3-65.8-15.8-47.7 0 0-2.4-50.9-52.1-29.1 1.7-55.7-104.1-14.4-100.6 7.3.1 0-30.2-44.8-61.7 15.8z"
              class="G"/>
        <g class="H">
            <path d="M148.5 87.2c-41.8-10.9-58.6 70.8 0 53.3 0 0 0 47.7 58.2 28.1 0 0 29.1 49.4 96.9 13.1 0 0 78.8 31.1 75.1-40.8 41.1 19.3 46.3-65.8-15.8-47.7 46.9 3.5 41.2 56.2-.5 40.3 7.7 48.5-38 26-38 26-67.3 49.3-112-14.9-112-14.9-7.9 4.1-114.7-15.2-63.9-57.4z"/>
            <path d="M148.5 87.2c-32.5 6.5-21.6 52.3 14.1 48.2 0 0 5.1 28.8 49.8 9.3 0 0 11.7 34.9 45.2 37.5 70.3 5.5 47.7-12 47.7-12s16.4 16.5 19.1-10.7c14.8 23 62.7 2.2 38-26 0 0 31.7 15.7 32.9-11.5 16.1-40.9-84.8-33.4-83.2-9.1 33.3-46.6-58.8-62-68.3-27-10.4-18.6-64.5-11.4-44.7 23.8.1.1-11.8-34.8-50.6-22.5z"/>
            <path d="M148 87.2s-53.5 53.7 22.2 48.2c0 0-54 1.4-22.2-48.2z"/>
            <path d="M167.8 118.1c-7.8 27.8 25.6 39 44.4 34.8 0 0 7.5 14.9 45.5 23.6 0 0-38.8-16.6-42.5-43 0 .1-38.1 26.4-47.4-15.4zm133.1 40.2s13.4 45.1 23.6 9c0 0 45.7 13.8 38-33.8 0 0-8.7 45-38.5 24.7 0 .1-6.2 18.3-23.1.1zm41.1-55.2c84.7-21.2 67 53.8 13.3 19 0 0 30 12 30.5-6.8S342 103.1 342 103.1z"/>
        </g>
        <path d="M243.3 66.9s34.9-10.5 43.7 20.3c0 0-11.8-19.9-43.7-20.3zm-47.2 10.6s27.7-17 43.2 14.3c-.1 0-14-21.5-43.2-14.3zm-4.7 8.5s24.7-15.2 42.6 10.4c.1 0-23-16.8-42.6-10.4zm-30.8-8.5s29.8-4.8 30.8 29.7c0 0-5.1-19.9-30.8-29.7zm140.3-.3s20.6 15.3 11.3 35.7c0 0 3.1-12.2-11.3-35.7zm21 34.1s-3.6-15.5 30.3-16.2c.1 0-24.1 3.9-30.3 16.2z"
              class="G"/>
        <path d="M370.7 134.9s-24.7-4.7-15.9 22.8 241.1 29.8 234 3.1-21.7-10.2-21.7-10.2 9.1-14.1-16-11.8c-1.1-30.5-48.6-26.3-47.8-7.1 0 0 0-10.2-7.1-7.8 0 0 13.8-24.3-25.3-21.2 5.7-52.2-77.5-35.8-74.4 1.6.1 0-39.4-5.8-25.8 30.6z"
              class="G"/>
        <g class="H">
            <path d="M589 162.4l-44.2-9.4H509l-30.3-15c-21.4 1.3-105.6 7.4-125.5 6-13.3 50.8 232.5 40.1 235.8 18.4z"/>
            <path d="M451.3 157c24.9 6.6 35.3-4.8 35.3-4.8 20.2 20.2 41.1 8.3 41.1 8.3s5.7 14.5 28.1 14.9c18.3-2.7 30.8-6.6 32.8-12h0c-6.9-16.5-24.1-11.3-24.1-11.3-.7-13.7-18-6.5-18-6.5-13.7-26.7-45.6-3.6-45.6-3.6-3.7-25.6-33.4-24.5-33.4-24.5-34.3-40.4-62.4 2.9-62.4 2.9-8.8-13.2-24.7-11.2-35-8.2-2.9 4.6-3.5 11.7.5 22.5 0 0-24.7-4.7-15.9 22.8 42.8 24.6 96.6-.5 96.6-.5z"/>
        </g>
        <path d="M413.8 120.6c10.9-20.5 39.7-19 48.7 2.1 0 0 16.6-4.3 25.6 5 0 0-20.9-6.1-26.3 0-11.6-22.7-31.3-19-48-7.1zm-13.7 4s-3.6-10.6-26.7-7.9c.1 0 16.6.4 26.7 7.9zm143.5 26.6c6.4-8.6 21.1-3.8 18.7 7.6-1.2-6-13-12.5-18.7-7.6zm24.2 5.8s11.8-7.9 20.9 6.5c0 0-7.9-8.6-20.9-6.5z"
              class="G"/>
        <path d="M365.5 151.2c14 21.8 61.9 14.8 75.7 0-16.9 9.3-59 10.8-75.7 0zm110-8.7c.9 12.6 21.7 21.1 31 12.4-10.2 1.8-24.1-7.7-31-12.4zm64.6 11.2c-2.1 25.7 25.1 24.3 38.2 16.8-14.1 4-32.5 0-38.2-16.8z"
              class="H"/>
        <path d="M774.5 100c-31.2-6.6-9.7 94.5 42 35.9 0 0 9.2 27.7 34.9 6.2-23.6 29.2 76 70.5 70.7 14.4 0 0 23.6 23.6 41 2.1 0 0 21.5 19.5 30.8-5.1 0 0 21.5 42 45.1 0 36.3 12.5 41.5-48.2 7.2-33.8 47.2-12.2.7-63.4-13.3-32.8 22-30-40.6-45.6-46.1-32.8 68.2-76.9-102.3-93-77.7-29.7 0 0-23.8-29.7-50.4 18.5-10.8-26.6-76.5-11.9-51.3 27.7-14.3-27.4-71.1 6.6-32.9 29.4z"
              class="G"/>
        <g class="H">
            <path d="M993.9 153.3s21.5 42 45.1 0c35.8 11.7 40.3-43.8 11-35.2 8.5-3.5 27-13.6 11.6-31.4-16.2-17.6-23.8-8.8-28.7 0 32 33.9 4.5 60.3-20.2 65.4-24.7 5-70.1-72.4-88.6-27.5s-64.5 7.3-64.5 7.3c-19.1 17.9-45.4 0-45.4 0-54.4 20.8-39.6-31.9-34.2-50.5s27.4-11.1 27.4-11.1c-21.4-29.7-68 12.5-32.8 29.7-31.2-6.6-9.7 94.5 42 35.9 0 0 9.2 27.7 34.9 6.2-23.6 29.2 76 70.5 70.7 14.4 0 0 23.6 23.6 41 2.1 0-.1 21.5 19.4 30.7-5.3z"/>
            <path d="M807.3 70.3s-26.3-10.2-32.5 3.8c-6.1 14 1 23.2 1 23.2-11 10.4-15.9 46.3 15.3 39.3 0 0 10.6 3.7 23-4.7 0 0 21.3 22.4 45.4 0 70.5 50.3 50.9-33.1 91.8-18.2 55.9 93.6 127.9 6.4 81.5-27 24.3-18.3-32.9-56-46.1-32.8 0 0 8-17.4-40.8-20.7-48.8-3.4-48.2 26.6-48.2 26.6-12-41.1-50.6-2.7-40.4 22.8 0-.1-12.5-32.9-50-12.3z"/>
            <path d="M827 124.6s9 14.6 32.5 7.3c0 0 23 15.9 37 2 0 0-7.9 20.6-38.7 5.7.1 0-26.3 12.5-30.8-15zm104.8-9.4c40.3-35 59.7 47.1 102.8 19.6-32.8 45.3-71.5-24.8-102.8-19.6zm-130-20.5c-4.5-32.8-51.5-12.9-27.3 5.4 0 0-20.8 10.9 5.4 28.5 0 0-19.1-18.5-1.1-28-24.5-19.5 15.1-22.6 23-5.9z"/>
        </g>
        <path d="M897.2 162.6c-20 45.1-124.2-25-36.1-41.5 0 0-11-12.6 2.6-35 13.5-22.4 50.3-5 50.3-5 3.9-32.6 61.9-39.6 63.4-3.9 15.3-62 119.5 3.2 69.7 34.1 0 0 47.6 7.6 2.8 41.3 30.3 36-42.9 53.7-45.1 21 0 0-7.1 16.7-42.4 12.6-27.5-3.2-25.3-15-25.3-15-10.6 18.1-39.8 16.3-39.9-8.6z"
              class="G"/>
        <g class="H">
            <path d="M1049.9 152.4c44.8-33.7-2.8-41.3-2.8-41.3-1.6 74.3-58.7 66.4-103.7 46-22.9 16.9-47.6 2.8-47.6 2.8-20.8 13.2-71.1-24.7-34.7-38.9-88.2 16.6 16.2 86.7 36.1 41.5.2 25 29.4 26.6 39.8 8.4 0 0-2.2 11.8 25.3 15 35.3 4.1 42.4-12.6 42.4-12.6 2.3 32.9 75.5 15 45.2-20.9z"/>
            <path d="M861.1 121.1s-26.1 7.2-21.3 21.4c4.9 14.1 20.6 20.1 27.9 19.4 0 0 19.9 14.1 28.1-1.8 4.1 14.1 35.2 7.6 40 1.6 0 0 3.6 6.5 22.2 7.6 15.7-.1 17.7 11.5 31.1 8.1l26.5-7.5c18-5.3 19.3-7 21.1-19.3 0 0 28-14.6 10.4-39.4 38-19-5.7-69.4-30.9-19.1 0 0-10.8-17.8-31.8-5.9-12.4-24.8-63.6-18.2-52.5 16.6 0 0-24.9-25.3-44.3-12s-3 31.4-3 31.4-10.8-4.4-23.5-1.1z"/>
            <path d="M887.6 151.3s-3.1 9.7 8.8 13.4 32.6-10.8 32.6-10.8c-2.2.8-40.4 13.3-41.4-2.6zm94.7 12.7s2 11.2 25 9.6c23-1.5 23.8-23.4 23.8-23.4-9.3 21.9-31.5 20.5-48.8 13.8zm57.9-79.9s22.3 8.3 6.9 27.1c0 0 12.9 16.9 2.5 27.4 0 0 3.2-21.6-8.2-25.6-.1 0 13.6-12.5-1.2-28.9zm-182.6 61.6c-18.6-17.6 17.3-39.2 27-23.6-13.9-4.3-31.6.5-27 23.6z"/>
        </g>
        <path d="M899.7 97.3s9.9-12.6 30.3 1.5c0 0 .9-24.7 26.1-23.8 0 0-23.2 3.5-24.3 29.2-.1.1-16.3-13.4-32.1-6.9zm66.7-8.2c11.4-14.3 42.9 5.9 26.9 29.4 0 0 3.3-22.8-10.1-27.6-13.3-4.9-16.8-1.8-16.8-1.8z"
              class="G"/>
        <path d="M515.8 156.6s-34.5 6.3-.9 16.6 36.2-8.3 36.2-8.3 17.1 32.1 50.4 1.6c0 0-4.6 9.3 15.6 6.8 0 0 34.4 31 75.6-5.1 0 0 11.6 13.7 20.6 3 0 0 9 10.7 16.7 0 0 0 20.2 23.6 42.9 0 0 0 22.7 13.3 31.7 0 0 0 17.7 2.1 19.8-6.9 0 0 10.9 8.6 11.7-2.6.9-11.2-10.1-5.1-10.1-5.1s7.7-11.2-4.9-10.6c20.1-8.9-1.4-38.7-19.1-25.5 0 0 8.8-21.9-17.6-15.4 17.4-28.6-20.4-50.9-42.5-34.5 0 0-2.4-8.6-13.9-3.9-2.2-28-49-18.8-53.8-1.9-29.5-34.8-98.7-17.3-99.5 33-15.2-15.4-64.7 26.3-43.1 43.1 0-.1-24.9-9.3-15.8 15.7z"
              class="G"/>
        <g class="H">
            <path d="M531.6 140.8l-2.9-2.7c1.4 1.9 2.9 2.7 2.9 2.7z"/>
            <path d="M824.5 164.2s10.9 8.6 11.7-2.6c.9-11.2-10.1-5.1-10.1-5.1s7.7-11.2-4.9-10.6l-3.4 3.4-22.5-9.6-171.8 7.3-91.8-6.3s-24.8-9.3-15.7 15.7c0 0-34.5 6.3-.9 16.6s36.2-8.3 36.2-8.3 17.1 32.1 50.4 1.6c0 0-4.6 9.3 15.6 6.8 0 0 34.4 31 75.6-5.1 0 0 11.6 13.7 20.6 3 0 0 9 10.7 16.7 0 0 0 20.2 23.6 42.9 0 0 0 22.7 13.3 31.7 0-.1.1 17.6 2.2 19.7-6.8z"/>
            <path d="M531.6 140.8c-15.4-.8-15.1 8.8-8.8 18.7 0 0-12.3-1.4-13.3 5.1-1 6.4 34.9 11.5 40.4-9.6 0 0 29.9 25.9 53.3.6 0 0 50.5 34.1 90 0 0 0 15.2 18.3 37.2 6.8 0 0 28.5 19.5 40-6.6 0 0 31.7 22.2 47.3 2.9 0 0 11-6.9 0-9.2 0 0 10.1-28.9-20.2-23.4-7.7-30.6-73.3-24.3-79.9 2.3 35.7-67.5-59.4-61.3-45-7.2-6.1-70.5-99.6-52.4-86.4-2.9 0-.1-39.9-28.3-54.6 22.5z"/>
        </g>
        <g class="G">
            <path d="M586.2 118.2s5.1-35.8 45.9-38.6c.1 0-31.2 7.8-45.9 38.6z"/>
            <path d="M586.2 118.2s-42.3-12.9-50.1 23c.1-.1 11.5-25.3 50.1-23zM696 126c.9-20.8-51.6-9.5-40.4 9.6 0 0 3.7-12.6 17-14.6 13.3-1.9 17.9-1.5 23.4 5zm28-15.4s3.7-31.9-34.5-21.4c.1 0 28.6-2.7 34.5 21.4zm35.5 14.5c19.7-17.7 64.5 5.2 36.2 30.7 22.3-31.9-23.7-33.7-36.2-30.7z"/>
        </g>
        <path d="M586.2 146.8c3.5 21.8 35.6 8.6 36.3-7.3 0 0-17.4 28.2-36.3 7.3zm-52.3-.3s-12.4 3.1-5.2 12.6c7.3 9.5 41.9-12.6 41.9-12.6s-24.8 12.5-34.5 9.3c-9.6-3.2-2.2-9.3-2.2-9.3zm101 9.3s30.3 16.7 56.5-9.3c0 0-18.8 41.5-56.5 9.3zm99.6-7.5s34.5 17.3 50.1-1.7c-.1 0-22.1 31.9-50.1 1.7z"
              class="H"/>
    </g>
    <g class="J">
        <path d="M612.3 56.8l-24.8-1c-.9 8.3.9 17.1 4.5 24.2l37 .1c-2.2 2.8-26.2 4.9-35.7 2.2 6.5 10 11.5 15.5 24.2 12.8 21.7-6.2 14.8-38.5-5.2-38.3zm56.2 2.2l-5.3.9-9 6.6c-.2-2.4-.6-4.9-1.2-7.2-2.7 4.5-9.2 2.2-15.7-3 8.9 2.3 10.8-12 1.7-12.4-4.1-.1-7.1 4.3-5.8 8.3-21.9-27.2 23.3-23.4 21.2.9l14.1 4.4c-1.6-39.3-54.1-53.5-74.2-20.7 6.5-4.7 14.6-7.4 23-7.2.8 0 1.1 1 .6 1.5-4.2 4.4.7 16.5 10.9 27.1 10.5 11.1 21.9 15.1 26.3 11.5 0 12-5.1 22.7-13.1 30 15.8-5.9 27.1-22.2 26.5-40.7zm-27.9-9.8c1.7 0 1.7 2.6 0 2.6s-1.6-2.6 0-2.6zm-6.5-.4c0-3.4 4.9-3.4 4.9 0 .1 3.4-4.8 3.4-4.9 0z"/>
        <path d="M662.7 55.7s2.9 1 .5 4.3c-3.4 4.5 5.3-.9 5.3-.9.6-4.8-4-3.9-5.8-3.4zm-34.8 51.4c-25.9 0-47-21.1-47-47s21.1-47 47-47 47 21.1 47 47-21.1 47-47 47zm0-90.8c-24.2 0-43.8 19.7-43.8 43.8 0 24.2 19.7 43.8 43.8 43.8s43.8-19.7 43.8-43.8c.1-24.1-19.6-43.8-43.8-43.8zM285.5 56.4v33.5c0 2.1-.8 3.2-2.4 3.2-1.7 0-2.5-1.1-2.5-3.2v-57c0-2.1.8-3.2 2.5-3.2s2.5 1.1 2.5 3.2v18.4h16.6V34.4c0-12.7-6.4-18.2-19-18.2-13.1 0-19.7 7-19.7 21v48.4c0 14 6.6 21 19.7 21 12.7 0 19-6 19-18.1V56.4h-16.7zm42.8.1h-5V13.2h-16.7v88.9h16.7V70.6h5V102H345V13.2h-16.7v43.3zm21.8 42.6h16.7V10.2h-16.7v88.9zm57-39.4c2.5-2.9 3.7-6.7 3.7-11.4V33.6c0-10.7-5.8-16.6-17.4-16.6H372v88.9h16.7V73.2h3.5l2.4 32.6h17.3l-4.8-46.1zm-18.4-28.6h1.4c2.4 0 3.5 1.5 3.5 4.6v19.5c0 3.5-1.2 5.3-3.5 5.3h-1.4V31.1zm48.4 45.1c5.3 0 9.5-1.8 12.6-5.3s4.6-8.1 4.6-13.8V39.5c0-5.7-1.5-10.2-4.5-13.4s-7.2-4.8-12.7-4.8h-21.8v88.9H432v-34h5.1zm-5-14.1V35.5h1.6c2.3 0 3.4 1.5 3.4 4.4v17.7c0 3-1.1 4.5-3.4 4.5h-1.6zm42.2-41.8h-16.7v88.9h29.1V95h-12.3V20.3zM506 67h13.7V53.6H506V31.1h14.5V17h-31.2v88.9h31.5V91.7H506V67zm37.4-19.2l-.7-8.6-2.6-22.2h-18.3l13.5 70.3v18.6H552V87.2L565.6 17h-17.9l-2.5 22.2-.7 8.6h-1.1z"/>
    </g>
</svg>