<svg width="120" height="120" viewBox="0 0 120 120" fill="none" xmlns="http://www.w3.org/2000/svg">
    <g clip-path="url(#clip0_284_10471)">
        <path d="M102.428 102.426C125.859 78.9949 125.859 41.0051 102.428 17.5736C78.9962 -5.85787 41.0063 -5.85787 17.5748 17.5736C-5.85661 41.005 -5.85661 78.995 17.5748 102.426C41.0063 125.858 78.9962 125.858 102.428 102.426Z" fill="url(#paint0_radial_284_10471)"/>
        <path d="M101.264 101.263C124.055 78.4717 124.057 41.522 101.268 18.7332C78.4791 -4.05553 41.5294 -4.05372 18.7384 18.7373C-4.05257 41.5283 -4.05438 78.478 18.7344 101.267C41.5231 124.055 78.4728 124.054 101.264 101.263Z" fill="url(#paint1_radial_284_10471)"/>
        <path d="M59.9997 115.069C90.4133 115.069 115.068 90.4135 115.068 60C115.068 29.5864 90.4133 4.9314 59.9997 4.9314C29.5862 4.9314 4.93115 29.5864 4.93115 60C4.93115 90.4135 29.5862 115.069 59.9997 115.069Z" fill="url(#paint2_radial_284_10471)"/>
        <path d="M59.9999 112.56C89.028 112.56 112.56 89.0282 112.56 60.0001C112.56 30.972 89.028 7.44006 59.9999 7.44006C30.9719 7.44006 7.43994 30.972 7.43994 60.0001C7.43994 89.0282 30.9719 112.56 59.9999 112.56Z" fill="url(#paint3_radial_284_10471)"/>
        <path d="M59.9999 110.486C87.8824 110.486 110.486 87.8825 110.486 60C110.486 32.1175 87.8824 9.51428 59.9999 9.51428C32.1174 9.51428 9.51416 32.1175 9.51416 60C9.51416 87.8825 32.1174 110.486 59.9999 110.486Z" fill="url(#paint4_radial_284_10471)"/>
        <g style="mix-blend-mode:lighten" opacity="0.75">
            <path d="M59.9999 112.56C89.028 112.56 112.56 89.0282 112.56 60.0001C112.56 30.972 89.028 7.44006 59.9999 7.44006C30.9719 7.44006 7.43994 30.972 7.43994 60.0001C7.43994 89.0282 30.9719 112.56 59.9999 112.56Z" fill="white"/>
        </g>
        <path d="M51.8682 74.3772C51.3597 74.3772 50.9482 74.7886 50.9482 75.2972C50.9482 75.3372 50.9482 75.3772 50.954 75.4172C51.514 79.4629 55.3425 82.6001 59.9882 82.6058C64.6282 82.6115 68.4797 79.4915 69.0454 75.4458C69.114 74.9429 68.7597 74.48 68.2568 74.4172C68.2168 74.4172 68.1768 74.4115 68.1368 74.4115L51.8682 74.3829V74.3772Z" fill="url(#paint5_linear_284_10471)"/>
        <path d="M85.2226 50.6286C83.3312 49.8971 81.834 50.2743 80.7769 50.88C80.5197 50.12 80.2226 49.3771 79.8912 48.6457C79.6454 48.1143 79.3826 47.5829 79.1026 47.0686C76.2169 41.7714 71.3654 37.3657 65.7769 35.5028V35.4571L65.6683 32.5086L62.0512 34.6743C61.9083 34.6571 61.7597 34.64 61.6169 34.6286C61.3483 34.6 61.0797 34.5828 60.8112 34.5714L60.2854 32.2971L60.1254 31.6343C59.9426 31.6343 59.7654 31.6343 59.5997 31.6571C56.234 31.9257 54.5597 34.9771 54.2912 35.5028C48.7083 37.3543 43.8397 41.7371 40.9369 47.0229C40.6512 47.5428 40.3883 48.0686 40.1426 48.6C39.8054 49.3257 39.5083 50.0686 39.2512 50.8286L39.114 50.7543C38.0683 50.1943 36.6169 49.8628 34.8054 50.5657C30.8283 52.1028 29.7483 58.6514 32.9597 62.7314C34.274 64.3943 35.6512 65.3086 36.9826 65.7143C36.9654 65.7886 36.9483 65.8686 36.9312 65.9429C36.6912 67.04 36.5712 68.16 36.5712 69.28C36.5597 76.0914 40.9426 82.08 47.5369 85.4571C48.5083 85.9543 49.5026 86.3829 50.5312 86.7543C52.3826 87.4229 54.3026 87.8857 56.2512 88.1314C56.3369 88.1486 56.4112 88.1543 56.5083 88.1657C57.5654 88.2971 58.634 88.3657 59.7026 88.3771H59.954C64.514 88.3829 68.7712 87.3314 72.3712 85.4914C74.5769 84.3886 76.5883 82.9257 78.3254 81.1714C79.2569 80.2171 80.0912 79.1714 80.8054 78.0457C81.0112 77.7257 81.2112 77.3886 81.3883 77.0457C81.5654 76.7029 81.7483 76.3714 81.9026 76.0228C82.0569 75.6743 82.2112 75.3257 82.3426 74.9714C82.4054 74.7886 82.474 74.6114 82.5369 74.4343C82.5997 74.2571 82.6569 74.0743 82.7083 73.8914C82.7597 73.7086 82.8112 73.5486 82.8569 73.3714C82.8569 73.3543 82.8683 73.3371 82.874 73.3143C82.9654 72.96 83.0454 72.6114 83.114 72.2457V72.2229C83.1483 72.0343 83.1826 71.8457 83.2112 71.6571C83.2397 71.4686 83.2683 71.28 83.2854 71.0914V71.0686C83.3083 70.8971 83.3197 70.7314 83.3369 70.56V70.48C83.354 70.32 83.3597 70.1428 83.3654 69.9714C83.3654 69.9486 83.3654 69.9257 83.3654 69.9029C83.3654 69.7143 83.3769 69.5257 83.3769 69.3371C83.3769 68.2114 83.2569 67.0914 83.0226 65.9943C83.0054 65.92 82.9883 65.84 82.9712 65.7714C84.3026 65.3657 85.6912 64.4571 87.0054 62.8C90.2569 58.7257 89.194 52.1714 85.2226 50.6228V50.6286ZM38.8397 52.2057C38.3712 53.9028 38.1254 55.6514 38.1197 57.4171V57.7771C38.1312 59.9028 37.8912 62.0286 37.394 64.0971C36.4169 63.7486 35.4054 63.04 34.4454 61.8229C31.914 58.6057 32.7712 53.4514 35.8969 52.24C37.0854 51.7828 38.0683 51.8857 38.8454 52.1828C38.8454 52.1886 38.8454 52.2 38.8454 52.2057H38.8397ZM72.3826 81.3314C69.4454 84.4171 64.9712 86.3828 59.9597 86.3714C57.4854 86.3714 55.034 85.8743 52.7597 84.8971C50.7997 84.0571 49.0283 82.8286 47.5483 81.2857C45.3254 78.9314 44.0054 75.9429 44.0112 72.68C44.0112 71.6457 44.3883 70.2571 44.8054 69.0343C45.3483 67.4057 45.1254 65.6171 44.194 64.1714C43.9712 63.8229 43.7769 63.4629 43.6054 63.0857C43.0854 61.9486 42.8169 60.7086 42.8226 59.4571C42.8283 54.4514 47.1026 50.3886 52.3654 50.3943C54.0683 50.3943 55.7369 50.8286 57.2169 51.6629C58.954 52.6457 61.0854 52.6514 62.8283 51.6743C64.3083 50.8457 65.9826 50.4114 67.6854 50.4171C72.954 50.4286 77.2054 54.4971 77.1997 59.5086C77.194 61.1771 76.7083 62.8114 75.8112 64.2171C75.0112 65.4514 74.7197 66.9429 74.994 68.3886C75.0397 68.6228 75.1026 68.8514 75.1769 69.08C75.594 70.3086 75.9597 71.6914 75.9597 72.7257C75.9597 73.7143 75.834 74.7028 75.5883 75.6571C75.0226 77.7886 73.9254 79.7371 72.394 81.3257L72.3826 81.3314ZM85.5597 61.9029C84.5883 63.12 83.5826 63.8229 82.5997 64.1714C82.1197 62.0971 81.8854 59.9771 81.9026 57.8514V57.4914C81.9026 55.7257 81.6626 53.9657 81.194 52.2571C81.9654 51.96 82.9597 51.8628 84.1426 52.3257C87.2683 53.5428 88.1026 58.7028 85.5654 61.9143L85.5597 61.9029Z" fill="url(#paint6_linear_284_10471)"/>
        <path d="M56.0226 67.5771C56.1997 67.1942 56.6569 67.0228 57.0397 67.2L58.8169 68.0114C59.1997 68.1885 59.3712 68.6457 59.194 69.0285C59.0169 69.4114 58.5597 69.5828 58.1769 69.4057L56.3997 68.5942C56.0169 68.4171 55.8454 67.96 56.0226 67.5771Z" fill="url(#paint7_linear_284_10471)"/>
        <path d="M60.8053 69.04C60.6281 68.6571 60.8053 68.2 61.1881 68.0229L62.9653 67.2171C63.3481 67.04 63.8053 67.2172 63.9824 67.6C64.1596 67.9829 63.9824 68.44 63.5996 68.6171L61.8224 69.4229C61.4396 69.6 60.9824 69.4229 60.8053 69.04Z" fill="url(#paint8_linear_284_10471)"/>
        <path d="M83.1426 54.0457C82.9198 53.8228 82.6226 53.6971 82.3026 53.6971L62.4341 53.6628C61.7769 53.6628 61.2455 54.1943 61.2455 54.8457V55.1771H58.7483V54.8514V54.7371C58.7255 54.4628 58.6055 54.2057 58.4055 54.0114C58.1826 53.7885 57.8855 53.6628 57.5655 53.6628L37.6969 53.6285C37.3826 53.6285 37.0855 53.7485 36.8569 53.9771C36.6341 54.2 36.5083 54.4971 36.5083 54.8171V56.0457C36.5026 58.3428 37.1941 60.5543 38.5141 62.4343C39.6112 64.0057 41.1026 65.2743 42.8341 66.1028C43.1941 66.2743 43.5655 66.4285 43.9369 66.5543C45.5826 67.1371 47.3712 67.32 49.1026 67.0914C53.5141 66.5028 57.1483 63.3143 58.3369 59.0685H61.6455C61.9826 60.2914 62.5198 61.4343 63.2455 62.4743C64.3426 64.0457 65.8341 65.3143 67.5655 66.1428C67.9255 66.3143 68.2969 66.4685 68.6683 66.5943C70.3141 67.1771 72.1026 67.36 73.8283 67.1314C74.0798 67.0971 74.3312 67.0571 74.5769 67.0057C79.6912 65.96 83.4683 61.4114 83.4741 56.1257V54.8971C83.4741 54.5828 83.3541 54.2857 83.1312 54.0571L83.1426 54.0457ZM81.7826 56.1143C81.7769 60.8057 78.2569 64.8114 73.6112 65.4343C72.1483 65.6285 70.6341 65.4743 69.2341 64.9771C68.9198 64.8685 68.6055 64.7371 68.3026 64.5943C66.8398 63.8914 65.5712 62.8171 64.6455 61.4857C63.9141 60.4457 63.4112 59.28 63.1483 58.0343L63.0055 57.36L56.9769 57.3485L56.8341 58.0228C56.0055 61.9028 52.8055 64.8685 48.8741 65.3885C47.4112 65.5828 45.8969 65.4285 44.4969 64.9314C44.1826 64.8228 43.8683 64.6914 43.5655 64.5485C42.1026 63.8457 40.834 62.7714 39.9083 61.44C38.794 59.8457 38.2055 57.9771 38.2112 56.0343V55.3257L57.0455 55.3543V56.8685L62.9426 56.88V55.3657L81.7769 55.3943V56.1085L81.7826 56.1143Z" fill="url(#paint9_linear_284_10471)"/>
        <path d="M82.3028 54.5485L62.4342 54.5142C62.2513 54.5142 62.1028 54.6628 62.097 54.8457V56.0285L57.897 56.0228V54.8457C57.897 54.6628 57.7485 54.5142 57.5656 54.5085L37.697 54.4742C37.5142 54.4742 37.3656 54.6228 37.3599 54.8057V56.0342C37.3542 58.1428 37.9999 60.2057 39.2113 61.9314C40.2285 63.3885 41.5999 64.5542 43.1999 65.32C43.5313 65.48 43.8742 65.6171 44.217 65.7371C45.7428 66.28 47.377 66.4457 48.9828 66.2285C53.3542 65.6457 56.777 62.3657 57.6628 58.1942H62.3085C62.5942 59.5485 63.1428 60.8285 63.937 61.9657C64.9542 63.4228 66.3256 64.5885 67.9256 65.3542C68.257 65.5142 68.5999 65.6514 68.9428 65.7714C70.4685 66.3142 72.1028 66.48 73.7085 66.2628C78.8056 65.5828 82.6113 61.24 82.617 56.1028V54.8742C82.617 54.6914 82.4685 54.5428 82.2856 54.5371L82.3028 54.5485Z" fill="url(#paint10_linear_284_10471)"/>
        <path d="M84.6514 29.6229C87.0228 31.3258 89.1714 33.32 91.0285 35.5715C91.9657 36.6972 92.8342 37.8743 93.6285 39.1029C94.4171 40.3372 95.1371 41.6172 95.7771 42.9315C96.4114 44.2515 96.9714 45.6058 97.4457 46.9943C97.9199 48.3772 98.3028 49.7943 98.6057 51.2229C99.2114 54.08 99.4399 57 99.2971 59.92C99.1371 57.0343 98.7085 54.1658 98.0171 51.36C97.6685 49.9658 97.2457 48.5886 96.7542 47.2343C95.7771 44.5315 94.5199 41.9372 93.0114 39.4915C92.2571 38.2686 91.4399 37.0858 90.5599 35.9429C88.7885 33.6572 86.8114 31.5372 84.6514 29.6172V29.6229Z" fill="#935848" stroke="#935848" stroke-miterlimit="10"/>
        <path d="M51.8572 97.9201C49.7087 97.5086 47.6058 96.9086 45.5658 96.1258C43.5201 95.3315 41.5487 94.3601 39.6744 93.2172C35.9144 90.9201 32.5772 87.9944 29.8172 84.5544C29.1315 83.6915 28.4858 82.8058 27.863 81.8915C27.2572 80.9715 26.6801 80.0401 26.1487 79.0744C25.6172 78.1086 25.1372 77.1201 24.6915 76.1201C24.2458 75.1201 23.8515 74.0858 23.503 73.0515C23.1544 72.0172 22.8458 70.9544 22.583 69.8915C22.3201 68.8286 22.1258 67.7486 21.9544 66.6686C21.6401 64.5086 21.5144 62.3201 21.5772 60.1372C21.7372 64.4801 22.583 68.7715 24.0744 72.8515C24.4572 73.8629 24.8687 74.8629 25.3144 75.8458C25.7601 76.8286 26.2515 77.7886 26.7944 78.7258C27.3315 79.6629 27.8972 80.5829 28.4972 81.4801C29.0972 82.3829 29.7487 83.2344 30.423 84.0801C31.0972 84.9258 31.8058 85.7315 32.543 86.5201C33.2801 87.3086 34.063 88.0515 34.8572 88.7772C35.6515 89.5029 36.4858 90.1943 37.343 90.8458C38.2001 91.4972 39.0858 92.1201 39.9887 92.7086C43.6458 95.0572 47.6458 96.8172 51.8515 97.9201H51.8572Z" fill="#935848" stroke="#935848" stroke-miterlimit="10"/>
        <path d="M100.257 64.8572C100.354 66.3543 100.314 67.8629 100.143 69.3543C100.068 70.1029 99.9484 70.84 99.8169 71.5886C99.6855 72.3372 99.5084 73.0629 99.3312 73.7886C98.9541 75.2458 98.4684 76.6743 97.8855 78.0629C97.3141 79.4515 96.6112 80.7829 95.7998 82.04C96.3084 80.6286 96.817 79.2343 97.2798 77.8286C97.5027 77.12 97.737 76.4229 97.937 75.7086C98.137 74.9943 98.3484 74.2915 98.5255 73.5772C98.7027 72.8629 98.8912 72.1486 99.0455 71.4286C99.2055 70.7086 99.3541 69.9829 99.4969 69.2572C99.7827 67.8057 100.017 66.3372 100.263 64.8572H100.257Z" fill="#935848" stroke="#935848" stroke-miterlimit="10"/>
        <path d="M56.0171 17.6401C59.1714 17.1201 62.3771 17.0058 65.5599 17.3087C67.1542 17.4515 68.7428 17.6972 70.3085 18.0344C71.8742 18.3772 73.4171 18.8115 74.9371 19.3315C76.4514 19.8629 77.9314 20.4801 79.3714 21.1829C80.8114 21.8915 82.1999 22.6858 83.5428 23.5601C86.2228 25.3029 88.6628 27.3829 90.8114 29.7544C88.4571 27.6401 85.9028 25.7544 83.1942 24.1201C81.8457 23.3087 80.4514 22.5715 79.0285 21.9029C77.6057 21.2344 76.1485 20.6401 74.6628 20.1258C73.1771 19.6058 71.6685 19.1658 70.1371 18.8058C68.6057 18.4458 67.0571 18.1601 65.4914 17.9544C62.3485 17.5544 59.1771 17.4458 56.0171 17.6344V17.6401Z" fill="#935848" stroke="#935848" stroke-miterlimit="10"/>
        <path d="M19.6913 49C20.217 46.3771 21.0398 43.8229 22.1484 41.3886C22.697 40.1657 23.3141 38.9771 23.9884 37.8171C24.6684 36.6629 25.4113 35.5429 26.1998 34.4571C26.9884 33.3714 27.8513 32.3429 28.7541 31.3486C29.657 30.36 30.617 29.4171 31.617 28.5257C33.6113 26.7429 35.7998 25.1943 38.1484 23.9086C35.9998 25.4571 33.9655 27.1657 32.0627 29.0114C30.177 30.8514 28.4398 32.84 26.8741 34.96C25.3084 37.08 23.9198 39.3257 22.7255 41.6743C21.537 44.04 20.5198 46.4914 19.6855 49.0057L19.6913 49Z" fill="#935848" stroke="#935848" stroke-miterlimit="10"/>
        <path d="M83.5085 95.8972C81.5313 97.2401 79.4342 98.4058 77.2456 99.3772C75.0456 100.343 72.7713 101.114 70.4342 101.686C65.7485 102.823 60.897 103.132 56.1028 102.612C54.9085 102.474 53.7199 102.292 52.537 102.063C51.3599 101.823 50.1885 101.543 49.0285 101.212C47.8685 100.88 46.7313 100.48 45.6113 100.052C44.4913 99.6229 43.3885 99.1258 42.3142 98.5944C41.2342 98.0629 40.1828 97.4801 39.1599 96.8572C38.137 96.2344 37.1428 95.5544 36.1713 94.8458C34.2513 93.4172 32.4628 91.8229 30.8228 90.0801C34.3085 93.3201 38.2799 95.9887 42.5942 97.9944C43.6742 98.4858 44.7656 98.9372 45.8685 99.3544C46.977 99.7601 48.1028 100.12 49.2399 100.44C50.377 100.76 51.5256 101.023 52.6856 101.252C53.8456 101.48 55.017 101.64 56.1885 101.772C57.3599 101.903 58.5428 101.983 59.7199 102.017C60.897 102.052 62.0799 102.023 63.2628 101.972C64.4456 101.92 65.6228 101.806 66.7942 101.652C67.9656 101.497 69.1313 101.292 70.2856 101.046C74.937 100.034 79.3999 98.2972 83.5085 95.8972Z" fill="#935848" stroke="#935848" stroke-miterlimit="10"/>
    </g>
    <defs>
        <radialGradient id="paint0_radial_284_10471" cx="0" cy="0" r="1" gradientUnits="userSpaceOnUse" gradientTransform="translate(102.923 16.7992) rotate(45) scale(121.142)">
            <stop stop-color="#A16552"/>
            <stop offset="1" stop-color="#794C3E"/>
        </radialGradient>
        <radialGradient id="paint1_radial_284_10471" cx="0" cy="0" r="1" gradientUnits="userSpaceOnUse" gradientTransform="translate(101.175 19.0913) rotate(45) scale(115.892 115.892)">
            <stop stop-color="#794C3E"/>
            <stop offset="1" stop-color="#A16552"/>
        </radialGradient>
        <radialGradient id="paint2_radial_284_10471" cx="0" cy="0" r="1" gradientUnits="userSpaceOnUse" gradientTransform="translate(12.0278 96.8266) scale(119.977)">
            <stop stop-color="#FFE988"/>
            <stop offset="0.25" stop-color="#BA801E"/>
            <stop offset="0.5" stop-color="#FBEC83"/>
            <stop offset="0.75" stop-color="#BA801F"/>
            <stop offset="1" stop-color="#FFE97F"/>
        </radialGradient>
        <radialGradient id="paint3_radial_284_10471" cx="0" cy="0" r="1" gradientUnits="userSpaceOnUse" gradientTransform="translate(18.7758 94.3354) scale(101.823)">
            <stop stop-color="#FFE988"/>
            <stop offset="0.25" stop-color="#BA801E"/>
            <stop offset="0.5" stop-color="#FBEC83"/>
            <stop offset="0.75" stop-color="#BA801F"/>
            <stop offset="1" stop-color="#FFE97F"/>
        </radialGradient>
        <radialGradient id="paint4_radial_284_10471" cx="0" cy="0" r="1" gradientUnits="userSpaceOnUse" gradientTransform="translate(19.7544 13.4891) scale(131.415)">
            <stop stop-color="#FFE988"/>
            <stop offset="0.25" stop-color="#BA801E"/>
            <stop offset="0.5" stop-color="#FBEC83"/>
            <stop offset="0.75" stop-color="#BA801F"/>
            <stop offset="1" stop-color="#FFE97F"/>
        </radialGradient>
        <linearGradient id="paint5_linear_284_10471" x1="50.9482" y1="78.4915" x2="69.0511" y2="78.4915" gradientUnits="userSpaceOnUse">
            <stop stop-color="#A16552"/>
            <stop offset="1" stop-color="#935848"/>
        </linearGradient>
        <linearGradient id="paint6_linear_284_10471" x1="32.6502" y1="65.8389" x2="88.5428" y2="54.4268" gradientUnits="userSpaceOnUse">
            <stop stop-color="#A16552"/>
            <stop offset="0.2" stop-color="#935848"/>
            <stop offset="0.5" stop-color="#935848"/>
            <stop offset="0.6" stop-color="#9B604E"/>
            <stop offset="0.73" stop-color="#A16552"/>
            <stop offset="1" stop-color="#966444"/>
        </linearGradient>
        <linearGradient id="paint7_linear_284_10471" x1="55.9483" y1="68.3028" x2="59.2569" y2="68.3028" gradientUnits="userSpaceOnUse">
            <stop stop-color="#A16552"/>
            <stop offset="1" stop-color="#935848"/>
        </linearGradient>
        <linearGradient id="paint8_linear_284_10471" x1="60.7367" y1="68.3143" x2="64.051" y2="68.3143" gradientUnits="userSpaceOnUse">
            <stop stop-color="#A16552"/>
            <stop offset="1" stop-color="#935848"/>
        </linearGradient>
        <linearGradient id="paint9_linear_284_10471" x1="36.5141" y1="54.68" x2="82.0741" y2="64.0628" gradientUnits="userSpaceOnUse">
            <stop stop-color="#A16552"/>
            <stop offset="0.2" stop-color="#935848"/>
            <stop offset="0.5" stop-color="#935848"/>
            <stop offset="0.6" stop-color="#9B604E"/>
            <stop offset="0.73" stop-color="#A16552"/>
            <stop offset="1" stop-color="#966444"/>
        </linearGradient>
        <linearGradient id="paint10_linear_284_10471" x1="37.3776" y1="60.3696" x2="82.6404" y2="60.4407" gradientUnits="userSpaceOnUse">
            <stop stop-color="#A16552"/>
            <stop offset="0.2" stop-color="#935848"/>
            <stop offset="0.5" stop-color="#935848"/>
            <stop offset="0.6" stop-color="#9B604E"/>
            <stop offset="0.73" stop-color="#A16552"/>
            <stop offset="1" stop-color="#966444"/>
        </linearGradient>
        <clipPath id="clip0_284_10471">
            <rect width="120" height="120" fill="white"/>
        </clipPath>
    </defs>
</svg>
