<svg width="120" height="120" viewBox="0 0 120 120" fill="none" xmlns="http://www.w3.org/2000/svg">
    <g clip-path="url(#clip0_284_10469)">
        <path d="M102.428 102.426C125.859 78.9949 125.859 41.0051 102.428 17.5736C78.9962 -5.85787 41.0063 -5.85787 17.5748 17.5736C-5.85661 41.005 -5.85661 78.995 17.5748 102.426C41.0063 125.858 78.9962 125.858 102.428 102.426Z" fill="url(#paint0_radial_284_10469)"/>
        <path d="M101.264 101.263C124.055 78.4717 124.057 41.522 101.268 18.7332C78.4791 -4.05553 41.5294 -4.05372 18.7384 18.7373C-4.05257 41.5283 -4.05438 78.478 18.7344 101.267C41.5231 124.055 78.4728 124.054 101.264 101.263Z" fill="url(#paint1_radial_284_10469)"/>
        <path d="M59.9997 115.069C90.4133 115.069 115.068 90.4135 115.068 60C115.068 29.5864 90.4133 4.9314 59.9997 4.9314C29.5862 4.9314 4.93115 29.5864 4.93115 60C4.93115 90.4135 29.5862 115.069 59.9997 115.069Z" fill="url(#paint2_radial_284_10469)"/>
        <path d="M59.9999 112.56C89.028 112.56 112.56 89.0282 112.56 60.0001C112.56 30.972 89.028 7.44006 59.9999 7.44006C30.9719 7.44006 7.43994 30.972 7.43994 60.0001C7.43994 89.0282 30.9719 112.56 59.9999 112.56Z" fill="url(#paint3_radial_284_10469)"/>
        <path d="M59.9999 110.486C87.8824 110.486 110.486 87.8825 110.486 60C110.486 32.1175 87.8824 9.51428 59.9999 9.51428C32.1174 9.51428 9.51416 32.1175 9.51416 60C9.51416 87.8825 32.1174 110.486 59.9999 110.486Z" fill="url(#paint4_radial_284_10469)"/>
        <g style="mix-blend-mode:lighten" opacity="0.75">
            <path d="M59.9999 112.56C89.028 112.56 112.56 89.0282 112.56 60.0001C112.56 30.972 89.028 7.44006 59.9999 7.44006C30.9719 7.44006 7.43994 30.972 7.43994 60.0001C7.43994 89.0282 30.9719 112.56 59.9999 112.56Z" fill="white"/>
        </g>
        <path d="M38.1996 67.6172C36.5882 74.0972 37.2396 76.8115 30.3996 76.8115C23.5596 76.8115 24.211 74.0972 22.5996 67.6172C22.5996 67.6172 30.411 71.1372 38.2053 67.6172" fill="#794C3E"/>
        <path d="M30.4284 47.08C30.2398 47.08 30.0512 47 29.9255 46.8457C29.5884 46.4457 27.3541 43.1257 28.4055 41.8457C28.8569 41.2914 29.6398 41.3143 30.7255 41.9085C31.0455 42.0857 31.1598 42.4857 30.9884 42.8057C30.8169 43.1257 30.4112 43.24 30.0912 43.0685C29.7712 42.8914 29.5655 42.8171 29.4398 42.7885C29.4627 43.4343 30.2684 45.2057 30.9369 45.9943C31.1712 46.2743 31.1369 46.6914 30.8569 46.9257C30.7312 47.0285 30.5827 47.08 30.4284 47.08Z" fill="#794C3E"/>
        <path d="M30.4054 49.5942C30.1197 49.5942 29.8569 49.4114 29.7711 49.1257C29.6683 48.7771 29.8626 48.4057 30.2111 48.3028C30.3197 48.2685 30.4969 48.2 30.5311 48.0971C30.5769 47.9314 30.4511 47.4628 29.914 46.8628C29.6683 46.5885 29.6911 46.1714 29.9654 45.9314C30.2397 45.6857 30.6569 45.7085 30.8969 45.9828C31.354 46.4914 32.074 47.4914 31.8054 48.4571C31.7026 48.8285 31.4054 49.3257 30.5997 49.5714C30.5369 49.5885 30.474 49.6 30.4111 49.6L30.4054 49.5942Z" fill="#794C3E"/>
        <path d="M89.6053 53.9258C89.5196 53.9258 89.4339 53.9086 89.3539 53.8743C88.5767 53.5543 88.0339 52.9658 87.7882 52.1715C87.3824 50.8572 87.8396 49.0458 89.0453 47.2058C89.2453 46.9029 89.6567 46.8172 89.9596 47.0172C90.2624 47.2172 90.3481 47.6286 90.1481 47.9315C89.1767 49.4172 88.7653 50.8572 89.051 51.7829C89.1824 52.2001 89.4453 52.4801 89.8567 52.6515C90.1939 52.7886 90.3539 53.1772 90.2167 53.5143C90.1139 53.7715 89.8624 53.9258 89.6053 53.9258Z" fill="#794C3E"/>
        <path d="M89.5999 48.2743C89.4913 48.2743 89.3771 48.2457 89.2742 48.1886C88.9542 48.0114 88.8456 47.6057 89.0228 47.2857C89.6571 46.16 90.1485 44.8686 90.1371 44.3886C90.0685 44.4 89.9656 44.4229 89.8228 44.48C89.4799 44.6114 89.0971 44.4343 88.9713 44.0914C88.8456 43.7486 89.0171 43.3714 89.3599 43.24C90.3656 42.8629 90.8913 43.1486 91.1542 43.4514C91.9713 44.4057 90.8913 46.6686 90.1828 47.9371C90.0628 48.1543 89.8399 48.2743 89.6056 48.2743H89.5999Z" fill="#794C3E"/>
        <path d="M87.2169 44.4057L84.5483 42.6171L88.1198 37.3771C88.4855 36.8343 89.2169 36.7028 89.7598 37.0686L90.4398 37.5371C90.9826 37.9028 91.114 38.6343 90.7483 39.1771L87.2169 44.4057Z" fill="url(#paint5_linear_284_10469)"/>
        <path d="M87.2171 44.4057L85.9028 43.5086L90.1371 37.2743L90.4971 37.5029C91.04 37.8686 91.1714 38.6 90.8057 39.1429L87.2171 44.4057Z" fill="url(#paint6_linear_284_10469)"/>
        <path d="M88.0397 48.2228C86.4855 50.8171 84.5312 53.2285 82.1997 55.3885C69.0455 67.5085 48.554 66.6799 36.434 53.5257C34.2683 51.1942 32.5369 48.6114 31.1883 45.8914C31.0969 45.6799 30.3312 43.7428 30.4055 41.8228C30.4397 40.8628 30.6626 39.8914 31.2797 39.1485L31.2969 39.1257C31.3655 39.0342 31.4569 38.9599 31.5255 38.9085C31.6169 38.8342 31.6912 38.7828 31.7826 38.7485C32.5426 38.3885 33.6112 38.6114 34.8112 39.1428C37.4226 40.2914 40.5769 42.8571 41.9997 43.7999L42.0226 43.8171C42.3655 44.0685 42.7026 44.2799 43.0626 44.5142L43.1083 44.5485C43.4912 44.7942 43.874 45.0399 44.274 45.2628C44.3883 45.3485 44.5197 45.4057 44.6112 45.4742C44.7197 45.5199 44.8112 45.5885 44.9426 45.6457C45.034 45.7142 45.1426 45.7599 45.2512 45.7999C45.4055 45.8799 45.5197 45.9599 45.674 46.0399C45.9597 46.1771 46.2283 46.3428 46.4912 46.4628C46.6455 46.5428 46.7997 46.6171 46.994 46.6914C47.434 46.9085 47.8912 47.1028 48.3255 47.2799C48.4569 47.3428 48.5883 47.3999 48.7597 47.4571C48.8912 47.5199 49.0397 47.5542 49.194 47.6342C49.6055 47.7942 50.0569 47.9485 50.4797 48.0914C50.5026 48.1085 50.5426 48.1028 50.5655 48.1199L50.674 48.1657C51.2969 48.3771 51.9312 48.5657 52.5883 48.7257C53.1826 48.8799 53.8112 49.0285 54.4226 49.1599C54.5083 49.1885 54.5712 49.1999 54.674 49.2057L54.7597 49.2342C55.1597 49.3142 55.5712 49.3771 55.9883 49.4342C56.0283 49.4285 56.074 49.4628 56.114 49.4571C56.1769 49.4685 56.2169 49.4571 56.2797 49.4742C57.4626 49.6399 58.6169 49.7485 59.8226 49.7885C60.0512 49.8171 60.274 49.7999 60.514 49.8057C60.7197 49.8171 60.9426 49.8057 61.1826 49.8057C61.2226 49.7999 61.2626 49.7942 61.2855 49.8057C61.4055 49.7885 61.5312 49.8057 61.6512 49.7885C62.0169 49.7714 62.3769 49.7599 62.7426 49.7428C62.9255 49.7371 63.1083 49.7257 63.2855 49.7199C63.5483 49.7028 63.8455 49.6742 64.1255 49.6342C64.2455 49.6171 64.3483 49.6228 64.4455 49.5885C64.8283 49.5485 65.2055 49.5142 65.5826 49.4342C67.2512 49.1828 68.9255 48.8228 70.5483 48.2914C70.5883 48.2857 70.6055 48.2628 70.6455 48.2571C71.2683 48.0799 71.8855 47.8628 72.4969 47.6114C72.7883 47.5085 73.074 47.3999 73.3426 47.2799C73.554 47.1885 73.7997 47.0857 74.0112 46.9942C74.0512 46.9885 74.1083 46.9599 74.1255 46.9371C74.5997 46.7199 75.0912 46.4857 75.5597 46.2285C78.1426 44.9199 80.5883 43.2285 82.7997 41.1828C83.0283 40.9657 83.2626 40.7485 83.4912 40.5314C83.4912 40.5314 83.5655 40.4799 83.6969 40.3999C83.754 40.3714 83.7712 40.3485 83.8283 40.3199C83.8455 40.2971 83.8855 40.2914 83.9026 40.2685C83.9197 40.2457 83.9597 40.2399 83.9769 40.2171C84.5026 39.9314 85.354 39.6399 86.3712 39.7942C87.0969 39.9085 87.9026 40.2514 88.6969 41.0457C89.4397 41.8057 89.6569 42.8114 89.594 43.8571C89.474 45.4628 88.6169 47.1942 88.0397 48.2171V48.2228Z" fill="url(#paint7_linear_284_10469)"/>
        <path d="M88.7141 41.0285L88.6798 41.0742C87.2512 43.5885 85.4798 45.9485 83.3198 48.0685C83.0398 48.3542 82.7312 48.6228 82.4512 48.9142C69.2969 61.0342 48.8055 60.2056 36.6855 47.0514C34.8855 45.0914 33.3884 42.9999 32.1369 40.7714C31.9655 40.4342 31.7712 40.1142 31.5998 39.7771C31.5084 39.5656 31.3941 39.3428 31.2798 39.1542C31.3484 39.0628 31.4398 38.9885 31.5084 38.9371C31.5998 38.8628 31.6741 38.8114 31.7655 38.7771C32.5255 38.4171 33.5941 38.6399 34.7941 39.1714C37.4055 40.3199 40.5598 42.8856 41.9826 43.8285L42.0055 43.8456C42.3484 44.0971 42.6855 44.3085 43.0455 44.5428L43.0912 44.5771C43.4741 44.8228 43.8569 45.0685 44.2569 45.2914L44.3484 45.3599C44.4169 45.4114 44.5255 45.4571 44.5941 45.5028C44.7026 45.5485 44.7941 45.6171 44.9255 45.6742C45.0569 45.7371 45.1255 45.7885 45.2341 45.8285C45.3884 45.9085 45.5026 45.9885 45.6569 46.0685C45.9426 46.2056 46.2284 46.3485 46.4741 46.4914C46.6284 46.5714 46.7826 46.6456 46.9769 46.7199C47.2626 46.8571 47.5255 46.9828 47.8055 47.0799C47.9598 47.1599 48.1312 47.2114 48.3084 47.3085C48.4398 47.3714 48.5884 47.4056 48.7426 47.4856C48.8741 47.5485 49.0226 47.5828 49.1769 47.6628C49.5884 47.8228 50.0398 47.9771 50.4626 48.1199C50.4855 48.1371 50.5255 48.1314 50.5484 48.1485L50.6569 48.1942C50.7655 48.2399 50.8912 48.2628 50.9998 48.3028C51.5141 48.4685 52.0398 48.6114 52.5712 48.7542C53.1026 48.8971 53.6226 48.9999 54.1712 49.1199C54.2569 49.1485 54.3198 49.1599 54.4226 49.1656C54.5084 49.1942 54.5712 49.2056 54.6741 49.2114L54.7598 49.2399C55.0112 49.2856 55.2626 49.3256 55.5084 49.3714C55.6741 49.3885 55.8226 49.4228 55.9712 49.4628C56.0112 49.4571 56.0569 49.4914 56.0969 49.4856C56.1598 49.4971 56.1998 49.4856 56.2626 49.5028C56.4912 49.5314 56.7198 49.5542 56.9426 49.5828C57.1084 49.5999 57.2741 49.6114 57.4398 49.6285C57.5026 49.6399 57.6055 49.6456 57.6684 49.6571C57.8969 49.6856 58.1426 49.6856 58.3655 49.7142C58.5941 49.7428 58.7998 49.7485 59.0169 49.7371C59.2855 49.7599 59.5312 49.7599 59.7941 49.7828C60.0398 49.7828 60.2455 49.7942 60.4855 49.7999C60.7084 49.7885 60.9141 49.7999 61.1541 49.7999C61.1941 49.7942 61.2341 49.7885 61.2569 49.7999C61.3769 49.7828 61.5026 49.7999 61.6226 49.7828C61.9884 49.7656 62.3484 49.7542 62.7141 49.7371C62.8969 49.7314 63.0798 49.7199 63.2569 49.7142C63.5198 49.6971 63.8169 49.6685 64.0969 49.6285C64.2169 49.6114 64.3198 49.6171 64.4169 49.5828C64.5369 49.5656 64.6398 49.5714 64.7369 49.5371C65.0169 49.4971 65.2741 49.4742 65.5541 49.4342C65.7941 49.3999 65.9884 49.3656 66.2284 49.3314C66.5084 49.2914 66.7426 49.2514 66.9998 49.1942C67.1198 49.1771 67.2569 49.1371 67.4112 49.1085C67.5084 49.0742 67.6284 49.0571 67.7084 49.0456C67.9484 49.0114 68.1769 48.9314 68.4169 48.8971C68.6741 48.8399 68.8855 48.7828 69.1426 48.7256C69.3198 48.6799 69.5312 48.6228 69.7084 48.5771C69.9826 48.4971 70.2512 48.4114 70.5255 48.3314C70.5655 48.3256 70.5826 48.3028 70.6226 48.2971C70.8969 48.2171 71.1255 48.1371 71.3769 48.0399C71.5312 47.9771 71.7084 47.9314 71.8569 47.8628C72.0512 47.7942 72.2569 47.7028 72.4741 47.6456C72.6684 47.5771 72.8169 47.5142 73.0112 47.4399C73.1084 47.4056 73.2226 47.3485 73.3198 47.3142C73.5312 47.2228 73.7769 47.1199 73.9884 47.0285C74.0284 47.0228 74.0855 46.9942 74.1026 46.9714C74.2741 46.8856 74.4626 46.8171 74.6512 46.7028C74.8055 46.6399 74.9312 46.5599 75.0855 46.4971C75.2398 46.4342 75.3655 46.3542 75.5369 46.2685C75.7484 46.1771 75.9484 46.0456 76.1769 45.9256C76.2912 45.8685 76.4055 45.8114 76.5141 45.7542C76.7941 45.6114 77.0569 45.4456 77.3141 45.2856C77.5026 45.1771 77.6684 45.0914 77.8341 44.9599C78.0912 44.7999 78.3541 44.6342 78.6112 44.4742C78.7769 44.3485 78.9598 44.2399 79.1255 44.1142C79.3826 43.9542 79.6398 43.7542 79.8912 43.5485C80.0569 43.4228 80.1998 43.3199 80.3655 43.1942C80.6569 42.9885 80.9312 42.7656 81.1826 42.5599C81.2912 42.4628 81.3826 42.3885 81.5084 42.3085C81.5426 42.2628 81.5998 42.2342 81.6169 42.2114C81.9941 41.8914 82.3884 41.5428 82.7655 41.2228C82.9941 41.0056 83.2284 40.7885 83.4569 40.5714C83.4569 40.5714 83.5312 40.5199 83.6626 40.4399C83.7198 40.4114 83.7369 40.3885 83.7941 40.3599C83.8112 40.3371 83.8512 40.3314 83.8684 40.3085C83.8855 40.2856 83.9255 40.2799 83.9426 40.2571C84.4684 39.9714 85.3198 39.6799 86.3369 39.8342C87.0969 39.9028 87.9026 40.2456 88.6969 41.0399L88.7141 41.0285Z" fill="url(#paint8_linear_284_10469)"/>
        <path d="M34.8739 39.1142C32.9254 39.2685 31.4054 40.0914 30.4282 41.7999C30.4625 40.8399 30.6854 39.8685 31.3025 39.1257L31.3197 39.1028C31.3882 39.0114 31.4797 38.9371 31.5482 38.8857C31.6397 38.8114 31.7139 38.7599 31.8054 38.7256C32.6054 38.3599 33.6968 38.5999 34.8739 39.1142Z" fill="url(#paint9_linear_284_10469)"/>
        <path d="M59.0569 54.9714H60.9426C61.8283 54.9714 62.5483 55.6914 62.5483 56.5772V78.9257H57.4512V56.5772C57.4512 55.6914 58.1712 54.9714 59.0569 54.9714Z" fill="#A16552"/>
        <path d="M62.5481 71.4286H57.451L45.6853 84.0286C45.3881 84.3429 45.6167 84.8629 46.0453 84.8629H73.9539C74.3881 84.8629 74.611 84.3429 74.3139 84.0286L62.5481 71.4286Z" fill="#794C3E"/>
        <path d="M60 58.6172C60.6375 58.6172 61.1543 58.1004 61.1543 57.4629C61.1543 56.8254 60.6375 56.3086 60 56.3086C59.3625 56.3086 58.8457 56.8254 58.8457 57.4629C58.8457 58.1004 59.3625 58.6172 60 58.6172Z" fill="#794C3E"/>
        <path d="M30.4055 61.0058C30.0398 61.0058 29.7427 60.7086 29.7427 60.3429V42.4858C29.7427 42.1429 30.0055 41.8515 30.3541 41.8286C33.7255 41.5658 34.8055 39.2972 34.8512 39.2C35.0055 38.8686 35.3941 38.72 35.7255 38.8743C36.057 39.0229 36.2055 39.4115 36.057 39.7429C36.0055 39.8629 34.777 42.5315 31.0684 43.08V60.3486C31.0684 60.7143 30.7712 61.0115 30.4055 61.0115V61.0058Z" fill="#A16552"/>
        <path d="M89.594 61.0057C89.2283 61.0057 88.9311 60.7085 88.9311 60.3428V44.3885C84.0854 43.2 82.9368 40.9542 82.8911 40.8571C82.7311 40.5314 82.8683 40.1314 83.194 39.9714C83.5197 39.8114 83.9083 39.9428 84.074 40.2628C84.1026 40.3142 85.1997 42.2228 89.7368 43.2171C90.0397 43.2857 90.2568 43.5542 90.2568 43.8628V60.3428C90.2568 60.7085 89.9597 61.0057 89.594 61.0057Z" fill="#A16552"/>
        <path d="M86.6054 45.1257C83.114 45.1257 81.0569 42.76 81.0283 42.7315C80.794 42.4515 80.8283 42.0343 81.1026 41.8C81.3826 41.5657 81.7997 41.6 82.034 41.8743C82.1426 42 84.8283 45.0343 89.3483 43.2457C89.6854 43.1143 90.074 43.28 90.2054 43.6172C90.3369 43.9543 90.1712 44.3429 89.834 44.4743C88.6569 44.9429 87.5712 45.12 86.5997 45.12L86.6054 45.1257Z" fill="#794C3E"/>
        <path d="M61.6511 76.96C61.9005 76.96 62.1026 76.7579 62.1026 76.5086C62.1026 76.2592 61.9005 76.0571 61.6511 76.0571C61.4018 76.0571 61.1997 76.2592 61.1997 76.5086C61.1997 76.7579 61.4018 76.96 61.6511 76.96Z" fill="#A16552"/>
        <path d="M61.6511 75.4286C61.9005 75.4286 62.1026 75.2265 62.1026 74.9772C62.1026 74.7279 61.9005 74.5258 61.6511 74.5258C61.4018 74.5258 61.1997 74.7279 61.1997 74.9772C61.1997 75.2265 61.4018 75.4286 61.6511 75.4286Z" fill="#A16552"/>
        <path d="M61.6511 73.8971C61.9005 73.8971 62.1026 73.695 62.1026 73.4457C62.1026 73.1964 61.9005 72.9943 61.6511 72.9943C61.4018 72.9943 61.1997 73.1964 61.1997 73.4457C61.1997 73.695 61.4018 73.8971 61.6511 73.8971Z" fill="#A16552"/>
        <path d="M58.3484 76.96C58.5977 76.96 58.7998 76.7579 58.7998 76.5086C58.7998 76.2592 58.5977 76.0571 58.3484 76.0571C58.0991 76.0571 57.897 76.2592 57.897 76.5086C57.897 76.7579 58.0991 76.96 58.3484 76.96Z" fill="#A16552"/>
        <path d="M58.3484 75.4286C58.5977 75.4286 58.7998 75.2265 58.7998 74.9772C58.7998 74.7279 58.5977 74.5258 58.3484 74.5258C58.0991 74.5258 57.897 74.7279 57.897 74.9772C57.897 75.2265 58.0991 75.4286 58.3484 75.4286Z" fill="#A16552"/>
        <path d="M58.3484 73.8971C58.5977 73.8971 58.7998 73.695 58.7998 73.4457C58.7998 73.1964 58.5977 72.9943 58.3484 72.9943C58.0991 72.9943 57.897 73.1964 57.897 73.4457C57.897 73.695 58.0991 73.8971 58.3484 73.8971Z" fill="#A16552"/>
        <path d="M33.6399 43.9257C32.4628 43.9257 31.2399 43.6685 30.1028 43.0743C29.7771 42.9028 29.6514 42.5085 29.8228 42.1828C29.9885 41.8571 30.3885 41.7314 30.7142 41.9028C33.3656 43.2857 36.6342 42.4685 37.9085 40.8685C38.1371 40.5828 38.5542 40.5371 38.8399 40.7657C39.1256 40.9943 39.1714 41.4114 38.9428 41.6971C37.8799 43.0228 35.8399 43.9314 33.6399 43.9314V43.9257Z" fill="#794C3E"/>
        <path d="M89.6055 44.5657C89.6055 44.5657 90.2569 44.2457 90.2569 44.6172C90.2569 44.9886 90.9598 44.04 90.9598 44.04L89.9369 43.5486" fill="#794C3E"/>
        <path d="M90.1657 54.0914C90.1028 54.0914 90.04 54.0799 89.9771 54.0628C89.9314 54.0514 89.68 53.9714 89.0114 53.6799C88.4971 53.4571 87.6343 52.8285 87.6343 51.1028C87.6343 50.7371 87.9314 50.4399 88.2971 50.4399C88.6629 50.4399 88.96 50.7371 88.96 51.1028C88.96 51.6114 89.0571 52.2628 89.5371 52.4685C90.1428 52.7257 90.36 52.7999 90.3657 52.7999C90.7143 52.9085 90.9086 53.2742 90.8057 53.6228C90.72 53.9085 90.4571 54.0914 90.1771 54.0914H90.1657Z" fill="#794C3E"/>
        <path d="M30.3941 69.9428C30.0284 69.9428 29.7312 69.6457 29.7312 69.28C29.7312 68.9143 30.0284 68.6171 30.3941 68.6171C33.4512 68.6171 35.6284 67.9028 36.7141 67.44L29.9312 60.8171C29.6684 60.56 29.6627 60.1428 29.9198 59.88C30.177 59.6171 30.5941 59.6114 30.8569 59.8685L38.3084 67.1485C38.4512 67.2914 38.5255 67.4914 38.5027 67.6914C38.4798 67.8914 38.3655 68.0743 38.1941 68.1828C38.0798 68.2571 35.2912 69.9428 30.3998 69.9428H30.3941Z" fill="#A16552"/>
        <path d="M30.394 69.9428C25.4969 69.9428 22.714 68.2571 22.5998 68.1828C22.4283 68.0743 22.314 67.8971 22.2912 67.6914C22.2683 67.4914 22.3426 67.2857 22.4855 67.1485L29.9369 59.8685C30.1998 59.6114 30.6169 59.6171 30.874 59.88C31.1312 60.1428 31.1255 60.56 30.8626 60.8171L24.0798 67.44C25.1655 67.9028 27.3369 68.6171 30.3998 68.6171C30.7655 68.6171 31.0626 68.9143 31.0626 69.28C31.0626 69.6457 30.7655 69.9428 30.3998 69.9428H30.394Z" fill="#A16552"/>
        <path d="M81.7997 67.6172C83.4111 74.0972 82.7597 76.8115 89.5997 76.8115C96.4397 76.8115 95.7882 74.0972 97.3997 67.6172C97.3997 67.6172 89.5882 71.1372 81.7939 67.6172" fill="#794C3E"/>
        <path d="M89.6055 69.9428C84.7083 69.9428 81.9255 68.2571 81.8112 68.1828C81.6398 68.0743 81.5255 67.8971 81.5026 67.6914C81.4798 67.4914 81.554 67.2857 81.6969 67.1485L89.1483 59.8685C89.4112 59.6114 89.8283 59.6171 90.0855 59.88C90.3426 60.1428 90.3369 60.56 90.074 60.8171L83.2912 67.44C84.3769 67.9028 86.5483 68.6171 89.6112 68.6171C89.9769 68.6171 90.274 68.9143 90.274 69.28C90.274 69.6457 89.9769 69.9428 89.6112 69.9428H89.6055Z" fill="#A16552"/>
        <path d="M89.6055 69.9428C89.2398 69.9428 88.9427 69.6457 88.9427 69.28C88.9427 68.9143 89.2398 68.6171 89.6055 68.6171C92.6627 68.6171 94.8398 67.9028 95.9255 67.44L89.1427 60.8171C88.8798 60.56 88.8741 60.1428 89.1312 59.88C89.3884 59.6171 89.8055 59.6114 90.0684 59.8685L97.5198 67.1485C97.6627 67.2914 97.7369 67.4914 97.7141 67.6914C97.6912 67.8914 97.577 68.0743 97.4055 68.1828C97.2912 68.2571 94.5027 69.9428 89.6112 69.9428H89.6055Z" fill="#A16552"/>
        <path d="M29.6514 42.8514L30.2399 43.1428L30.7314 41.9143C30.7314 41.9143 30.3942 41.7143 30.2171 41.6628C30.0399 41.6114 29.5657 42.3885 29.6514 42.8514Z" fill="#794C3E"/>
    </g>
    <defs>
        <radialGradient id="paint0_radial_284_10469" cx="0" cy="0" r="1" gradientUnits="userSpaceOnUse" gradientTransform="translate(102.903 16.8552) rotate(45) scale(121.142)">
            <stop stop-color="#A16552"/>
            <stop offset="1" stop-color="#794C3E"/>
        </radialGradient>
        <radialGradient id="paint1_radial_284_10469" cx="0" cy="0" r="1" gradientUnits="userSpaceOnUse" gradientTransform="translate(101.151 19.1433) rotate(45) scale(115.892 115.892)">
            <stop stop-color="#794C3E"/>
            <stop offset="1" stop-color="#A16552"/>
        </radialGradient>
        <radialGradient id="paint2_radial_284_10469" cx="0" cy="0" r="1" gradientUnits="userSpaceOnUse" gradientTransform="translate(12.0185 96.8266) scale(119.977)">
            <stop stop-color="#FFE988"/>
            <stop offset="0.25" stop-color="#BA801E"/>
            <stop offset="0.5" stop-color="#FBEC83"/>
            <stop offset="0.75" stop-color="#BA801F"/>
            <stop offset="1" stop-color="#FFE97F"/>
        </radialGradient>
        <radialGradient id="paint3_radial_284_10469" cx="0" cy="0" r="1" gradientUnits="userSpaceOnUse" gradientTransform="translate(18.7759 94.3354) scale(101.823)">
            <stop stop-color="#FFE988"/>
            <stop offset="0.25" stop-color="#BA801E"/>
            <stop offset="0.5" stop-color="#FBEC83"/>
            <stop offset="0.75" stop-color="#BA801F"/>
            <stop offset="1" stop-color="#FFE97F"/>
        </radialGradient>
        <radialGradient id="paint4_radial_284_10469" cx="0" cy="0" r="1" gradientUnits="userSpaceOnUse" gradientTransform="translate(19.7546 13.4891) scale(131.415)">
            <stop stop-color="#FFE988"/>
            <stop offset="0.25" stop-color="#BA801E"/>
            <stop offset="0.5" stop-color="#FBEC83"/>
            <stop offset="0.75" stop-color="#BA801F"/>
            <stop offset="1" stop-color="#FFE97F"/>
        </radialGradient>
        <linearGradient id="paint5_linear_284_10469" x1="87.0474" y1="31.7856" x2="87.8867" y2="42.2311" gradientUnits="userSpaceOnUse">
            <stop stop-color="#FFE988"/>
            <stop offset="0.25" stop-color="#BA801E"/>
            <stop offset="0.5" stop-color="#FBEC83"/>
            <stop offset="0.75" stop-color="#BA801F"/>
            <stop offset="1" stop-color="#FFE97F"/>
        </linearGradient>
        <linearGradient id="paint6_linear_284_10469" x1="87.7135" y1="31.7294" x2="88.5527" y2="42.1749" gradientUnits="userSpaceOnUse">
            <stop stop-color="#FFE988"/>
            <stop offset="0.25" stop-color="#BA801E"/>
            <stop offset="0.5" stop-color="#FBEC83"/>
            <stop offset="0.75" stop-color="#BA801F"/>
            <stop offset="1" stop-color="#FFE97F"/>
        </linearGradient>
        <linearGradient id="paint7_linear_284_10469" x1="39.0641" y1="27.1998" x2="105.818" y2="84.6594" gradientUnits="userSpaceOnUse">
            <stop stop-color="#FFE988"/>
            <stop offset="0.25" stop-color="#BA801E"/>
            <stop offset="0.5" stop-color="#FBEC83"/>
            <stop offset="0.75" stop-color="#BA801F"/>
            <stop offset="1" stop-color="#FFE97F"/>
        </linearGradient>
        <linearGradient id="paint8_linear_284_10469" x1="34.8953" y1="28.7855" x2="86.762" y2="58.66" gradientUnits="userSpaceOnUse">
            <stop stop-color="#FFE988"/>
            <stop offset="0.25" stop-color="#BA801E"/>
            <stop offset="0.5" stop-color="#FBEC83"/>
            <stop offset="0.75" stop-color="#BA801F"/>
            <stop offset="1" stop-color="#FFE97F"/>
        </linearGradient>
        <linearGradient id="paint9_linear_284_10469" x1="31.9328" y1="35.0841" x2="32.6945" y2="40.7964" gradientUnits="userSpaceOnUse">
            <stop stop-color="#FFE988"/>
            <stop offset="0.25" stop-color="#BA801E"/>
            <stop offset="0.5" stop-color="#FBEC83"/>
            <stop offset="0.75" stop-color="#BA801F"/>
            <stop offset="1" stop-color="#FFE97F"/>
        </linearGradient>
        <clipPath id="clip0_284_10469">
            <rect width="120" height="120" fill="white"/>
        </clipPath>
    </defs>
</svg>
