<svg xmlns="http://www.w3.org/2000/svg" width="120" height="120" viewBox="0 0 120 120" fill="none">
    <g clip-path="url(#clip0_284_10472)">
        <path d="M102.42 102.418C125.849 78.9891 125.851 41.0046 102.424 17.5776C78.9972 -5.84938 41.0127 -5.84757 17.5835 17.5817C-5.84573 41.0109 -5.84754 78.9954 17.5795 102.422C41.0064 125.849 78.9909 125.848 102.42 102.418Z" fill="url(#paint0_radial_284_10472)"/>
        <path d="M101.26 101.259C124.047 78.4721 124.047 41.5279 101.26 18.7413C78.4739 -4.04521 41.5296 -4.04521 18.743 18.7413C-4.04349 41.5279 -4.04349 78.4721 18.743 101.259C41.5296 124.045 78.4739 124.045 101.26 101.259Z" fill="url(#paint1_radial_284_10472)"/>
        <path d="M114.326 68.9212C119.256 38.9131 98.9286 10.5905 68.9236 5.66085C38.9187 0.731212 10.5982 21.0613 5.66803 51.0694C0.737884 81.0775 21.065 109.4 51.07 114.33C81.075 119.259 109.395 98.9292 114.326 68.9212Z" fill="url(#paint2_radial_284_10472)"/>
        <path d="M60.0007 112.549C89.0225 112.549 112.549 89.0218 112.549 60C112.549 30.9782 89.0225 7.45142 60.0007 7.45142C30.9789 7.45142 7.45215 30.9782 7.45215 60C7.45215 89.0218 30.9789 112.549 60.0007 112.549Z" fill="url(#paint3_radial_284_10472)"/>
        <path d="M60.0006 110.474C87.8768 110.474 110.475 87.8762 110.475 60C110.475 32.1239 87.8768 9.52576 60.0006 9.52576C32.1245 9.52576 9.52637 32.1239 9.52637 60C9.52637 87.8762 32.1245 110.474 60.0006 110.474Z" fill="url(#paint4_radial_284_10472)"/>
        <g style="mix-blend-mode:lighten" opacity="0.75">
            <path d="M60.0007 112.549C89.0225 112.549 112.549 89.0218 112.549 60C112.549 30.9782 89.0225 7.45142 60.0007 7.45142C30.9789 7.45142 7.45215 30.9782 7.45215 60C7.45215 89.0218 30.9789 112.549 60.0007 112.549Z" fill="white"/>
        </g>
        <path d="M86.0287 39.3314L81.9944 39.8457L81.0459 31.88C80.943 31.0571 81.5316 30.3257 82.3487 30.2229L83.383 30.1029C84.2059 30 84.9373 30.5886 85.0401 31.4057L86.023 39.3314H86.0287Z" fill="url(#paint5_linear_284_10472)"/>
        <path d="M86.0285 39.3314L84.0285 39.5714L82.8799 30.1085L83.417 30.0285C84.2399 29.9257 84.9713 30.5142 85.0742 31.3314L86.0285 39.3314Z" fill="url(#paint6_linear_284_10472)"/>
        <path d="M89.9945 42.2856C90.6688 46.0513 90.8117 49.9713 90.3888 53.977C87.9317 76.4742 67.7088 92.7313 45.2117 90.2742C41.206 89.8513 37.406 88.8285 33.8574 87.3599C33.5945 87.2399 31.2574 86.0227 29.7317 84.1313C28.966 83.1827 28.3717 82.0799 28.3431 80.857V80.8227C28.326 80.6799 28.3545 80.5313 28.3774 80.4227C28.4003 80.2742 28.4288 80.1656 28.4917 80.0513C28.9145 79.0799 30.1203 78.3999 31.7031 77.9085C35.1488 76.8285 40.2917 76.6513 42.4346 76.3656H42.4688C43.006 76.3199 43.5031 76.2399 44.0403 76.1599H44.1145C44.686 76.0685 45.2574 75.9885 45.8231 75.8685C46.0003 75.8513 46.1774 75.8056 46.3203 75.7885C46.4631 75.7427 46.606 75.7313 46.7774 75.6799C46.9203 75.6685 47.0631 75.6227 47.2003 75.5713C47.4117 75.5199 47.5888 75.5027 47.806 75.4513C48.1945 75.3485 48.5831 75.2799 48.9374 75.177C49.1488 75.1256 49.3603 75.0685 49.606 74.977C50.206 74.817 50.806 74.6227 51.366 74.4342C51.5431 74.3827 51.7203 74.3313 51.926 74.2456C52.1031 74.1942 52.2745 74.1085 52.486 74.057C53.0117 73.8685 53.5717 73.6399 54.0917 73.417C54.126 73.417 54.1603 73.377 54.1945 73.3713L54.3374 73.3256C55.1031 73.0113 55.8688 72.657 56.6288 72.2685C57.3203 71.9199 58.046 71.537 58.7374 71.1542C58.8403 71.1085 58.9088 71.0685 59.0117 70.9885L59.1145 70.9427C59.5603 70.6913 60.006 70.3999 60.4517 70.1085C60.486 70.0685 60.5545 70.0627 60.5888 70.0227C60.6574 69.9827 60.6917 69.9427 60.7603 69.9027C62.0288 69.0742 63.2174 68.217 64.4003 67.257C64.6403 67.0913 64.8403 66.897 65.0745 66.697C65.2803 66.537 65.4803 66.337 65.7145 66.137C65.7488 66.097 65.7774 66.057 65.8174 66.057C65.9145 65.9427 66.0517 65.857 66.1545 65.7427C66.4917 65.4285 66.8231 65.1085 67.1603 64.7942C67.326 64.6342 67.4974 64.4799 67.6631 64.3199C67.8974 64.0856 68.1603 63.8113 68.3945 63.537C68.4917 63.4227 68.5945 63.3427 68.6574 63.2285C68.9888 62.8742 69.3203 62.5256 69.6117 62.137C70.9888 60.5085 72.2917 58.777 73.4003 56.9142C73.4345 56.8742 73.4288 56.8399 73.4631 56.7999C73.9088 56.1142 74.3203 55.3942 74.6917 54.6399C74.8803 54.297 75.0688 53.9599 75.2231 53.6227C75.3431 53.3599 75.5031 53.057 75.6231 52.7942C75.6574 52.7542 75.686 52.6799 75.6803 52.6456C75.9545 52.0456 76.2288 51.4113 76.4631 50.777C77.8403 47.377 78.766 43.7313 79.1717 39.9485C79.2117 39.5485 79.2517 39.1485 79.286 38.7485C79.286 38.7485 79.3145 38.6399 79.3717 38.4513C79.4003 38.377 79.4003 38.3427 79.4288 38.2685C79.4288 38.2342 79.4574 38.1942 79.4574 38.1599C79.4574 38.1256 79.486 38.0856 79.486 38.0513C79.7545 37.3427 80.3203 36.3599 81.4174 35.657C82.206 35.1599 83.2574 34.817 84.6745 34.9199C86.0174 35.0227 87.0574 35.8056 87.8631 36.857C89.0803 38.4856 89.7088 40.8513 90.0117 42.3085L89.9945 42.2856Z" fill="url(#paint7_linear_284_10472)"/>
        <path d="M84.6513 34.8628V34.9371C85.3884 38.5199 85.6627 42.2514 85.3656 46.0628C85.337 46.5714 85.2684 47.0799 85.2398 47.5885C82.7827 70.0857 62.5598 86.3428 40.0627 83.8857C36.7141 83.5142 33.5484 82.7657 30.5027 81.6857C30.057 81.5085 29.6113 81.3657 29.1598 81.1828C28.897 81.0628 28.5998 80.9428 28.337 80.8514C28.3256 80.7085 28.3484 80.5599 28.377 80.4514C28.3998 80.3028 28.4284 80.1942 28.4913 80.0799C28.9141 79.1085 30.1198 78.4285 31.7027 77.9371C35.1484 76.8571 40.2913 76.6799 42.4341 76.3942H42.4684C43.0056 76.3485 43.5027 76.2685 44.0398 76.1885H44.1141C44.6856 76.0971 45.257 76.0171 45.8227 75.8971L45.9656 75.8857C46.0741 75.8742 46.2113 75.8285 46.3198 75.8228C46.4627 75.7771 46.6056 75.7657 46.777 75.7142C46.9541 75.6628 47.0627 75.6571 47.1998 75.6057C47.4113 75.5542 47.5884 75.5371 47.8056 75.4857C48.1941 75.3828 48.5827 75.2742 48.937 75.2114C49.1484 75.1599 49.3598 75.1028 49.6056 75.0114C49.9941 74.9085 50.3484 74.8057 50.697 74.6685C50.9084 74.6171 51.1198 74.5257 51.3656 74.4685C51.5427 74.4171 51.7141 74.3314 51.9256 74.2799C52.1027 74.2285 52.2741 74.1428 52.4856 74.0914C53.0113 73.9028 53.5713 73.6742 54.0913 73.4514C54.1256 73.4514 54.1598 73.4114 54.1941 73.4057L54.337 73.3599C54.4798 73.3142 54.617 73.2285 54.7541 73.1828C55.3827 72.9142 56.0056 72.6114 56.6284 72.3028C57.2513 71.9999 57.8399 71.6628 58.457 71.3199C58.5599 71.2742 58.6284 71.2342 58.7313 71.1542C58.8341 71.1085 58.9027 71.0685 59.0056 70.9885L59.1084 70.9428C59.3827 70.7771 59.657 70.6114 59.9313 70.4399C60.1027 70.3199 60.2741 70.2285 60.4456 70.1428C60.4798 70.1028 60.5484 70.0971 60.5827 70.0571C60.6513 70.0171 60.6856 69.9771 60.7541 69.9371C60.9941 69.7714 61.2341 69.6114 61.4684 69.4457C61.6399 69.3257 61.8113 69.1999 61.977 69.0799C62.0456 69.0399 62.1484 68.9599 62.217 68.9142C62.457 68.7485 62.6913 68.5485 62.9313 68.3885C63.1713 68.2228 63.3713 68.0628 63.5713 67.8685C63.8456 67.6628 64.0798 67.4628 64.3484 67.2628C64.5827 67.0628 64.7884 66.9028 65.0227 66.7028C65.2227 66.5085 65.4284 66.3428 65.6627 66.1428C65.697 66.1028 65.7256 66.0628 65.7656 66.0628C65.8627 65.9485 65.9998 65.8628 66.1027 65.7485C66.4398 65.4342 66.7713 65.1142 67.1084 64.7999C67.2741 64.6399 67.4456 64.4857 67.6113 64.3257C67.8456 64.0914 68.1084 63.8171 68.3427 63.5428C68.4398 63.4285 68.5427 63.3485 68.6056 63.2342C68.7027 63.1199 68.8056 63.0399 68.8684 62.9257C69.097 62.6514 69.3313 62.4171 69.5599 62.1485C69.7541 61.9142 69.9198 61.7199 70.1199 61.4914C70.3484 61.2171 70.5484 60.9885 70.7427 60.7199C70.8399 60.6057 70.937 60.4514 71.0684 60.2971C71.1313 60.1828 71.2284 60.0685 71.297 59.9885C71.4913 59.7542 71.6513 59.4914 71.8513 59.2571C72.0456 58.9885 72.2056 58.7599 72.3998 58.4914C72.5256 58.3028 72.6913 58.0685 72.817 57.8799C73.0056 57.5771 73.1998 57.2685 73.3884 56.9657C73.4227 56.9257 73.417 56.8914 73.4513 56.8514C73.6398 56.5485 73.7998 56.2799 73.9541 55.9771C74.0456 55.7885 74.177 55.5999 74.2684 55.4114C74.3941 55.1828 74.5141 54.9199 74.6799 54.6914C74.8056 54.4628 74.897 54.2742 75.0227 54.0514C75.0856 53.9371 75.1427 53.7885 75.2056 53.6742C75.3256 53.4114 75.4856 53.1085 75.6056 52.8457C75.6398 52.8057 75.6684 52.7314 75.6627 52.6971C75.7541 52.4742 75.8799 52.2457 75.9656 51.9885C76.057 51.7999 76.1141 51.6171 76.2056 51.4285C76.297 51.2399 76.3541 51.0571 76.4456 50.8342C76.5656 50.5714 76.6513 50.2742 76.7713 49.9771C76.8284 49.8285 76.8913 49.6799 76.9484 49.5314C77.097 49.1599 77.2113 48.7885 77.3256 48.4171C77.4113 48.1599 77.5027 47.9314 77.5541 47.6742C77.6684 47.3028 77.7827 46.9314 77.897 46.5656C77.9484 46.3085 78.0341 46.0514 78.0856 45.7942C78.1998 45.4228 78.2741 45.0228 78.3484 44.6171C78.3998 44.3599 78.4513 44.1371 78.5027 43.8799C78.6113 43.4399 78.6799 42.9999 78.7541 42.5942C78.777 42.4114 78.7999 42.2685 78.857 42.0799C78.8513 42.0057 78.8798 41.9314 78.8798 41.8971C78.9713 41.2742 79.0627 40.6171 79.1541 39.9999C79.1941 39.5999 79.2341 39.1999 79.2684 38.7999C79.2684 38.7999 79.297 38.6914 79.3541 38.5028C79.3827 38.4285 79.3827 38.3942 79.4113 38.3199C79.4113 38.2856 79.4399 38.2457 79.4399 38.2114C79.4399 38.1771 79.4684 38.1371 79.4684 38.1028C79.737 37.3942 80.3027 36.4114 81.3998 35.7085C82.1827 35.1371 83.2341 34.7999 84.6513 34.8971V34.8628Z" fill="url(#paint8_linear_284_10472)"/>
        <path d="M31.7257 77.8285C29.9943 79.5942 29.2285 81.6456 29.72 84.0914C28.9543 83.1428 28.36 82.0399 28.3314 80.8171V80.7828C28.3143 80.6399 28.3428 80.4913 28.3657 80.3828C28.3885 80.2342 28.4171 80.1256 28.48 80.0114C28.9371 78.9999 30.1771 78.3199 31.7257 77.8285Z" fill="url(#paint9_linear_284_10472)"/>
    </g>
    <defs>
        <radialGradient id="paint0_radial_284_10472" cx="0" cy="0" r="1" gradientUnits="userSpaceOnUse" gradientTransform="translate(111.701 28.1374) rotate(58.53) scale(121.125 121.125)">
            <stop stop-color="#A16552"/>
            <stop offset="1" stop-color="#794C3E"/>
        </radialGradient>
        <radialGradient id="paint1_radial_284_10472" cx="0" cy="0" r="1" gradientUnits="userSpaceOnUse" gradientTransform="translate(109.462 29.9522) rotate(58.53) scale(115.875)">
            <stop stop-color="#794C3E"/>
            <stop offset="1" stop-color="#A16552"/>
        </radialGradient>
        <radialGradient id="paint2_radial_284_10472" cx="0" cy="0" r="1" gradientUnits="userSpaceOnUse" gradientTransform="translate(4.7055 84.6214) rotate(13.52) scale(119.96 119.96)">
            <stop stop-color="#FFE988"/>
            <stop offset="0.25" stop-color="#BA801E"/>
            <stop offset="0.5" stop-color="#FBEC83"/>
            <stop offset="0.75" stop-color="#BA801F"/>
            <stop offset="1" stop-color="#FFE97F"/>
        </radialGradient>
        <radialGradient id="paint3_radial_284_10472" cx="0" cy="0" r="1" gradientUnits="userSpaceOnUse" gradientTransform="translate(11.8862 83.7364) rotate(13.53) scale(101.806)">
            <stop stop-color="#FFE988"/>
            <stop offset="0.25" stop-color="#BA801E"/>
            <stop offset="0.5" stop-color="#FBEC83"/>
            <stop offset="0.75" stop-color="#BA801F"/>
            <stop offset="1" stop-color="#FFE97F"/>
        </radialGradient>
        <radialGradient id="paint4_radial_284_10472" cx="0" cy="0" r="1" gradientUnits="userSpaceOnUse" gradientTransform="translate(31.748 5.37938) rotate(13.53) scale(131.398 131.398)">
            <stop stop-color="#FFE988"/>
            <stop offset="0.25" stop-color="#BA801E"/>
            <stop offset="0.5" stop-color="#FBEC83"/>
            <stop offset="0.75" stop-color="#BA801F"/>
            <stop offset="1" stop-color="#FFE97F"/>
        </radialGradient>
        <linearGradient id="paint5_linear_284_10472" x1="75.3624" y1="27.4354" x2="84.853" y2="36.6927" gradientUnits="userSpaceOnUse">
            <stop stop-color="#FFE988"/>
            <stop offset="0.25" stop-color="#BA801E"/>
            <stop offset="0.5" stop-color="#FBEC83"/>
            <stop offset="0.75" stop-color="#BA801F"/>
            <stop offset="1" stop-color="#FFE97F"/>
        </linearGradient>
        <linearGradient id="paint6_linear_284_10472" x1="75.954" y1="26.8299" x2="85.4446" y2="36.0873" gradientUnits="userSpaceOnUse">
            <stop stop-color="#FFE988"/>
            <stop offset="0.25" stop-color="#BA801E"/>
            <stop offset="0.5" stop-color="#FBEC83"/>
            <stop offset="0.75" stop-color="#BA801F"/>
            <stop offset="1" stop-color="#FFE97F"/>
        </linearGradient>
        <linearGradient id="paint7_linear_284_10472" x1="25.8101" y1="62.9807" x2="137.244" y2="62.2247" gradientUnits="userSpaceOnUse">
            <stop stop-color="#FFE988"/>
            <stop offset="0.25" stop-color="#BA801E"/>
            <stop offset="0.5" stop-color="#FBEC83"/>
            <stop offset="0.75" stop-color="#BA801F"/>
            <stop offset="1" stop-color="#FFE97F"/>
        </linearGradient>
        <linearGradient id="paint8_linear_284_10472" x1="23.1505" y1="67.9666" x2="97.4479" y2="53.2952" gradientUnits="userSpaceOnUse">
            <stop stop-color="#FFE988"/>
            <stop offset="0.25" stop-color="#BA801E"/>
            <stop offset="0.5" stop-color="#FBEC83"/>
            <stop offset="0.75" stop-color="#BA801F"/>
            <stop offset="1" stop-color="#FFE97F"/>
        </linearGradient>
        <linearGradient id="paint9_linear_284_10472" x1="25.5684" y1="76.4297" x2="31.0487" y2="81.2439" gradientUnits="userSpaceOnUse">
            <stop stop-color="#FFE988"/>
            <stop offset="0.25" stop-color="#BA801E"/>
            <stop offset="0.5" stop-color="#FBEC83"/>
            <stop offset="0.75" stop-color="#BA801F"/>
            <stop offset="1" stop-color="#FFE97F"/>
        </linearGradient>
        <clipPath id="clip0_284_10472">
            <rect width="120" height="120" fill="white"/>
        </clipPath>
    </defs>
</svg>