<svg width="366" height="336" viewBox="0 0 326 336" fill="none" xmlns="http://www.w3.org/2000/svg">
    <path d="M30.4381 235.163C84.3389 312.748 154.14 237.799 179.406 199.85C232.043 136.602 246.782 216.716 305.209 143.453C363.637 70.1908 279.417 19.0652 224.148 18.0111C168.878 16.957 189.406 91.2737 122.557 89.1654C55.7071 87.0572 -36.9379 138.183 30.4381 235.163Z" fill="#383838"/>
    <g clip-path="url(#clip0_6_2658)">
        <path d="M247.565 206.976C247.565 206.976 262.416 212.016 264.23 210C266.045 207.984 269.674 160.541 265.776 156.912C261.878 153.283 107.99 138.365 97.5072 147.034C91.1904 149.117 93.4752 185.606 94.5504 186.95C95.5584 188.16 247.565 206.976 247.565 206.976Z" fill="#3D3532"/>
        <path d="M273.101 217.997C273.101 218.333 265.306 399.639 247.565 409.383C229.824 419.127 64.5793 397.219 59.3377 371.952C54.0961 346.685 79.9681 200.122 87.0913 191.722C94.2817 183.254 273.907 199.046 273.101 217.997Z" fill="#2E2826"/>
        <path d="M251.462 197.03C249.648 194.678 213.696 186.883 213.696 186.883L137.088 176.938C137.088 176.938 90.1823 182.65 87.8303 185.741C85.4783 188.832 39.3119 315.302 38.5727 327.062C37.7663 338.822 71.7023 407.635 71.7023 407.635L82.2527 386.064C85.0079 386.131 173.376 407.904 210.874 389.088C210.067 381.293 215.443 308.313 215.443 308.313L220.282 301.526L248.438 323.098L211.142 392.179L231.504 414.826C231.504 414.826 288.355 372.826 296.688 349.91C304.886 327.062 253.277 199.382 251.462 197.03ZM86.2847 346.953L80.0351 324.441L88.3007 309.658L91.1903 301.997L86.2847 346.953Z" fill="#27C278"/>
        <path d="M137.021 177.005C137.021 177.005 131.847 220.147 156.509 221.021C181.104 221.894 200.794 185.203 200.794 185.203L137.021 177.005Z" fill="url(#paint0_linear_6_2658)"/>
        <path d="M181.709 209.731C193.267 199.248 200.726 185.27 200.726 185.27L169 175.5L136.954 177.005C136.954 177.005 135.072 192.864 139.104 205.565C148.512 204.154 166.723 202.81 181.709 209.731Z" fill="url(#paint1_radial_6_2658)"/>
        <path d="M80.0353 324.442L88.3009 309.658L90.8545 302.803C91.0561 300.787 91.1233 299.51 91.1233 299.242C91.1233 296.621 86.6209 258.854 86.6209 258.854C86.6209 258.854 65.5873 292.253 64.7809 295.277C63.9745 298.301 67.4017 301.661 67.4017 302.938C67.4017 304.214 41.5969 311.674 45.7633 314.294C49.9297 316.915 57.5233 313.219 56.9857 314.026C56.4481 314.832 47.8465 327.13 47.8465 328.138C47.8465 329.146 55.1713 328.138 55.1713 328.138L82.1185 386.064C82.1185 386.064 84.1345 367.114 86.2849 346.954L80.0353 324.442Z" fill="#2B8F5F"/>
        <path d="M93.1392 225.59L75.5328 217.325L66.9312 239.702L84.6048 249.446L93.1392 225.59Z" fill="white"/>
        <path d="M217.594 237.753L262.416 223.776C262.416 223.776 269.472 241.584 269.741 242.457C270.01 243.331 223.373 257.241 223.373 257.241L217.594 237.753Z" fill="white"/>
        <path d="M211.881 236.813C211.881 236.813 100.061 225.859 97.9773 226.531C95.8269 227.203 94.4829 245.011 94.4829 245.011L210.873 255.427L211.881 236.813Z" fill="white"/>
        <path d="M220.954 310.195C220.954 311.002 242.525 319.267 242.189 322.694C241.853 326.054 215.376 384.384 215.376 384.384L263.222 327.13L255.36 319.805L265.776 315.37L223.507 261.677L220.954 310.195Z" fill="#2B8F5F"/>
        <path d="M226.061 324.509C226.061 324.509 224.649 295.344 226.061 261.139C227.472 227.002 243.6 192.058 242.054 190.512C240.509 188.966 213.83 184.531 211.008 186.077C208.185 187.622 201.6 273.168 206.841 297.629C212.083 322.157 224.918 330.221 226.061 324.509Z" fill="#2E2826"/>
        <path d="M118.272 178.55C118.272 178.55 95.0881 311.472 90.1153 312.278C85.1425 313.085 74.9953 235.401 90.1153 182.717C92.7361 180.633 118.272 178.55 118.272 178.55Z" fill="#2E2826"/>
        <path d="M195.081 151.603L157.785 145.555L140.313 177.408L195.081 184.464V151.603Z" fill="url(#paint2_radial_6_2658)"/>
        <path d="M122.573 87.36C121.027 91.392 119.952 95.5584 119.482 99.8592C119.482 100.128 119.415 100.464 119.415 100.733C118.944 105.907 117.735 111.014 116.055 115.92C113.77 114.845 111.485 112.829 109.469 109.603C104.16 101.136 107.52 88.8384 115.45 86.688C118.474 85.8816 120.826 86.352 122.573 87.36C122.64 87.2928 122.64 87.36 122.573 87.36Z" fill="#A16552"/>
        <path d="M122.573 87.36C121.027 91.392 119.952 95.5584 119.482 99.8592C119.482 100.128 119.415 100.464 119.415 100.733C118.944 105.907 117.735 111.014 116.055 115.92C113.77 114.845 111.485 112.829 109.469 109.603C104.16 101.136 107.52 88.8384 115.45 86.688C118.474 85.8816 120.826 86.352 122.573 87.36C122.64 87.2928 122.64 87.36 122.573 87.36Z" fill="#F5DCB4"/>
        <path d="M233.789 123.043C231.101 125.731 228.48 127.21 225.993 127.814C225.389 122.64 225.321 117.398 225.926 112.291C225.926 112.022 225.993 111.686 225.993 111.418C226.464 107.117 226.329 102.749 225.59 98.5151C227.539 97.9775 229.958 98.0447 232.713 99.4559C240.038 103.085 240.777 115.853 233.789 123.043Z" fill="#A16552"/>
        <path d="M233.789 123.043C231.101 125.731 228.48 127.21 225.993 127.814C225.389 122.64 225.321 117.398 225.926 112.291C225.926 112.022 225.993 111.686 225.993 111.418C226.464 107.117 226.329 102.749 225.59 98.5151C227.539 97.9775 229.958 98.0447 232.713 99.4559C240.038 103.085 240.777 115.853 233.789 123.043Z" fill="#F5DCB4"/>
        <path d="M209.463 126.135C206.842 129.427 205.767 133.661 206.64 137.76C207.312 140.851 207.85 144.346 207.581 146.832C205.632 165.178 186.615 178.215 165.111 175.863C143.674 173.578 127.882 156.778 129.831 138.432C130.099 135.946 131.376 132.653 132.72 129.763C134.467 125.933 134.333 121.565 132.451 117.802C131.981 116.928 131.645 115.987 131.309 114.979C130.368 112.09 130.032 108.999 130.368 105.975C131.712 93.8113 143.136 85.0081 155.904 86.4193C160.071 86.8225 163.968 88.3681 167.395 90.7873C171.36 93.6769 176.535 94.2145 181.037 92.2657C184.867 90.6529 189.034 89.9809 193.2 90.4513C206.035 91.8625 215.309 102.816 214.032 115.047C213.696 118.071 212.755 121.027 211.143 123.648C210.672 124.522 210.067 125.395 209.463 126.135Z" fill="#A16552"/>
        <path d="M209.463 126.135C206.842 129.427 205.767 133.661 206.64 137.76C207.312 140.851 207.85 144.346 207.581 146.832C205.632 165.178 186.615 178.215 165.111 175.863C143.674 173.578 127.882 156.778 129.831 138.432C130.099 135.946 131.376 132.653 132.72 129.763C134.467 125.933 134.333 121.565 132.451 117.802C131.981 116.928 131.645 115.987 131.309 114.979C130.368 112.09 130.032 108.999 130.368 105.975C131.712 93.8113 143.136 85.0081 155.904 86.4193C160.071 86.8225 163.968 88.3681 167.395 90.7873C171.36 93.6769 176.535 94.2145 181.037 92.2657C184.867 90.6529 189.034 89.9809 193.2 90.4513C206.035 91.8625 215.309 102.816 214.032 115.047C213.696 118.071 212.755 121.027 211.143 123.648C210.672 124.522 210.067 125.395 209.463 126.135Z" fill="url(#paint3_linear_6_2658)"/>
        <path d="M235.872 95.4911C231.504 93.2063 227.741 93.7439 224.986 94.9535C224.582 93.0719 224.045 91.1231 223.44 89.3087C222.97 87.9647 222.499 86.6207 221.894 85.2767C216.25 71.6351 205.565 59.6735 192.461 53.6927L192.998 46.3679L183.658 50.6687C183.322 50.6015 182.986 50.5343 182.582 50.4671C181.91 50.3327 181.306 50.1983 180.634 50.1311L179.962 44.4863L179.76 42.8063C179.29 42.7391 178.886 42.7391 178.483 42.7391C170.218 42.5375 165.379 49.5263 164.573 50.7359C150.528 53.7599 137.491 63.1679 129.091 75.2639C128.285 76.4735 127.478 77.6831 126.739 78.8927C125.731 80.5727 124.79 82.3199 123.984 84.0671C123.917 83.9999 123.782 83.9327 123.648 83.8655C121.229 82.2527 117.802 81.0431 113.232 82.2527C103.152 84.9407 98.8513 100.598 105.571 111.35C108.326 115.718 111.485 118.339 114.576 119.616C114.509 119.818 114.442 119.952 114.374 120.154C113.501 122.774 112.896 125.462 112.627 128.218C110.611 147.168 122.774 164.976 142.061 174.317C146.563 176.534 151.334 178.147 156.24 179.29C158.794 179.894 161.347 180.298 163.968 180.634C164.17 180.634 164.371 180.701 164.573 180.701C196.022 184.061 223.776 166.118 226.531 140.515C226.8 137.76 226.8 135.005 226.531 132.317C226.531 132.115 226.464 131.914 226.464 131.779C229.824 131.174 233.386 129.293 237.014 125.597C246.019 116.525 245.078 100.33 235.872 95.4911ZM122.573 87.3599C121.027 91.3919 119.952 95.5583 119.482 99.8591C119.482 100.128 119.414 100.464 119.414 100.733C118.944 105.907 117.734 111.014 116.054 115.92C113.77 114.845 111.485 112.829 109.469 109.603C104.16 101.136 107.52 88.8383 115.45 86.6879C118.474 85.8815 120.826 86.3519 122.573 87.3599C122.64 87.2927 122.64 87.3599 122.573 87.3599ZM211.142 123.648C210.605 124.522 210.067 125.328 209.395 126.134C206.774 129.427 205.699 133.661 206.573 137.76C207.245 140.851 207.782 144.346 207.514 146.832C205.565 165.178 186.547 178.214 165.043 175.862C143.606 173.578 127.747 156.778 129.763 138.432C130.032 135.946 131.309 132.653 132.653 129.763C134.4 125.933 134.266 121.565 132.384 117.802C131.914 116.928 131.578 115.987 131.242 114.979C130.301 112.09 129.965 108.998 130.301 105.974C131.645 93.8111 143.069 85.0079 155.837 86.4191C160.003 86.8223 163.901 88.3679 167.328 90.7871C171.293 93.6767 176.467 94.2143 180.97 92.2655C184.8 90.6527 188.966 89.9807 193.133 90.4511C205.968 91.8623 215.242 102.816 213.965 115.046C213.696 118.07 212.755 121.027 211.142 123.648ZM233.789 123.043C231.101 125.731 228.48 127.21 225.994 127.814C225.389 122.64 225.322 117.398 225.926 112.291C225.926 112.022 225.994 111.686 225.994 111.418C226.464 107.117 226.33 102.749 225.59 98.5151C227.539 97.9775 229.958 98.0447 232.714 99.4559C240.038 103.085 240.778 115.853 233.789 123.043Z" fill="url(#paint4_linear_6_2658)"/>
        <path d="M160.406 129.158C160.944 128.285 162.086 127.949 162.96 128.486L167.059 130.906C167.933 131.443 168.269 132.586 167.731 133.459C167.194 134.333 166.051 134.669 165.178 134.131L161.078 131.712C160.205 131.242 159.869 130.099 160.406 129.158Z" fill="#4E3F3F"/>
        <path d="M171.696 133.997C171.36 132.989 171.898 131.981 172.906 131.645L177.408 130.166C178.416 129.83 179.424 130.368 179.76 131.376C180.096 132.384 179.559 133.392 178.551 133.728L174.048 135.206C173.04 135.475 172.032 134.938 171.696 133.997Z" fill="#4E3F3F"/>
        <path d="M151.267 117.197C147.571 116.794 144.883 113.635 145.287 110.141L145.488 108.058C145.891 104.563 149.184 102.077 152.813 102.48C156.509 102.883 159.197 106.042 158.794 109.536L158.592 111.619C158.256 115.114 154.963 117.6 151.267 117.197Z" fill="#4E3F3F"/>
        <path d="M152.88 102.48L152.074 109.872C151.872 111.619 153.216 113.165 155.031 113.366C156.845 113.568 158.525 112.291 158.727 110.544L158.861 109.469C159.264 106.042 156.576 102.883 152.88 102.48Z" fill="#5D5360"/>
        <path d="M154.644 106.956C154.767 105.812 153.88 104.778 152.663 104.647C151.445 104.516 150.358 105.337 150.235 106.48C150.111 107.624 150.998 108.658 152.216 108.789C153.434 108.921 154.521 108.1 154.644 106.956Z" fill="white"/>
        <path d="M190.714 122.035C187.018 121.632 184.33 118.474 184.733 114.979L184.935 112.896C185.338 109.402 188.631 106.915 192.259 107.318C195.955 107.722 198.643 110.88 198.24 114.374L198.039 116.458C197.635 119.952 194.41 122.438 190.714 122.035Z" fill="#4E3F3F"/>
        <path d="M192.259 107.318L191.453 114.71C191.251 116.458 192.595 118.003 194.409 118.205C196.224 118.406 197.904 117.13 198.105 115.382L198.24 114.307C198.643 110.88 195.955 107.722 192.259 107.318Z" fill="#5D5360"/>
        <path d="M194.041 111.764C194.164 110.621 193.277 109.587 192.059 109.456C190.841 109.324 189.754 110.145 189.631 111.289C189.508 112.433 190.395 113.467 191.612 113.598C192.83 113.729 193.917 112.908 194.041 111.764Z" fill="white"/>
        <path opacity="0.35" d="M179.962 44.4192C178.483 44.0832 174.989 46.0992 170.621 49.728C169.546 50.6016 168.403 51.6768 167.261 52.752C158.659 60.8832 148.243 74.1216 143.674 88.3008C135.946 112.157 130.838 140.179 138.096 156.845C144.278 170.957 156.374 179.29 156.374 179.29C151.469 178.147 146.698 176.467 142.195 174.317C122.909 164.976 110.678 147.168 112.762 128.218C113.03 125.462 113.635 122.774 114.509 120.154C114.576 119.952 114.643 119.818 114.71 119.616C111.552 118.272 108.461 115.718 105.706 111.35C98.9184 100.598 103.286 84.9408 113.366 82.2528C117.936 81.0432 121.43 82.1856 123.782 83.8656C123.917 83.9328 123.984 84 124.118 84.0672C124.925 82.32 125.866 80.5728 126.874 78.8928C127.613 77.6832 128.419 76.4736 129.226 75.264C137.626 63.168 150.662 53.76 164.707 50.6688C165.514 49.4592 170.352 42.4704 178.618 42.672C179.021 42.672 179.491 42.7392 179.894 42.7392L179.962 44.4192Z" fill="#4E3F3F"/>
        <path d="M193.805 156.24C193.267 154.829 192.461 153.485 191.386 152.477C188.967 150.058 184.531 150.259 187.555 152.275C187.891 152.477 188.227 152.746 188.563 153.014C188.496 153.082 188.429 153.216 188.362 153.283C187.421 154.426 186.144 155.165 184.8 155.702C178.147 158.122 169.949 156.71 163.162 155.299C157.584 153.955 151.872 152.208 146.899 149.251C143.875 148.512 146.496 150.662 146.631 150.73C147.235 151.066 147.84 151.402 148.512 151.67C157.315 155.904 182.583 162.893 189.84 154.493C189.907 154.358 190.042 154.224 190.109 154.157C190.243 154.291 190.512 154.426 190.647 154.56C191.386 155.165 192.192 155.837 192.864 156.509C193.066 156.71 193.335 157.046 193.536 157.248C194.275 157.853 194.007 156.643 193.805 156.24Z" fill="#4E3F3F"/>
        <path d="M182.717 104.496L182.784 105.773C182.851 106.31 183.254 106.714 183.792 106.646L202.944 105.504C203.481 105.504 203.885 105.034 203.817 104.496C203.75 102.883 203.481 100.061 203.28 100.061C203.078 100.061 187.286 102.749 183.456 103.421C182.985 103.555 182.649 104.026 182.717 104.496Z" fill="url(#paint5_linear_6_2658)"/>
        <path d="M163.094 102.144L162.624 103.354C162.422 103.824 161.885 104.093 161.414 103.891L143.405 97.3056C142.934 97.104 142.665 96.5664 142.8 96.096C143.337 94.6176 144.413 91.9296 144.547 91.9968C144.749 92.064 159.062 99.1872 162.557 100.934C163.094 101.136 163.296 101.674 163.094 102.144Z" fill="url(#paint6_linear_6_2658)"/>
        <path d="M123.715 83.8656C123.715 83.8656 123.379 84.4704 126.941 86.016C130.502 87.5616 217.795 96.6336 224.985 94.9536C225.657 94.8864 225.859 94.752 225.859 94.3488C225.792 93.8784 221.491 76.8768 220.013 74.6592C218.064 73.7856 216.249 73.7856 214.099 74.0544C211.881 74.256 135.945 67.872 134.265 67.2672C132.585 66.6624 128.957 73.8528 128.016 75.8016C127.008 77.7504 123.715 83.8656 123.715 83.8656Z" fill="#27C278"/>
        <path opacity="0.35" d="M151.939 69.0145C141.993 68.1409 134.669 67.4017 134.198 67.2001C132.518 66.5953 128.889 73.7857 127.949 75.7345C127.008 77.6833 123.715 83.8657 123.715 83.8657C123.715 83.8657 123.379 84.4705 126.941 86.0161C127.814 86.4193 133.526 87.2257 141.859 88.2337C141.859 88.2337 150.461 71.0977 151.939 69.0145Z" fill="#4E3F3F"/>
    </g>
    <defs>
        <linearGradient id="paint0_linear_6_2658" x1="136.572" y1="199.006" x2="200.772" y2="199.006" gradientUnits="userSpaceOnUse">
            <stop stop-color="#E7BC91"/>
            <stop offset="0.3993" stop-color="#F3D5B5"/>
            <stop offset="0.6602" stop-color="#F5DCB4"/>
            <stop offset="0.7034" stop-color="#F4DAB2"/>
            <stop offset="1" stop-color="#EFD3AB"/>
        </linearGradient>
        <radialGradient id="paint1_radial_6_2658" cx="0" cy="0" r="1" gradientUnits="userSpaceOnUse" gradientTransform="translate(172.114 132.993) scale(186.184 186.184)">
            <stop offset="0.1429" stop-color="#92594B"/>
            <stop offset="0.2417" stop-color="#91584A"/>
            <stop offset="0.2571" stop-color="#905749"/>
            <stop offset="0.5513" stop-color="#814C3F"/>
            <stop offset="0.7934" stop-color="#7C483C"/>
        </radialGradient>
        <radialGradient id="paint2_radial_6_2658" cx="0" cy="0" r="1" gradientUnits="userSpaceOnUse" gradientTransform="translate(172.106 117.755) scale(243.701 243.701)">
            <stop offset="0.1429" stop-color="#92594B"/>
            <stop offset="0.2417" stop-color="#91584A"/>
            <stop offset="0.2571" stop-color="#905749"/>
            <stop offset="0.5513" stop-color="#814C3F"/>
            <stop offset="0.7934" stop-color="#7C483C"/>
        </radialGradient>
        <linearGradient id="paint3_linear_6_2658" x1="129.632" y1="130.333" x2="213.594" y2="132.764" gradientUnits="userSpaceOnUse">
            <stop stop-color="#E7BC91"/>
            <stop offset="0.3993" stop-color="#F3D5B5"/>
            <stop offset="0.6602" stop-color="#F5DCB4"/>
            <stop offset="0.7034" stop-color="#F4DAB2"/>
            <stop offset="1" stop-color="#EFD3AB"/>
        </linearGradient>
        <linearGradient id="paint4_linear_6_2658" x1="101.793" y1="106.709" x2="242.866" y2="116.91" gradientUnits="userSpaceOnUse">
            <stop stop-color="#A16552"/>
            <stop offset="0.201" stop-color="#935848"/>
            <stop offset="0.504" stop-color="#935848"/>
            <stop offset="0.6028" stop-color="#9C604E"/>
            <stop offset="0.7268" stop-color="#A16552"/>
            <stop offset="1" stop-color="#966444"/>
        </linearGradient>
        <linearGradient id="paint5_linear_6_2658" x1="183.893" y1="105.134" x2="245.513" y2="97.8589" gradientUnits="userSpaceOnUse">
            <stop stop-color="#A16552"/>
            <stop offset="0.201" stop-color="#935848"/>
            <stop offset="0.504" stop-color="#935848"/>
            <stop offset="0.6028" stop-color="#9C604E"/>
            <stop offset="0.7268" stop-color="#A16552"/>
            <stop offset="1" stop-color="#966444"/>
        </linearGradient>
        <linearGradient id="paint6_linear_6_2658" x1="162.349" y1="101.25" x2="126.499" y2="88.5408" gradientUnits="userSpaceOnUse">
            <stop stop-color="#A16552"/>
            <stop offset="0.201" stop-color="#935848"/>
            <stop offset="0.504" stop-color="#935848"/>
            <stop offset="0.6028" stop-color="#9C604E"/>
            <stop offset="0.7268" stop-color="#A16552"/>
            <stop offset="1" stop-color="#966444"/>
        </linearGradient>
        <clipPath id="clip0_6_2658">
            <rect width="336" height="336" rx="168" fill="white"/>
        </clipPath>
    </defs>
</svg>
