<svg width="376" height="272" viewBox="0 0 306 309" fill="none" xmlns="http://www.w3.org/2000/svg">
    <path d="M21.0213 127.335C22.2213 200.935 99.1879 227.668 137.521 231.835C330.021 249.335 346.521 20.335 222.021 3.33495C97.5213 -13.665 19.5213 35.335 21.0213 127.335Z" fill="#F1EADA"/>
    <path d="M118.247 304.683C77.6098 304.114 57.5122 301.46 44.809 289.073C32.1058 276.686 38.2994 273.02 54.1626 266.068C69.9626 259.116 96.1274 246.729 130.319 246.034C164.51 245.338 198.069 249.826 202.809 250.521C207.549 251.216 234.978 258.674 239.655 277.697C244.331 296.783 170.008 305.442 118.247 304.683Z" fill="#938982"/>
    <path d="M205.653 269.544C207.549 259.369 208.307 253.365 202.746 250.584C199.206 250.078 179.298 247.361 155.03 246.35C149.152 246.16 143.338 246.034 138.092 245.97C135.501 245.97 132.846 245.97 130.255 246.034C125.262 246.286 110.41 247.298 100.994 252.417C89.2383 258.737 82.7919 271.503 74.0071 275.738C67.3079 279.024 49.2959 282.184 45.5039 289.768C58.2071 301.523 78.3679 304.114 118.247 304.683C151.238 305.126 193.392 301.839 218.356 294.382C221.137 287.366 203.63 280.478 205.653 269.544Z" fill="#C2A981"/>
    <path opacity="0.1" d="M115.593 250.963C115.593 250.963 100.362 250.837 93.7889 258.737C87.2793 266.574 81.7809 269.354 84.4353 278.455C87.0265 287.556 114.834 294.066 143.97 289.262C173.105 284.459 182.079 286.861 193.392 276.622C204.705 266.384 200.534 259.179 196.11 256.778C191.686 254.376 179.298 251.722 165.078 252.48C150.922 253.302 115.593 250.963 115.593 250.963Z" fill="black"/>
    <path d="M212.352 268.28C211.025 266.89 209.635 265.246 210.267 264.235C210.899 263.224 212.731 258.737 213.237 258.042C213.743 257.41 215.196 256.209 216.523 256.209C217.851 256.209 221.2 256.272 224.929 257.094C228.658 257.915 231.375 262.213 232.26 264.172C233.145 266.194 233.714 270.429 230.427 270.998C227.141 271.566 226.003 270.745 219.873 271.44C213.806 272.135 213.995 269.986 212.352 268.28Z" fill="#AFAFAF"/>
    <path opacity="0.3" d="M210.14 264.741C210.14 264.741 212.162 265.815 212.731 267.142C213.3 268.47 213.553 269.86 216.839 269.418C220.126 268.975 220.821 269.418 222.211 267.838C223.602 266.258 226.13 266.131 226.951 267.458C227.773 268.786 230.554 268.596 230.996 268.406C231.438 268.217 232.702 268.596 232.829 269.228C232.955 269.86 231.944 270.618 232.07 271.503C232.197 272.388 232.197 272.641 231.059 272.83C229.858 273.02 224.55 272.578 221.516 273.146C218.482 273.715 217.092 273.146 215.512 272.704C213.932 272.325 213.047 270.618 212.415 269.607C211.783 268.596 210.519 266.005 210.393 265.626C210.14 265.12 209.761 264.741 210.14 264.741Z" fill="black"/>
    <path d="M212.479 280.857C211.594 279.719 212.921 278.898 213.743 278.834C214.564 278.771 215.512 279.782 215.323 280.288C215.196 280.794 214.248 281.173 213.806 281.11C213.363 281.046 212.795 281.236 212.479 280.857Z" fill="#8C9DA5"/>
    <path opacity="0.3" d="M212.289 280.604C212.225 280.478 212.731 280.857 212.857 280.92C212.984 280.92 213.237 280.92 213.553 280.857C213.869 280.857 213.869 280.983 214.121 280.92C214.374 280.794 215.006 280.667 215.006 280.667C215.006 280.667 214.88 280.857 214.627 281.046C214.374 281.173 214.058 281.362 213.805 281.362C213.553 281.362 213.11 281.362 212.921 281.362C212.731 281.362 212.478 281.173 212.415 281.046C212.352 280.92 212.289 280.604 212.289 280.604Z" fill="black"/>
    <path opacity="0.3" d="M53.8464 266.763C53.8464 266.763 55.4264 266.384 56.6272 267.143C57.828 267.901 56.88 268.154 58.144 268.217C59.408 268.28 60.4824 267.901 61.8728 268.217C63.2632 268.533 64.6536 268.722 65.6648 268.533C66.676 268.343 67.624 268.912 68.4456 267.901C69.2672 266.89 69.8992 265.246 70.5312 264.678C71.1 264.172 72.364 263.414 73.1224 263.224C73.8808 263.034 76.472 261.328 76.9144 261.139C77.42 261.012 79.0632 260.001 79.1264 259.875C79.2528 259.748 78.9368 260.633 78.1152 261.202C77.2936 261.77 75.84 262.15 75.6504 262.339C75.4608 262.529 72.996 263.856 72.6168 264.362C72.2376 264.804 70.784 266.131 70.3416 266.7C69.8992 267.269 68.256 269.038 67.7504 269.228C67.2448 269.418 66.1072 269.291 65.2224 269.481C64.3376 269.67 63.0104 270.239 62.3784 270.555C61.7464 270.871 59.3448 270.618 58.46 270.871C57.5752 271.124 55.0472 271.061 54.7312 270.176C54.4152 269.291 53.5304 267.016 53.8464 266.763Z" fill="black"/>
    <path d="M74.1337 285.597C76.4721 285.407 76.9777 284.459 82.1601 285.407C87.2793 286.355 89.7441 286.482 85.0041 289.642C80.2641 292.739 76.8513 294.382 74.9553 292.928C73.0593 291.475 67.8769 286.039 74.1337 285.597Z" fill="#B2956B"/>
    <path opacity="0.1" d="M72.3008 290.21C72.3008 290.21 73.8808 291.664 74.3864 292.106C74.892 292.486 75.2712 292.928 76.472 292.991C77.6728 293.054 79.8216 292.422 80.5168 292.043C81.1488 291.664 86.9632 288.251 86.9632 288.251C86.9632 288.251 85.5096 289.958 84.6248 290.653C83.74 291.348 80.264 293.37 79.2528 293.686C78.2416 294.002 77.1672 294.129 75.9664 293.939C74.7656 293.75 74.3232 293.118 74.1336 292.675C73.944 292.233 72.3008 290.21 72.3008 290.21Z" fill="black"/>
    <path d="M190.611 260.443C190.991 259.938 190.927 259.242 192.444 259.495C193.898 259.748 194.53 259.811 194.656 260.443C194.719 261.012 194.972 262.023 194.087 262.15C193.203 262.276 191.433 262.086 191.054 261.77C190.675 261.454 190.422 260.759 190.611 260.443Z" fill="#B2956B"/>
    <path d="M183.469 255.324C183.975 254.882 184.923 253.238 187.135 253.681C189.347 254.123 189.853 254.313 189.789 255.134C189.726 255.956 190.105 257.473 189.031 257.726C188.02 258.042 185.176 259.242 184.481 258.99C183.785 258.674 181.826 256.778 183.469 255.324Z" fill="#B2956B"/>
    <path opacity="0.1" d="M190.548 260.886C190.548 260.759 190.864 261.518 191.243 261.581C191.622 261.707 192.317 261.897 192.949 261.834C193.581 261.77 193.961 261.581 194.213 261.581C194.466 261.581 194.593 261.581 194.593 261.581C194.656 261.581 194.656 261.834 194.529 262.023C194.403 262.213 194.213 262.276 193.834 262.402C193.455 262.529 192.76 262.339 192.444 262.339C192.128 262.339 191.369 262.15 190.927 261.96C190.674 261.834 190.548 261.138 190.548 260.886Z" fill="black"/>
    <path opacity="0.1" d="M182.901 257.094C182.901 257.094 183.47 257.662 183.849 257.789C184.228 257.915 184.165 257.599 184.86 257.789C185.555 257.978 185.113 258.294 185.998 258.231C186.946 258.168 188.462 257.789 188.778 257.662C189.094 257.536 189.663 257.157 189.79 256.714C189.853 256.272 189.853 257.283 189.726 257.599C189.6 257.915 188.526 258.168 188.273 258.294C187.957 258.484 186.25 258.926 185.871 259.116C185.492 259.306 184.481 259.242 184.102 259.116C183.786 258.99 183.027 257.789 182.964 257.536C182.901 257.22 182.901 257.094 182.901 257.094Z" fill="black"/>
    <path d="M131.077 117.548L160.718 109.711C160.718 109.711 179.994 106.741 182.901 114.009C185.808 121.277 204.579 219.49 203.947 226.947C203.315 234.405 191.433 236.68 187.135 237.944C182.838 239.271 167.48 237.944 167.48 237.944L117.868 161.598L131.077 117.548Z" fill="#2E2826"/>
    <path d="M129.055 94.4169L163.372 86.8329C163.372 86.8329 171.146 86.5169 172.789 92.5841C174.432 98.7145 175.254 104.782 172.789 111.228C170.324 117.674 158.632 118.812 158.632 118.812L134.174 124.753L129.118 122.667L129.055 94.4169Z" fill="#3D3532"/>
    <path d="M271.697 236.617C273.719 235.669 275.615 234.405 277.511 232.698C279.218 231.182 279.407 228.59 277.89 226.884C276.374 225.178 273.782 224.988 272.076 226.505C267.652 230.36 263.607 231.118 258.678 228.97C253.685 226.821 248.629 222.018 243.699 217.404C236.431 210.578 229.542 204.069 221.706 204.322C217.85 204.448 214.248 206.218 211.088 209.63C206.285 214.813 200.723 218.731 194.972 220.943C189.474 223.092 184.354 223.471 180.12 222.081C171.904 219.363 169.186 210.452 168.365 203.5C168.112 201.225 166.09 199.645 163.814 199.898C161.539 200.15 159.959 202.173 160.212 204.448C160.97 211.21 162.93 216.835 165.963 221.196C168.934 225.43 172.852 228.401 177.529 229.918C183.596 231.94 190.674 231.434 197.942 228.59C204.831 225.936 211.467 221.259 217.092 215.192C218.735 213.422 220.315 212.538 221.958 212.474C226.382 212.348 232.323 217.91 238.074 223.282C243.51 228.401 249.134 233.646 255.391 236.427C261.079 238.955 266.514 239.018 271.697 236.617Z" fill="#9F6552"/>
    <path d="M199.207 218.984C199.775 218.668 200.344 218.352 200.913 218.036C200.281 218.352 199.712 218.668 199.207 218.984Z" fill="#9F6552"/>
    <path d="M165.332 200.024C165.584 200.087 165.837 200.214 166.09 200.34C165.837 200.214 165.648 200.087 165.332 200.024Z" fill="#9F6552"/>
    <path d="M163.751 199.898C164.194 199.835 164.573 199.835 165.015 199.961C164.573 199.898 164.131 199.835 163.751 199.898C163.499 199.898 163.309 199.961 163.056 200.024C163.246 199.961 163.499 199.961 163.751 199.898Z" fill="#9F6552"/>
    <path d="M211.025 209.631C211.404 209.188 211.846 208.809 212.226 208.43C211.846 208.809 211.467 209.188 211.025 209.631C208.623 212.222 206.032 214.497 203.314 216.393C206.032 214.497 208.623 212.222 211.025 209.631Z" fill="#9F6552"/>
    <path d="M161.666 200.719C161.476 200.846 161.35 200.972 161.223 201.162C161.35 201.035 161.539 200.909 161.666 200.719Z" fill="#9F6552"/>
    <path d="M160.086 203.753C160.086 203.563 160.149 203.374 160.149 203.184V203.121C160.149 203.31 160.086 203.5 160.086 203.753Z" fill="#9F6552"/>
    <path d="M161.729 200.719C161.919 200.593 162.045 200.467 162.235 200.403C162.108 200.467 161.919 200.593 161.729 200.719Z" fill="#9F6552"/>
    <path d="M162.361 200.34C162.55 200.277 162.74 200.15 162.93 200.087C162.74 200.15 162.55 200.214 162.361 200.34Z" fill="#9F6552"/>
    <path d="M264.745 230.107C264.492 230.107 264.176 230.17 263.923 230.17C264.239 230.17 264.492 230.17 264.745 230.107Z" fill="#9F6552"/>
    <path d="M160.402 202.363C160.338 202.552 160.275 202.742 160.212 202.995V202.931C160.275 202.805 160.275 202.615 160.338 202.489C160.402 202.489 160.402 202.426 160.402 202.363Z" fill="#9F6552"/>
    <path d="M264.745 230.107C265.567 230.044 266.388 229.855 267.21 229.539C266.388 229.855 265.567 230.044 264.745 230.107Z" fill="#9F6552"/>
    <path d="M243.763 217.404C243.7 217.404 243.7 217.404 243.763 217.404C242.815 216.519 241.867 215.634 240.982 214.813C241.867 215.634 242.752 216.519 243.763 217.404C243.7 217.404 243.7 217.404 243.763 217.404Z" fill="#9F6552"/>
    <path d="M245.469 219.047C245.785 219.363 246.101 219.679 246.48 219.995C246.164 219.679 245.785 219.363 245.469 219.047Z" fill="#9F6552"/>
    <path d="M232.197 207.734C232.892 208.177 233.524 208.619 234.219 209.125C233.587 208.619 232.892 208.177 232.197 207.734Z" fill="#9F6552"/>
    <path d="M228.089 205.523C226.256 204.764 224.36 204.322 222.401 204.259C224.36 204.322 226.256 204.764 228.089 205.523Z" fill="#9F6552"/>
    <path d="M228.089 205.522C229.226 205.965 230.364 206.597 231.502 207.292C230.364 206.597 229.226 206.028 228.089 205.522Z" fill="#9F6552"/>
    <path d="M235.61 210.136C236.305 210.642 236.937 211.21 237.632 211.779C236.937 211.274 236.242 210.705 235.61 210.136Z" fill="#9F6552"/>
    <path d="M278.902 230.234C278.902 230.297 278.839 230.423 278.839 230.486C278.839 230.55 278.839 230.613 278.775 230.676C278.839 230.486 278.839 230.36 278.902 230.234Z" fill="#9F6552"/>
    <path d="M160.781 201.73C160.907 201.541 161.034 201.351 161.16 201.225C161.034 201.351 160.907 201.541 160.781 201.73Z" fill="#9F6552"/>
    <path opacity="0.35" d="M278.649 231.118C278.712 230.992 278.775 230.802 278.775 230.676C278.775 230.613 278.775 230.55 278.838 230.486C278.838 230.36 278.902 230.297 278.902 230.17C278.902 230.107 278.902 229.981 278.902 229.918C278.902 229.854 278.902 229.728 278.902 229.665C278.902 229.602 278.902 229.475 278.902 229.412C278.902 229.349 278.902 229.222 278.902 229.159C278.902 229.033 278.902 228.97 278.838 228.843C278.838 228.78 278.838 228.717 278.775 228.654C278.775 228.527 278.712 228.464 278.712 228.338C278.712 228.274 278.649 228.211 278.649 228.148C278.586 228.022 278.586 227.958 278.522 227.832C278.522 227.769 278.459 227.706 278.459 227.642C278.396 227.516 278.333 227.453 278.27 227.326C278.143 227.516 277.954 227.642 277.827 227.832C275.931 229.475 273.972 230.802 272.013 231.75C266.83 234.152 261.395 234.152 255.707 231.687C249.45 228.97 243.826 223.661 238.39 218.542C232.639 213.17 226.698 208.556 222.274 208.746C220.631 208.809 219.051 209.694 217.408 211.463C211.783 217.53 205.147 222.144 198.258 224.862C190.99 227.706 183.912 228.148 177.845 226.189C173.105 224.609 169.186 221.702 166.279 217.467C163.625 213.612 161.792 207.798 160.907 202.046C160.844 202.173 160.718 202.299 160.654 202.489C160.654 202.552 160.591 202.615 160.591 202.678C160.528 202.805 160.465 202.994 160.465 203.121C160.465 203.184 160.402 203.247 160.402 203.31C160.338 203.5 160.338 203.69 160.338 203.879C160.338 204.132 160.338 204.385 160.338 204.638C161.097 211.4 163.056 217.025 166.09 221.386C169.06 225.62 172.978 228.59 177.655 230.107C183.722 232.13 190.801 231.624 198.069 228.78C204.958 226.126 211.594 221.449 217.218 215.382C218.862 213.612 220.442 212.727 222.085 212.664C226.509 212.538 232.45 218.099 238.201 223.471C243.636 228.59 249.261 233.836 255.518 236.617C261.206 239.082 266.641 239.145 271.823 236.68C273.846 235.732 275.742 234.468 277.638 232.762C278.017 232.256 278.396 231.687 278.649 231.118Z" fill="#4E3F3F"/>
    <path d="M278.649 231.118C278.712 230.992 278.775 230.866 278.775 230.676C278.712 230.866 278.649 230.992 278.649 231.118Z" fill="#9F6552"/>
    <path d="M278.27 227.453C278.333 227.516 278.333 227.579 278.396 227.642C278.396 227.706 278.459 227.706 278.459 227.769C278.396 227.642 278.333 227.516 278.27 227.453Z" fill="#9F6552"/>
    <path d="M278.207 227.326C278.143 227.2 278.017 227.01 277.891 226.884C277.511 226.442 277.069 226.126 276.563 225.873C277.069 226.126 277.511 226.442 277.891 226.884C278.017 227.01 278.143 227.137 278.207 227.326Z" fill="#9F6552"/>
    <path d="M278.522 227.895C278.522 227.958 278.586 228.022 278.586 228.085C278.586 228.148 278.649 228.148 278.649 228.211C278.649 228.085 278.586 228.022 278.522 227.895Z" fill="#9F6552"/>
    <path d="M160.465 202.299C160.528 202.173 160.591 201.983 160.654 201.857C160.654 201.794 160.718 201.73 160.718 201.667C160.654 201.92 160.528 202.11 160.465 202.299Z" fill="#9F6552"/>
    <path d="M278.459 227.769C278.523 227.769 278.523 227.832 278.459 227.769C278.523 227.832 278.523 227.769 278.459 227.769Z" fill="#9F6552"/>
    <path d="M278.649 228.211V228.274C278.649 228.274 278.649 228.338 278.712 228.338C278.712 228.338 278.712 228.274 278.649 228.211Z" fill="#9F6552"/>
    <path d="M278.839 228.907C278.839 228.78 278.775 228.654 278.775 228.527C278.775 228.591 278.775 228.591 278.775 228.654C278.775 228.717 278.839 228.78 278.839 228.843C278.839 228.843 278.839 228.843 278.839 228.907Z" fill="#9F6552"/>
    <path d="M92.7776 132.4L89.9336 132.526L85.5728 141.501L85.3832 194.526L67.0552 231.118L80.0744 244.138L106.871 215.634L113.444 191.998L109.21 189.912L92.7776 132.4Z" fill="#27C278"/>
    <path d="M113.444 191.998L107.883 183.845L104.849 177.398L106.113 188.142L104.723 208.303L104.786 211.084L101.752 209.883L100.172 211.779L100.994 214.686L78.4946 242.558L80.0746 244.138L106.871 215.634L113.444 191.998Z" fill="#2B8F5F"/>
    <path d="M96.1906 154.33L85.5098 153.446V162.926H101.563L96.1906 154.33Z" fill="white"/>
    <path d="M133.352 121.782L99.856 136.255L100.362 150.728L113.886 155.152L130.508 139.289C130.508 139.289 134.11 125.701 134.174 125.448C134.237 125.132 133.352 121.782 133.352 121.782Z" fill="url(#paint0_radial_6_2658)"/>
    <path d="M103.332 149.148C103.712 148.327 104.28 147.695 105.039 147.189C107.251 145.735 112.433 142.828 117.489 142.828C124.252 142.828 132.468 144.029 135.88 147.568C138.535 150.349 129.371 156.985 125.2 159.766C123.999 160.587 122.482 160.777 121.092 160.398L106.303 156.037C103.459 155.089 102.005 151.866 103.332 149.148Z" fill="url(#paint1_linear_6_2658)"/>
    <path d="M133.352 121.782C133.352 121.782 128.928 139.858 114.708 149.717C99.0347 158.312 100.362 134.928 100.362 134.928L91.8931 132.716L98.6555 168.424L102.131 171.584L116.162 207.987L147.383 204.764L151.048 159.26L161.476 127.028L133.352 121.782Z" fill="#27C278"/>
    <path d="M173.926 267.269C173.926 267.269 192.507 255.135 193.518 253.555C194.53 251.975 195.73 248.119 194.846 244.264C193.961 240.409 190.674 235.669 188.715 234.847C186.693 233.963 181.447 234.847 181.447 234.847L170.703 255.071L173.926 267.269Z" fill="url(#paint2_linear_6_2658)"/>
    <path d="M165.647 274.347L167.354 273.02C167.354 273.02 167.986 273.589 168.618 273.715C169.25 273.842 170.767 272.325 170.703 271.693C170.64 271.061 170.83 269.86 171.272 270.555C171.715 271.25 173.927 269.86 173.927 268.596C173.927 267.332 173.358 249.573 173.358 249.573L165.647 274.347Z" fill="#231E1C"/>
    <path d="M115.656 209.883L106.302 236.806L99.4137 256.651L96.7593 263.856L104.596 273.905L117.236 274.853L134.047 270.808L138.787 276.37L155.409 278.518L165.584 274.347C165.584 274.347 167.922 268.722 168.428 265.373C168.934 262.023 180.373 240.851 180.373 240.851C180.373 240.851 185.808 225.873 186.314 219.426C186.819 212.98 187.262 206.976 187.072 203.816C187.009 200.656 115.656 209.883 115.656 209.883Z" fill="#2E2826"/>
    <path d="M114.013 214.307L116.162 207.924L188.083 200.593L187.009 210.136L114.013 214.307Z" fill="#3D3532"/>
    <path d="M191.306 255.387C191.306 255.387 193.582 246.413 191.875 242.368C190.169 238.323 185.366 235.1 185.113 234.405C184.797 233.71 184.797 233.646 186.63 233.267C188.399 232.888 190.106 233.899 194.782 234.784C199.459 235.669 200.723 239.461 200.85 241.23C200.976 243 199.838 253.049 197.374 260.696C194.846 268.343 195.225 271.187 194.15 272.704C193.076 274.221 188.715 276.875 185.366 276.875C182.016 276.875 177.086 275.232 176.138 270.871C175.19 266.51 175.19 266.51 175.19 266.51L191.306 255.387Z" fill="#3D3532"/>
    <path d="M147.382 204.701L161.792 193.704L172.789 138.341L167.67 194.589L164.889 195.094L166.595 197.875L163.372 203.121L147.382 204.701Z" fill="#2B8F5F"/>
    <path d="M173.484 134.865L188.083 200.593L163.372 203.121L166.595 197.875L164.889 195.094L167.67 194.589L172.789 138.341L173.484 134.865Z" fill="#2B8F5F"/>
    <path d="M171.588 151.866L177.023 150.728L178.856 158.944L170.767 160.903L171.588 151.866Z" fill="#BEBEBF"/>
    <path d="M171.588 151.866L170.008 152.182L168.807 158.439L171.019 157.933L171.588 151.866Z" fill="#828282"/>
    <path d="M106.934 184.098L99.0344 162.23L97.96 155.152L96.9488 129.366C96.9488 129.366 91.7032 129.303 89.9336 131.199C88.164 133.095 88.5432 147.378 91.4504 157.49C94.3576 167.539 104.154 181.38 104.154 181.38L106.934 184.098Z" fill="#2E2826"/>
    <path d="M138.661 153.888L98.6553 159.702L99.0345 162.167L101.626 169.309L139.798 164.632L138.661 153.888Z" fill="white"/>
    <path d="M79.4426 97.64C79.3162 99.7888 79.4426 101.938 79.8218 104.023C79.8218 104.15 79.885 104.339 79.885 104.466C80.4538 106.994 80.6434 109.585 80.5802 112.239C79.3162 112.05 77.9258 111.481 76.4722 110.217C72.6802 106.994 72.4274 100.61 75.9034 98.3984C77.2306 97.5768 78.4314 97.4504 79.4426 97.64Z" fill="#A16552"/>
    <path d="M79.4426 97.64C79.3162 99.7888 79.4426 101.938 79.8218 104.023C79.8218 104.15 79.885 104.339 79.885 104.466C80.4538 106.994 80.6434 109.585 80.5802 112.239C79.3162 112.05 77.9258 111.481 76.4722 110.217C72.6802 106.994 72.4274 100.61 75.9034 98.3984C77.2306 97.5768 78.4314 97.4504 79.4426 97.64Z" fill="#F5DCB4"/>
    <path d="M137.776 97.8928C136.892 99.5992 135.88 100.674 134.806 101.306C133.732 98.9672 132.91 96.4392 132.404 93.9112C132.404 93.7848 132.341 93.5952 132.341 93.4688C131.899 91.3832 131.204 89.2976 130.192 87.4016C131.077 86.8328 132.215 86.5168 133.732 86.7696C137.776 87.4648 140.052 93.4688 137.776 97.8928Z" fill="#A16552"/>
    <path d="M137.776 97.8928C136.892 99.5992 135.88 100.674 134.806 101.306C133.732 98.9672 132.91 96.4392 132.404 93.9112C132.404 93.7848 132.341 93.5952 132.341 93.4688C131.899 91.3832 131.204 89.2976 130.192 87.4016C131.077 86.8328 132.215 86.5168 133.732 86.7696C137.776 87.4648 140.052 93.4688 137.776 97.8928Z" fill="#F5DCB4"/>
    <path d="M126.653 103.075C125.895 105.035 126.021 107.246 127.096 109.016C127.917 110.406 128.676 111.987 128.928 113.187C130.761 122.225 123.62 131.263 113.065 133.411C102.511 135.56 92.4619 129.935 90.6291 120.898C90.3763 119.634 90.5027 117.927 90.6923 116.347C90.9451 114.262 90.2499 112.176 88.7963 110.659C88.4171 110.28 88.1011 109.901 87.8483 109.522C86.9635 108.258 86.3316 106.867 86.0156 105.35C84.8148 99.3465 88.9227 93.4689 95.2427 92.2049C97.2651 91.7625 99.4139 91.8889 101.373 92.5209C103.712 93.2793 106.24 92.7737 108.072 91.1937C109.652 89.8665 111.548 88.9185 113.571 88.5393C119.891 87.2753 125.958 91.1305 127.159 97.1345C127.475 98.6513 127.412 100.168 127.096 101.685C126.969 102.127 126.843 102.57 126.653 103.075Z" fill="#A16552"/>
    <path d="M126.653 103.075C125.895 105.035 126.021 107.246 127.096 109.016C127.917 110.406 128.676 111.987 128.928 113.187C130.761 122.225 123.62 131.263 113.065 133.411C102.511 135.56 92.4619 129.935 90.6291 120.898C90.3763 119.634 90.5027 117.927 90.6923 116.347C90.9451 114.262 90.2499 112.176 88.7963 110.659C88.4171 110.28 88.1011 109.901 87.8483 109.522C86.9635 108.258 86.3316 106.867 86.0156 105.35C84.8148 99.3465 88.9227 93.4689 95.2427 92.2049C97.2651 91.7625 99.4139 91.8889 101.373 92.5209C103.712 93.2793 106.24 92.7737 108.072 91.1937C109.652 89.8665 111.548 88.9185 113.571 88.5393C119.891 87.2753 125.958 91.1305 127.159 97.1345C127.475 98.6513 127.412 100.168 127.096 101.685C126.969 102.127 126.843 102.57 126.653 103.075Z" fill="url(#paint3_linear_6_2658)"/>
    <path d="M100.425 121.024C99.7931 121.15 99.4139 121.719 99.5403 122.351C99.5403 122.414 99.5403 122.478 99.6035 122.478C101.247 127.218 106.619 129.998 112.18 128.924C117.742 127.85 121.597 123.11 121.281 118.18C121.218 117.548 120.712 117.106 120.08 117.169C120.017 117.169 119.954 117.169 119.954 117.169L100.425 121.024Z" fill="#4E3F3F"/>
    <path d="M105.481 128.355C109.842 129.999 114.708 128.987 118.058 125.827C116.731 123.236 114.329 124.374 111.359 125.006C108.388 125.574 105.734 125.448 105.481 128.355Z" fill="#E6646E"/>
    <path d="M134.616 84.4944C132.151 84.052 130.445 84.8737 129.371 85.8849C128.865 85.0633 128.359 84.2416 127.791 83.42C127.348 82.8512 126.906 82.2825 126.463 81.7137C121.723 76.0889 114.835 71.9809 107.693 71.0961L106.808 67.4937L103.016 70.9697C102.827 70.9697 102.637 70.9697 102.511 71.0329C102.195 71.0961 101.879 71.096 101.563 71.1592L100.362 68.5681L100.046 67.8097C99.8562 67.8729 99.6034 67.8729 99.4138 67.9361C95.4322 69.0737 94.1682 73.1185 93.9786 73.8137C87.7218 77.3529 82.9818 83.7993 80.7698 90.8777C80.5802 91.5729 80.3906 92.2681 80.201 92.9633C79.9482 93.9113 79.8218 94.8592 79.6954 95.8704C79.6322 95.8704 79.569 95.8073 79.5058 95.8073C78.1154 95.3649 76.2826 95.3648 74.3234 96.6288C69.8994 99.4096 70.2154 107.562 75.0818 111.67C77.041 113.314 78.937 114.072 80.6434 114.262C80.6434 114.325 80.6434 114.451 80.6434 114.514C80.6434 115.905 80.7698 117.232 81.0226 118.622C82.9186 127.976 91.3874 134.612 102.005 136.192C104.47 136.571 106.998 136.634 109.526 136.445C110.853 136.318 112.117 136.192 113.381 135.939C113.507 135.939 113.571 135.876 113.697 135.876C129.181 132.779 139.672 120.013 137.144 107.436C136.891 106.109 136.449 104.782 135.88 103.518C135.817 103.454 135.817 103.328 135.754 103.265C137.271 102.443 138.661 101.053 139.862 98.7144C142.643 92.9632 139.735 85.3792 134.616 84.4944ZM79.4426 97.64C79.3162 99.7888 79.4426 101.938 79.8218 104.023C79.8218 104.15 79.885 104.339 79.885 104.466C80.4538 106.994 80.6434 109.585 80.5802 112.239C79.3162 112.05 77.9258 111.481 76.4722 110.217C72.6802 106.994 72.4274 100.61 75.9034 98.3984C77.2306 97.5768 78.4314 97.4504 79.4426 97.64ZM127.095 101.622C126.969 102.127 126.843 102.57 126.653 103.075C125.895 105.034 126.021 107.246 127.095 109.016C127.917 110.406 128.675 111.986 128.928 113.187C130.761 122.225 123.619 131.262 113.065 133.411C102.511 135.56 92.4618 129.935 90.629 120.898C90.3762 119.634 90.5026 117.927 90.6922 116.347C90.945 114.262 90.2498 112.176 88.7962 110.659C88.417 110.28 88.101 109.901 87.8482 109.522C86.9634 108.258 86.3314 106.867 86.0154 105.35C84.8146 99.3464 88.9226 93.4688 95.2426 92.2048C97.265 91.7624 99.4138 91.8888 101.373 92.5208C103.711 93.2792 106.239 92.7737 108.072 91.1937C109.652 89.8665 111.548 88.9185 113.571 88.5393C119.891 87.2753 125.958 91.1304 127.159 97.1344C127.475 98.588 127.475 100.105 127.095 101.622ZM137.776 97.8928C136.891 99.5992 135.88 100.674 134.806 101.306C133.731 98.9673 132.91 96.4393 132.404 93.9113C132.404 93.7849 132.341 93.5952 132.341 93.4688C131.899 91.3832 131.203 89.2977 130.192 87.4017C131.077 86.8329 132.215 86.5169 133.731 86.7697C137.776 87.4649 140.051 93.4688 137.776 97.8928Z" fill="url(#paint4_linear_6_2658)"/>
    <path d="M103.774 111.86C103.901 111.354 104.406 111.038 104.912 111.165L107.25 111.734C107.756 111.86 108.072 112.366 107.946 112.871C107.819 113.377 107.314 113.693 106.808 113.566L104.47 112.998C103.964 112.871 103.648 112.366 103.774 111.86Z" fill="#4E3F3F"/>
    <path d="M109.842 112.429C109.526 111.986 109.652 111.418 110.031 111.102L111.99 109.711C112.433 109.395 113.002 109.522 113.318 109.901C113.634 110.343 113.507 110.912 113.128 111.228L111.169 112.618C110.726 112.998 110.158 112.871 109.842 112.429Z" fill="#4E3F3F"/>
    <path d="M97.5809 107.563C95.7481 107.942 94.0418 106.804 93.6626 105.098L93.4729 104.087C93.1569 102.38 94.2946 100.674 96.1274 100.295C97.9602 99.9153 99.6666 101.053 100.046 102.759L100.235 103.771C100.615 105.477 99.4137 107.183 97.5809 107.563Z" fill="#4E3F3F"/>
    <path d="M96.1274 100.294L96.8858 103.897C97.0754 104.782 97.9602 105.287 98.845 105.098C99.7298 104.908 100.362 104.086 100.172 103.202L100.046 102.696C99.7298 100.99 97.9602 99.9152 96.1274 100.294Z" fill="#5D5360"/>
    <path d="M96.7828 103.436C97.3987 103.312 97.8033 102.74 97.6864 102.159C97.5695 101.577 96.9754 101.206 96.3594 101.329C95.7435 101.453 95.3389 102.025 95.4558 102.607C95.5727 103.189 96.1668 103.56 96.7828 103.436Z" fill="white"/>
    <path d="M117.11 103.897C115.277 104.276 113.571 103.138 113.191 101.432L113.002 100.421C112.686 98.7145 113.823 97.0081 115.656 96.6289C117.489 96.2497 119.195 97.3873 119.575 99.0937L119.764 100.105C120.08 101.874 118.943 103.581 117.11 103.897Z" fill="#4E3F3F"/>
    <path d="M115.656 96.6921L116.415 100.294C116.604 101.179 117.489 101.685 118.374 101.495C119.259 101.306 119.891 100.484 119.701 99.5993L119.575 99.0937C119.195 97.3873 117.489 96.3129 115.656 96.6921Z" fill="#5D5360"/>
    <path d="M116.239 99.7791C116.855 99.6553 117.26 99.0834 117.143 98.5016C117.026 97.9199 116.432 97.5486 115.816 97.6724C115.2 97.7961 114.795 98.3681 114.912 98.9498C115.029 99.5316 115.623 99.9028 116.239 99.7791Z" fill="white"/>
    <path opacity="0.35" d="M100.299 68.5681C99.5403 68.6313 98.1499 70.1481 96.6331 72.4865C96.2539 73.0553 95.8747 73.7505 95.4955 74.4457C92.5883 79.6281 89.6179 87.4649 89.6179 94.9225C89.4915 107.436 91.3243 121.593 97.2651 128.418C102.321 134.233 109.336 136.382 109.336 136.382C106.808 136.571 104.343 136.508 101.815 136.129C91.2611 134.549 82.7291 127.913 80.8331 118.622C80.5803 117.295 80.4539 115.905 80.4539 114.514C80.4539 114.451 80.4539 114.325 80.4539 114.262C78.7475 114.072 76.9147 113.314 74.8923 111.67C70.0259 107.562 69.7731 99.4729 74.1339 96.6289C76.1563 95.3649 77.9259 95.3649 79.3163 95.8073C79.3795 95.8073 79.4427 95.8705 79.5059 95.8705C79.6323 94.9225 79.8219 93.9113 80.0115 92.9633C80.2011 92.2681 80.3907 91.5729 80.5803 90.8777C82.7923 83.8625 87.5323 77.4161 93.7891 73.8137C93.9787 73.1185 95.2427 69.0737 99.2243 67.9361C99.4139 67.8729 99.6667 67.8097 99.8563 67.8097L100.299 68.5681Z" fill="#4E3F3F"/>
    <path d="M134.11 270.808L132.594 263.161L146.371 227.706L139.798 224.988L134.11 230.423L135.058 242.81L126.59 263.161L125.199 272.957L134.11 270.808Z" fill="#231E1C"/>
    <path d="M102.321 270.934L104.596 273.905L117.299 274.853L125.199 272.957L126.21 265.942L114.266 267.016L106.492 262.529L102.321 270.934Z" fill="#231E1C"/>
    <path d="M113.508 236.301C113.508 236.301 111.359 238.07 108.957 238.702C106.556 239.334 104.912 239.018 104.154 239.587C103.459 240.156 106.935 242.494 106.935 242.494C106.935 242.494 112.939 238.829 113.318 237.818C113.697 236.806 113.508 236.301 113.508 236.301Z" fill="url(#paint5_linear_6_2658)"/>
    <path d="M74.5761 266.51C84.8729 266.51 93.2201 258.163 93.2201 247.866C93.2201 237.57 84.8729 229.222 74.5761 229.222C64.2793 229.222 55.9321 237.57 55.9321 247.866C55.9321 258.163 64.2793 266.51 74.5761 266.51Z" fill="#FCDD96"/>
    <path d="M74.5761 265.246C84.1399 265.246 91.8929 257.493 91.8929 247.93C91.8929 238.366 84.1399 230.613 74.5761 230.613C65.0123 230.613 57.2593 238.366 57.2593 247.93C57.2593 257.493 65.0123 265.246 74.5761 265.246Z" fill="#FAF4E6"/>
    <path d="M74.0706 250.458C74.0706 250.458 73.6282 248.562 70.6578 247.171C66.3602 245.212 65.7282 244.706 68.7618 244.327C71.7954 243.948 74.513 245.718 74.513 245.718" fill="#FFCA28"/>
    <path d="M69.5832 257.41L69.1408 256.209L66.8024 257.094C66.5496 257.157 66.4232 257.473 66.5496 257.662L66.676 257.978C66.7392 258.231 67.0552 258.358 67.2448 258.231L69.5832 257.41Z" fill="#AC752C"/>
    <path d="M69.5832 257.409L69.3936 256.841L66.6128 257.852L66.676 257.978C66.7392 258.231 67.0552 258.357 67.2448 258.231L69.5832 257.409Z" fill="#7D551F"/>
    <path d="M78.8737 250.268C78.3049 249.952 77.7361 249.699 77.1041 249.573C76.5353 249.383 75.9033 249.32 75.2713 249.194C74.7657 249.13 74.2601 248.941 73.6913 249.004C73.6913 249.067 73.6913 249.067 73.6281 249.13C73.6281 249.194 73.6281 249.194 73.5649 249.257C73.5649 249.32 73.5017 249.446 73.4385 249.51C73.4385 249.51 73.4385 249.51 73.4385 249.573C73.4385 249.636 73.4385 249.636 73.3753 249.699C73.3753 249.762 73.3121 249.762 73.3121 249.826C73.2489 249.889 73.2489 250.015 73.1857 250.078C73.0593 250.331 72.9329 250.584 72.8065 250.837C72.8065 250.9 72.7433 250.9 72.7433 250.963C72.6801 251.026 72.6801 251.09 72.6169 251.153C72.6169 251.216 72.5537 251.279 72.5537 251.279C72.5537 251.342 72.4905 251.406 72.4905 251.406C72.4273 251.469 72.4273 251.532 72.3641 251.595C72.3641 251.595 72.3641 251.658 72.3009 251.658L72.2377 251.722L72.1745 251.785C72.1113 251.848 72.1113 251.911 72.0481 251.974C71.9849 252.101 71.9217 252.164 71.8585 252.29C71.7953 252.354 71.7321 252.417 71.6689 252.543C71.6689 252.543 71.6689 252.543 71.6057 252.606C71.5425 252.67 71.4793 252.733 71.4793 252.796C71.4161 252.922 71.2897 252.986 71.2265 253.112C71.0369 253.302 70.8473 253.491 70.6577 253.681C70.3417 253.997 69.9625 254.376 69.5833 254.629C69.3937 254.755 69.2673 254.882 69.0777 255.008C69.0145 255.071 68.8881 255.134 68.8249 255.198C68.7617 255.261 68.6985 255.324 68.5721 255.324C68.4457 255.387 68.3825 255.45 68.2561 255.514C68.2561 255.514 68.2561 255.514 68.1929 255.577C68.1929 255.577 68.1929 255.577 68.1297 255.64C67.9401 255.893 67.7505 256.209 67.7505 256.525C67.7505 256.714 67.7505 256.967 67.8769 257.157C67.9401 257.283 68.0033 257.41 68.0665 257.473C68.1297 257.536 68.1929 257.599 68.2561 257.662C68.4457 257.852 68.7617 257.978 69.0777 258.042C69.7097 258.168 70.4681 257.978 70.9105 257.852C74.7025 256.714 77.6729 253.807 79.0633 250.142C79.0633 250.331 79.0001 250.268 78.8737 250.268Z" fill="#FFB300"/>
    <path d="M75.3343 249.194C74.8287 249.13 74.3231 248.941 73.7543 249.004C73.7543 249.067 73.7543 249.067 73.6911 249.13C73.6279 249.194 73.6911 249.194 73.6279 249.257C73.5647 249.32 73.6279 249.32 73.5647 249.383C73.5647 249.446 73.5015 249.51 73.5015 249.51C73.5015 249.51 73.5015 249.51 73.5015 249.573C73.5015 249.636 73.5015 249.636 73.4383 249.699C73.4383 249.762 73.3751 249.762 73.3751 249.826C73.3751 249.889 73.3119 249.889 73.3119 249.952C73.3119 250.015 73.2487 250.078 73.2487 250.078C73.1855 250.142 73.1855 250.268 73.1223 250.331C73.1223 250.331 73.1223 250.331 73.1223 250.394C73.1223 250.458 73.0591 250.458 73.0591 250.521C72.9959 250.584 72.9959 250.71 72.9327 250.774C72.9327 250.837 72.8695 250.837 72.8695 250.9C72.8695 250.963 72.8063 250.963 72.8063 251.026C72.7431 251.09 72.7431 251.153 72.6799 251.216C72.6799 251.279 72.6167 251.342 72.6167 251.342L72.5535 251.469C72.4903 251.532 72.4903 251.595 72.4271 251.658C72.4271 251.658 72.4271 251.722 72.3639 251.722L72.3007 251.785L72.2375 251.848C72.1743 251.911 72.1743 251.974 72.1111 252.038C72.0479 252.101 72.0479 252.164 71.9847 252.227C71.9847 252.29 71.9215 252.29 71.9215 252.354C71.8583 252.417 71.7951 252.48 71.7319 252.606C71.7319 252.606 71.7319 252.606 71.6687 252.67C71.6055 252.733 71.5423 252.796 71.5423 252.859C71.4791 252.922 71.4791 252.922 71.4159 252.986C71.3527 253.049 71.3527 253.112 71.2895 253.112C71.2263 253.175 71.1631 253.238 71.0999 253.302L70.9735 253.428C70.9103 253.491 70.7839 253.618 70.7207 253.681C70.6575 253.744 70.5943 253.807 70.5311 253.87C70.4679 253.934 70.3415 254.06 70.2783 254.123C70.2151 254.186 70.1519 254.25 70.0887 254.313C70.0255 254.376 69.8991 254.502 69.8359 254.566C69.7727 254.629 69.7095 254.692 69.6463 254.692C69.5199 254.755 69.4567 254.882 69.3303 254.945L69.2039 255.008C69.2039 255.008 69.1407 255.008 69.1407 255.071C69.0775 255.134 68.9511 255.198 68.8879 255.261C68.8247 255.324 68.7615 255.387 68.6351 255.387C68.5087 255.45 68.4455 255.514 68.3191 255.577C68.3191 255.577 68.3191 255.577 68.2559 255.64C68.2559 255.64 68.2559 255.64 68.1927 255.703C68.0031 255.956 67.8135 256.272 67.8135 256.588C67.8135 256.778 67.8135 257.03 67.9399 257.22C68.0031 257.346 68.0663 257.473 68.1295 257.536C69.2671 257.22 70.2783 256.778 71.2895 256.146C71.4159 256.082 71.5423 255.956 71.6687 255.893C73.9439 254.376 75.7135 252.164 76.5983 249.573C76.5983 249.51 76.6615 249.383 76.6615 249.32C76.2823 249.32 75.8399 249.257 75.3343 249.194Z" fill="#FFD54F"/>
    <path d="M79.3158 249.825L76.7246 249.699L73.6278 249.509C73.6278 249.509 73.6278 249.509 73.6278 249.446C73.6278 249.383 73.691 249.32 73.691 249.32C73.691 249.257 73.691 249.257 73.7542 249.193C73.8174 249.13 73.7542 249.13 73.8174 249.067C73.8806 248.941 73.8806 248.877 73.9438 248.751C73.9438 248.688 74.007 248.625 74.007 248.561C74.0702 248.435 74.0702 248.309 74.1334 248.182C74.1334 248.119 74.1334 248.119 74.1966 248.056C74.1966 248.056 74.1966 248.056 74.1966 247.993C74.1966 247.929 74.2598 247.803 74.2598 247.74C74.2598 247.677 74.323 247.55 74.323 247.487C74.323 247.361 74.3862 247.297 74.3862 247.171C74.3862 247.108 74.3862 246.981 74.4494 246.918C74.4494 246.855 74.4494 246.729 74.5126 246.665V246.602C74.5126 246.539 74.5126 246.476 74.5126 246.413C74.5126 246.349 74.5126 246.223 74.5126 246.16V246.097V246.033C74.5126 245.97 74.5126 245.907 74.5126 245.844C74.5126 245.781 74.5126 245.717 74.5126 245.717C74.5126 245.654 74.5126 245.591 74.5126 245.591V245.528V245.465C74.5126 245.465 74.5126 245.401 74.5126 245.338C74.5126 245.149 74.5126 244.896 74.5126 244.706C74.5126 244.58 74.5126 244.517 74.5126 244.39C74.5126 244.264 74.5126 244.074 74.5126 243.948V243.885C74.5126 243.885 74.5126 243.885 74.5126 243.821C74.5126 243.632 74.4494 243.442 74.4494 243.316C74.4494 243.253 74.4494 243.189 74.4494 243.126C74.4494 243.063 74.4494 243 74.4494 242.937C74.4494 242.873 74.4494 242.81 74.3862 242.747C74.3862 242.684 74.3862 242.684 74.3862 242.621C74.3862 242.557 74.3862 242.494 74.323 242.368C74.323 242.305 74.323 242.241 74.2598 242.178C74.2598 242.052 74.1966 241.925 74.1966 241.799C74.1966 241.736 74.1966 241.673 74.1334 241.609V241.546V241.483C74.1334 241.42 74.1334 241.42 74.0702 241.357C74.0702 241.293 74.0702 241.23 74.007 241.23C73.9438 241.041 73.8806 240.914 73.8174 240.725C73.7542 240.598 73.691 240.409 73.6278 240.282C73.375 239.65 72.743 238.197 72.5534 237.122C72.4902 236.617 72.4902 236.174 72.6798 235.921C72.6798 235.858 72.743 235.858 72.743 235.858C72.8062 235.858 72.8062 235.795 72.8694 235.795C73.1854 235.605 73.6278 235.605 73.9438 235.732C74.7022 235.858 75.3342 236.364 75.3974 236.427C79.3158 239.587 80.8958 244.959 79.3158 249.825Z" fill="#FFD770"/>
    <path d="M76.6618 249.699C77.9258 246.097 77.5466 241.925 75.2714 238.449C74.7026 237.628 74.0706 236.806 73.3122 236.111C73.1858 235.985 73.1226 235.921 72.9962 235.795C72.933 235.732 72.8698 235.669 72.8066 235.605C72.7434 235.605 72.7434 235.669 72.6802 235.669C72.617 235.669 72.617 235.732 72.617 235.732C72.4274 235.985 72.3642 236.427 72.4906 236.933C72.6802 238.007 73.3754 239.461 73.565 240.093C73.6282 240.219 73.6914 240.409 73.7546 240.535C73.8178 240.725 73.881 240.851 73.9442 241.041V241.104V241.23C73.9442 241.293 73.9442 241.293 74.0074 241.357V241.42V241.483C74.0074 241.546 74.0706 241.609 74.0706 241.673C74.0706 241.799 74.1338 241.925 74.1338 242.052C74.1338 242.115 74.1338 242.178 74.197 242.241C74.197 242.305 74.197 242.368 74.2602 242.494C74.2602 242.557 74.2602 242.557 74.2602 242.621C74.2602 242.684 74.2602 242.747 74.3234 242.81C74.3234 242.873 74.3234 242.937 74.3234 243C74.3234 243.063 74.3234 243.126 74.3234 243.189C74.3234 243.379 74.3866 243.569 74.3866 243.695C74.3866 243.695 74.3866 243.695 74.3866 243.758V243.821C74.3866 243.948 74.3866 244.137 74.3866 244.264C74.3866 244.39 74.3866 244.453 74.3866 244.58C74.3866 244.769 74.3866 245.022 74.3866 245.212C74.3866 245.275 74.3866 245.275 74.3866 245.338C74.3866 245.401 74.3866 245.401 74.3866 245.401V245.465C74.3866 245.528 74.3866 245.591 74.3866 245.591C74.3866 245.654 74.3866 245.717 74.3866 245.717C74.3866 245.781 74.3866 245.844 74.3866 245.907V245.97V246.033C74.3866 246.097 74.3866 246.223 74.3866 246.286C74.3866 246.349 74.3866 246.413 74.3866 246.476V246.539C74.3866 246.602 74.3866 246.729 74.3234 246.792C74.3234 246.855 74.3234 246.981 74.2602 247.045C74.2602 247.171 74.197 247.234 74.197 247.361C74.197 247.424 74.1338 247.55 74.1338 247.613C74.1338 247.677 74.0706 247.803 74.0706 247.866C74.0706 247.866 74.0706 247.866 74.0706 247.929C74.0706 247.993 74.0706 247.993 74.0074 248.056C73.9442 248.182 73.9442 248.309 73.881 248.435C73.881 248.498 73.8178 248.561 73.8178 248.625C73.7546 248.751 73.7546 248.814 73.6914 248.941C73.6914 249.004 73.6914 249.004 73.6282 249.067C73.6282 249.13 73.6282 249.13 73.565 249.193C73.565 249.257 73.5018 249.32 73.5018 249.32C73.5018 249.32 73.5018 249.32 73.5018 249.383L76.6618 249.699Z" fill="#FFEA8C"/>
    <path d="M73.5649 249.573C73.5649 249.573 76.4089 249.762 77.7361 250.521C79.8217 251.658 80.5801 251.974 81.0225 257.03C81.0225 257.22 81.0857 257.409 81.0857 257.599C81.2121 258.421 81.7177 260.506 83.4873 254.881C85.6361 248.119 79.8217 248.119 79.8217 248.119C77.6729 248.056 75.5241 248.625 73.5649 249.573Z" fill="#FFCA28"/>
    <path d="M93.7891 273.652C104.575 273.652 113.318 264.909 113.318 254.123C113.318 243.338 104.575 234.594 93.7891 234.594C83.0036 234.594 74.2603 243.338 74.2603 254.123C74.2603 264.909 83.0036 273.652 93.7891 273.652Z" fill="#FCDD96"/>
    <path fill-rule="evenodd" clip-rule="evenodd" d="M88.7329 236.933C98.2129 234.152 108.199 239.587 110.979 249.131C113.76 258.611 108.325 268.596 98.7817 271.377C89.3017 274.158 79.3161 268.723 76.5353 259.179C73.7545 249.636 79.2529 239.714 88.7329 236.933Z" fill="#F0B90B"/>
    <path d="M86.0153 256.399L87.3425 260.949L91.8929 262.087L92.6513 264.741L85.4465 262.908L83.3609 255.703L86.0153 256.399ZM84.6881 251.848L85.4465 254.503L82.7921 253.807L82.0337 251.153L83.8665 249.131L86.5209 249.826L84.6881 251.848ZM89.8073 248.941L91.6401 246.919L94.2945 247.614L92.3985 249.636L89.8073 248.941Z" fill="white"/>
    <path d="M88.733 259.559L87.9746 256.904L90.629 257.599L91.3874 260.254L88.733 259.559ZM93.789 262.592L96.4434 263.287L98.3394 261.265L99.0978 263.919L97.2018 265.942L94.5474 265.247L93.789 262.592ZM97.5178 246.666L99.3506 244.643L102.005 245.339L102.763 247.993L100.867 250.015L100.109 247.361L97.5178 246.666ZM102.827 256.462L101.499 251.911L103.332 249.889L105.418 257.094L100.362 262.466L99.6034 259.811L102.827 256.462Z" fill="white"/>
    <path d="M100.931 255.956L99.0978 257.915L98.3394 255.261L100.172 253.302L100.931 255.956Z" fill="white"/>
    <path d="M98.8448 248.751L99.6664 251.406L96.4432 254.819L97.7704 259.369L95.8744 261.328L93.22 260.696L91.8928 256.146L87.3424 255.008L86.584 252.354L88.48 250.331L93.0304 251.469L96.2536 248.056L98.8448 248.751ZM85.2568 247.803L90.3128 242.431L97.5176 244.264L95.6848 246.287L91.1344 245.149L87.9112 248.562L85.2568 247.803Z" fill="white"/>
    <path d="M114.266 235.227C114.266 235.227 113.128 237.123 111.675 238.007C110.221 238.892 106.05 242.495 104.533 244.454C103.016 246.476 103.143 249.763 102.132 251.406C101.12 253.049 97.2651 257.536 96.6331 258.737C95.9379 260.001 95.7483 261.265 96.3171 261.771C96.9491 262.339 96.1907 263.287 96.8227 263.983C97.4547 264.678 98.2763 264.804 99.2243 264.299C100.172 263.793 99.0979 265.183 100.994 265.183C102.89 265.183 104.217 264.046 104.596 264.804C104.976 265.563 104.786 266.827 108.768 263.603C112.749 260.38 115.909 259.116 117.742 253.618C119.638 248.056 123.62 247.551 123.62 247.551L114.266 235.227Z" fill="url(#paint6_linear_6_2658)"/>
    <path d="M140.62 205.459L144.475 191.682L142.959 147.884L148.52 135.307L161.413 127.028L173.484 134.865L176.897 196.485L156.167 224.735L122.924 249.067L113.191 234.468L140.62 205.459Z" fill="#27C278"/>
    <path d="M129.118 217.657L140.62 205.459L144.475 191.682L143.274 157.301L151.301 190.165L148.71 191.492L150.732 194.336L144.981 206.723L142.769 206.786L129.118 217.657Z" fill="#2B8F5F"/>
    <path d="M143.085 151.297L174.369 146.304L174.685 156.29L143.401 160.208L143.085 151.297Z" fill="white"/>
    <path d="M58.8393 243.442C58.8393 243.442 56.4377 242.937 55.1737 243.316C53.9097 243.695 51.9505 244.011 51.2553 247.55C50.5601 251.09 53.3409 256.651 53.9097 257.978C54.4785 259.306 57.0065 261.202 58.5233 260.886C60.0401 260.57 64.0217 259.369 65.0961 258.105C66.1705 256.841 65.0961 254.945 64.5273 254.882C63.9585 254.818 64.9697 254.25 64.9697 253.175C64.9697 252.101 64.0217 250.647 63.6425 250.647C63.3265 250.647 62.6945 250.268 62.9473 250.268C63.2001 250.268 63.4529 248.309 62.8209 247.487C62.1889 246.666 61.4305 246.666 61.4305 246.666C61.3673 246.602 61.3673 246.602 61.3673 246.602C61.3673 246.602 62.0625 246.286 61.9993 245.97C61.9993 245.528 62.5681 244.454 58.8393 243.442Z" fill="url(#paint7_linear_6_2658)"/>
    <path d="M154.777 125.764C154.777 125.764 142.832 143.081 143.148 153.446C143.464 163.81 144.159 182.581 144.159 182.581C144.159 182.581 139.419 169.119 138.661 158.438C137.903 147.694 140.178 126.143 141.252 123.236C142.074 122.351 143.211 122.541 144.539 122.794C145.866 123.046 154.524 124.69 154.524 124.69C154.524 124.69 155.093 125.258 154.777 125.764Z" fill="#2E2826"/>
    <path d="M271.318 23.2535H199.27C190.232 23.2535 182.901 30.5847 182.901 39.6223V70.4639C182.901 79.5015 190.232 86.8327 199.27 86.8327H271.318C280.355 86.8327 287.686 79.5015 287.686 70.4639V39.5591C287.686 30.5847 280.355 23.2535 271.318 23.2535ZM232.513 59.0879H221.642V70.2743H214.058V59.0879H203.188V52.0727H214.058V40.8863H221.642V52.0727H232.513V59.0879ZM263.67 72.0439C261.142 74.7615 257.603 76.0887 252.926 76.0887C248.566 76.0887 245.026 75.0143 242.435 72.8023C239.844 70.5903 238.327 67.7463 238.011 64.2071H245.848C246.164 65.7239 246.986 66.9879 248.186 67.8727C249.387 68.8207 250.967 69.2631 252.8 69.2631C255.075 69.2631 256.782 68.5679 257.919 67.1143C259.057 65.7239 259.626 63.8279 259.626 61.4895C259.626 59.0879 259.057 57.3183 257.856 56.0543C256.655 54.7903 254.949 54.1583 252.674 54.1583C251.03 54.1583 249.703 54.5375 248.629 55.3591C247.554 56.1807 246.796 57.2551 246.354 58.5823H238.643V33.9343H264.682V41.0127H246.038V50.8719C246.859 49.8607 247.997 49.0391 249.514 48.4071C251.03 47.7751 252.61 47.4591 254.317 47.4591C257.414 47.4591 259.878 48.1543 261.838 49.4815C263.797 50.8087 265.187 52.5151 266.072 54.6639C266.957 56.7495 267.399 58.9615 267.399 61.3631C267.399 65.7871 266.198 69.3263 263.67 72.0439Z" fill="#27C278"/>
    <path d="M158 289.768C158 289.768 137.713 276.938 127.221 276.875C116.73 276.812 105.67 268.786 100.993 268.533C100.993 268.533 92.4614 266.384 89.175 263.919C85.8886 261.454 69.0774 259.116 63.895 260.253C58.7126 261.391 57.1958 264.551 46.3254 267.269C35.455 269.986 33.1166 279.782 45.567 289.831C57.9542 299.88 98.5286 303.988 114.392 302.471C130.192 301.018 171.841 302.408 158 289.768Z" fill="#C2A981"/>
    <path d="M42.5337 268.217C44.8721 268.027 45.3777 267.079 50.5601 268.027C55.6793 268.975 58.1441 269.102 53.4041 272.262C48.6641 275.422 45.2513 277.002 43.3553 275.548C41.4593 274.094 36.2137 268.659 42.5337 268.217Z" fill="#B2956B"/>
    <path opacity="0.1" d="M40.6377 272.83C40.6377 272.83 42.2177 274.284 42.7233 274.726C43.2289 275.105 43.6081 275.548 44.8089 275.611C46.0097 275.674 48.1585 275.042 48.8537 274.663C49.4857 274.284 55.3001 270.871 55.3001 270.871C55.3001 270.871 53.8465 272.577 52.9617 273.273C52.0769 273.968 48.6009 275.99 47.5897 276.306C46.5785 276.622 45.5041 276.749 44.3033 276.559C43.1025 276.369 42.6601 275.737 42.4705 275.295C42.2809 274.853 40.6377 272.83 40.6377 272.83Z" fill="black"/>
    <path d="M137.902 284.649C138.282 284.143 138.218 283.448 139.735 283.701C141.252 283.954 141.821 284.017 141.947 284.649C142.01 285.218 142.263 286.229 141.378 286.355C140.494 286.482 138.724 286.292 138.345 285.976C137.902 285.66 137.713 284.902 137.902 284.649Z" fill="#B2956B"/>
    <path d="M128.928 287.177C129.434 286.734 130.382 285.091 132.594 285.534C134.806 285.976 135.311 286.166 135.248 286.987C135.185 287.809 135.564 289.326 134.49 289.578C133.478 289.894 130.634 291.095 129.939 290.842C129.244 290.463 127.285 288.567 128.928 287.177Z" fill="#B2956B"/>
    <path opacity="0.1" d="M137.839 285.091C137.839 284.965 138.155 285.723 138.534 285.787C138.913 285.913 139.609 286.103 140.241 286.039C140.873 286.039 141.252 285.787 141.505 285.787C141.757 285.787 141.884 285.787 141.884 285.787C141.947 285.787 141.947 286.039 141.821 286.229C141.694 286.419 141.505 286.482 141.125 286.608C140.746 286.735 140.051 286.545 139.735 286.545C139.419 286.545 138.661 286.355 138.218 286.166C137.902 286.039 137.776 285.281 137.839 285.091Z" fill="black"/>
    <path opacity="0.1" d="M128.359 288.883C128.359 288.883 128.928 289.452 129.307 289.578C129.687 289.705 129.623 289.389 130.319 289.578C131.014 289.768 130.571 290.084 131.456 290.021C132.404 289.958 133.921 289.578 134.237 289.452C134.553 289.326 135.122 288.946 135.248 288.504C135.311 288.062 135.311 289.073 135.185 289.389C135.059 289.705 133.984 289.958 133.731 290.084C133.415 290.274 131.709 290.716 131.33 290.906C130.951 291.095 129.939 291.032 129.56 290.906C129.244 290.779 128.486 289.578 128.423 289.326C128.423 289.01 128.359 288.883 128.359 288.883Z" fill="black"/>
    <path opacity="0.1" d="M110.41 287.366C101.752 281.805 105.481 278.076 95.4319 275.358C85.3831 272.641 83.2343 284.143 69.5831 284.396C56.8167 284.649 41.5855 283.764 39.6895 283.638C41.0799 285.66 42.9759 287.682 45.5671 289.768C58.2703 301.523 78.4311 304.114 118.31 304.683C123.05 304.746 127.98 304.746 132.973 304.62C131.772 303.672 118.626 292.675 110.41 287.366Z" fill="#6B5C5C"/>
    <defs>
        <radialGradient id="paint0_radial_6_2658" cx="0" cy="0" r="1" gradientUnits="userSpaceOnUse" gradientTransform="translate(118.857 76.8552) scale(181.389 181.389)">
            <stop offset="0.1429" stop-color="#92594B"/>
            <stop offset="0.2417" stop-color="#91584A"/>
            <stop offset="0.2571" stop-color="#905749"/>
            <stop offset="0.5513" stop-color="#814C3F"/>
            <stop offset="0.7934" stop-color="#7C483C"/>
        </radialGradient>
        <linearGradient id="paint1_linear_6_2658" x1="119.653" y1="161.624" x2="119.564" y2="135.937" gradientUnits="userSpaceOnUse">
            <stop stop-color="#E7BC91"/>
            <stop offset="0.3993" stop-color="#F3D5B5"/>
            <stop offset="0.6602" stop-color="#F5DCB4"/>
            <stop offset="0.7034" stop-color="#F4DAB2"/>
            <stop offset="1" stop-color="#EFD3AB"/>
        </linearGradient>
        <linearGradient id="paint2_linear_6_2658" x1="175.095" y1="242.311" x2="188.71" y2="260.214" gradientUnits="userSpaceOnUse">
            <stop offset="0.1204" stop-color="#935848"/>
            <stop offset="0.504" stop-color="#935848"/>
            <stop offset="0.6028" stop-color="#9C604E"/>
            <stop offset="0.7268" stop-color="#A16552"/>
            <stop offset="1" stop-color="#966444"/>
        </linearGradient>
        <linearGradient id="paint3_linear_6_2658" x1="89.2544" y1="117.042" x2="129.614" y2="105.575" gradientUnits="userSpaceOnUse">
            <stop stop-color="#E7BC91"/>
            <stop offset="0.3993" stop-color="#F3D5B5"/>
            <stop offset="0.6602" stop-color="#F5DCB4"/>
            <stop offset="0.7034" stop-color="#F4DAB2"/>
            <stop offset="1" stop-color="#EFD3AB"/>
        </linearGradient>
        <linearGradient id="paint4_linear_6_2658" x1="73.4953" y1="112.385" x2="140.638" y2="91.1912" gradientUnits="userSpaceOnUse">
            <stop stop-color="#A16552"/>
            <stop offset="0.201" stop-color="#935848"/>
            <stop offset="0.504" stop-color="#935848"/>
            <stop offset="0.6028" stop-color="#9C604E"/>
            <stop offset="0.7268" stop-color="#A16552"/>
            <stop offset="1" stop-color="#966444"/>
        </linearGradient>
        <linearGradient id="paint5_linear_6_2658" x1="120.127" y1="236.054" x2="69.6855" y2="253.028" gradientUnits="userSpaceOnUse">
            <stop offset="0.1204" stop-color="#935848"/>
            <stop offset="0.504" stop-color="#935848"/>
            <stop offset="0.6028" stop-color="#9C604E"/>
            <stop offset="0.7268" stop-color="#A16552"/>
            <stop offset="1" stop-color="#966444"/>
        </linearGradient>
        <linearGradient id="paint6_linear_6_2658" x1="136.078" y1="223.822" x2="98.0281" y2="263.833" gradientUnits="userSpaceOnUse">
            <stop offset="0.1204" stop-color="#935848"/>
            <stop offset="0.504" stop-color="#935848"/>
            <stop offset="0.6028" stop-color="#9C604E"/>
            <stop offset="0.7268" stop-color="#A16552"/>
            <stop offset="1" stop-color="#966444"/>
        </linearGradient>
        <linearGradient id="paint7_linear_6_2658" x1="68.5096" y1="266.785" x2="39.1064" y2="224.519" gradientUnits="userSpaceOnUse">
            <stop offset="0.1204" stop-color="#935848"/>
            <stop offset="0.504" stop-color="#935848"/>
            <stop offset="0.6028" stop-color="#9C604E"/>
            <stop offset="0.7268" stop-color="#A16552"/>
            <stop offset="1" stop-color="#966444"/>
        </linearGradient>
    </defs>
</svg>
