<svg width="226" height="217" viewBox="0 0 226 217" fill="none" xmlns="http://www.w3.org/2000/svg">
    <path d="M114.368 34.0023C28.5756 33.536 35.4048 103.364 49.5434 138.336C57.5464 153.782 75.153 154.802 99.162 110.504C123.171 66.2059 124.772 144.456 171.989 96.9523C219.207 49.4484 221.608 34.5852 114.368 34.0023Z" fill="#383838"/>
    <path d="M93.609 213.615C64.5454 213.208 50.1718 211.31 41.0866 202.451C32.0014 193.592 36.431 190.97 47.7762 185.998C59.0762 181.026 77.789 172.167 102.242 171.67C126.695 171.172 150.697 174.382 154.087 174.879C157.477 175.376 177.093 180.71 180.438 194.315C183.783 207.965 130.628 214.158 93.609 213.615Z" fill="#938982"/>
    <path d="M156.121 188.484C157.477 181.207 158.019 176.913 154.042 174.924C151.51 174.563 137.272 172.619 119.916 171.896C115.712 171.76 111.554 171.67 107.802 171.625C105.949 171.625 104.05 171.625 102.197 171.67C98.6264 171.851 88.0044 172.574 81.2696 176.235C72.8624 180.755 68.252 189.885 61.9692 192.914C57.178 195.264 44.296 197.524 41.584 202.948C50.6692 211.355 65.088 213.209 93.6092 213.615C117.204 213.932 147.352 211.581 165.206 206.248C167.195 201.23 154.674 196.304 156.121 188.484Z" fill="#C2A981"/>
    <path opacity="0.1" d="M96.3212 178.676C96.3212 178.676 88.0948 178.63 84.524 182.879C80.9984 187.128 78.0604 188.62 79.4616 193.546C80.8628 198.473 95.9144 201.999 111.689 199.377C127.464 196.756 132.3 198.066 138.448 192.552C144.595 187.038 142.335 183.15 139.894 181.84C137.498 180.529 130.809 179.082 123.125 179.534C115.441 179.986 96.3212 178.676 96.3212 178.676Z" fill="black"/>
    <path d="M104.502 120.955L110.74 118.017C110.74 118.017 106.807 105.994 105.044 111.418C103.236 116.797 104.502 120.955 104.502 120.955Z" fill="#231E1C"/>
    <path d="M159.149 60.3873C159.059 59.0765 158.742 57.7657 158.2 56.3645C157.748 55.0989 156.347 54.4661 155.081 54.9633C153.816 55.4153 153.183 56.8165 153.68 58.0821C154.9 61.3365 154.448 63.6869 152.234 65.9469C150.019 68.2521 146.312 70.0601 142.787 71.7777C137.498 74.3541 132.526 76.7949 131.035 81.1793C130.312 83.3489 130.538 85.6541 131.758 88.1401C133.611 91.8465 134.606 95.7337 134.651 99.3497C134.696 102.83 133.837 105.723 132.21 107.757C129.001 111.734 123.577 111.373 119.554 110.378C118.243 110.062 116.932 110.83 116.616 112.141C116.3 113.452 117.068 114.763 118.379 115.079C122.266 116.028 125.746 116.164 128.775 115.396C131.713 114.627 134.154 113.136 135.962 110.83C138.312 107.892 139.532 103.915 139.487 99.3497C139.442 95.0105 138.267 90.4001 136.097 86.0609C135.464 84.7953 135.284 83.7105 135.6 82.8065C136.459 80.3657 140.753 78.2413 144.866 76.2073C148.798 74.2637 152.866 72.2749 155.669 69.3821C158.245 66.7153 159.375 63.7321 159.149 60.3873Z" fill="#9F6552"/>
    <g opacity="0.35">
        <path opacity="0.35" d="M117.068 114.175C120.413 114.853 123.984 115.079 126.65 114.401C129.588 113.633 132.029 112.141 133.837 109.836C136.188 106.898 137.408 102.92 137.363 98.355C137.318 94.0158 136.142 89.4054 133.973 85.0662C133.34 83.8006 133.159 82.7158 133.476 81.8118C134.334 79.371 138.041 77.0206 142.199 74.9866C146.132 73.043 150.2 71.0542 153.002 68.1614C155.533 65.5398 156.663 62.5566 156.437 59.2118C156.347 57.901 156.03 56.5902 155.488 55.189C155.443 55.0534 155.398 54.963 155.307 54.8274C156.121 54.6466 156.934 54.8726 157.522 55.415C156.889 54.8274 155.895 54.6014 155.036 54.9178C153.77 55.3698 153.138 56.771 153.635 58.0366C154.855 61.291 154.403 63.6414 152.188 65.9014C149.974 68.2066 146.267 70.0146 142.742 71.7322C137.453 74.3086 132.481 76.7494 130.99 81.1338C130.266 83.3034 130.492 85.6086 131.713 88.0946C133.566 91.801 134.56 95.6882 134.606 99.3042C134.651 102.785 133.792 105.677 132.165 107.711C128.956 111.689 123.532 111.327 119.509 110.333C118.198 110.017 116.887 110.785 116.571 112.096C116.3 113.271 116.887 114.446 117.927 114.898C117.656 114.717 117.339 114.491 117.068 114.175Z" fill="#4E3F3F"/>
        <path opacity="0.35" d="M158.019 55.9575C158.064 56.0027 158.064 56.0931 158.109 56.1383C158.064 56.0931 158.064 56.0479 158.019 55.9575Z" fill="#4E3F3F"/>
        <path opacity="0.35" d="M158.109 56.1833C158.155 56.2285 158.155 56.3189 158.2 56.3641C158.2 56.3189 158.155 56.2285 158.109 56.1833Z" fill="#4E3F3F"/>
        <path opacity="0.35" d="M157.884 55.7766C157.929 55.8218 157.974 55.867 157.974 55.9574C157.974 55.9122 157.929 55.867 157.884 55.7766Z" fill="#4E3F3F"/>
        <path opacity="0.35" d="M118.379 115.034C118.334 115.034 118.243 114.989 118.198 114.989C118.289 114.989 118.334 114.989 118.379 115.034Z" fill="#4E3F3F"/>
        <path opacity="0.35" d="M118.198 114.943C118.153 114.943 118.062 114.898 118.017 114.898C118.062 114.898 118.107 114.943 118.198 114.943Z" fill="#4E3F3F"/>
        <path opacity="0.35" d="M157.748 55.5957C157.793 55.6409 157.838 55.6861 157.884 55.7313C157.838 55.7313 157.793 55.6861 157.748 55.5957Z" fill="#4E3F3F"/>
        <path opacity="0.35" d="M157.612 55.4602C157.658 55.5054 157.703 55.5506 157.748 55.5958C157.703 55.5506 157.658 55.5054 157.612 55.4602Z" fill="#4E3F3F"/>
    </g>
    <path d="M132.752 53.4264C132.752 53.4264 136.458 54.692 136.91 54.1948C137.362 53.6976 138.266 41.81 137.317 40.906C136.323 40.002 97.8576 36.2504 95.1908 38.42C93.6088 38.9624 94.1964 48.0928 94.4676 48.4092C94.7388 48.7256 132.752 53.4264 132.752 53.4264Z" fill="#3D3532"/>
    <path d="M139.125 56.1836C139.125 56.274 137.182 101.655 132.752 104.05C128.322 106.491 86.9644 101.022 85.6536 94.694C84.3428 88.366 90.8064 51.7088 92.6144 49.5844C94.3772 47.5052 139.351 51.4376 139.125 56.1836Z" fill="#2E2826"/>
    <path d="M124.345 100.57H131.848C131.848 100.57 131.261 116.39 130.447 118.243C129.634 120.096 126.831 121.362 126.831 121.362L123.08 101.655L124.345 100.57Z" fill="#231E1C"/>
    <path d="M131.08 160.098L132.255 175.692L123.938 175.331L120.684 160.098H131.08Z" fill="url(#paint0_linear_6_2658)"/>
    <path d="M104.05 158.471C104.005 158.607 104.05 176.144 104.05 176.144L96.2306 175.376L93.835 157.793L104.05 158.471Z" fill="url(#paint1_linear_6_2658)"/>
    <path d="M122.582 98.2648L125.204 111.147C125.204 111.147 130.311 139.578 131.08 141.386C131.848 143.194 133.249 147.668 133.294 149.07C133.34 150.471 131.577 153.454 131.577 153.454C131.577 153.454 119.056 153.499 118.333 153.138C117.61 152.776 115.712 151.194 115.26 150.606C114.808 150.019 107.621 113.904 107.621 113.904L104.773 113L104.321 115.079C104.321 115.079 105.406 144.55 106.355 147.036C106.4 148.482 104.412 151.646 104.412 151.646C104.412 151.646 93.6993 151.194 93.1117 150.923C92.5241 150.652 91.5297 148.527 91.6201 147.804C91.6653 147.081 89.8121 110.785 89.9929 105.406C90.1737 100.028 91.9365 96.4116 91.9365 96.4116L122.582 98.2648Z" fill="#2E2826"/>
    <path d="M124.39 99.8015C124.39 99.8015 118.469 104.141 118.469 104.457C118.469 104.774 124.842 111.147 124.842 111.147L128.594 104.819L124.39 99.8015Z" fill="url(#paint2_linear_6_2658)"/>
    <path d="M91.3488 98.2646L95.3716 101.7L90.2188 108.163L88.5464 102.649L91.3488 98.2646Z" fill="url(#paint3_linear_6_2658)"/>
    <path d="M133.701 50.9403C133.249 50.3527 124.255 48.4091 124.255 48.4091L105.09 45.9231C105.09 45.9231 93.3378 47.3695 92.7502 48.1379C92.1626 48.9063 80.6366 80.5463 80.4106 83.4843C80.2298 86.4223 88.6822 103.643 88.6822 103.643L91.3038 98.2647C91.9818 98.2647 114.085 103.734 123.486 99.0331C123.305 97.0895 124.616 78.8287 124.616 78.8287L125.837 77.1111L132.888 82.5351L123.577 99.8015L128.684 105.497C128.684 105.497 142.922 95.0103 145.001 89.2699C147.081 83.4843 134.199 51.5279 133.701 50.9403ZM92.3886 88.4563L90.8066 82.8063L92.8858 79.0999L93.609 77.2015L92.3886 88.4563Z" fill="#27C278"/>
    <path d="M90.8067 82.8063L92.8859 79.0999L93.5187 77.3823C93.5639 76.8851 93.6091 76.5687 93.6091 76.4783C93.6091 75.8455 92.4791 66.3535 92.4791 66.3535C92.4791 66.3535 87.2359 74.7155 87.0099 75.4839C86.8291 76.2523 87.6427 77.0659 87.6427 77.4275C87.6427 77.7439 81.1791 79.5971 82.2187 80.2751C83.2583 80.9079 85.1567 80.0039 85.0211 80.2299C84.8855 80.4107 82.7159 83.4843 82.7159 83.7555C82.7159 84.0267 84.5239 83.7555 84.5239 83.7555L91.2587 98.2647C91.2587 98.2647 91.7559 93.5187 92.2983 88.4563L90.8067 82.8063Z" fill="#2B8F5F"/>
    <path d="M91.6203 95.1008L123.396 100.525L118.831 104.05C118.831 104.05 91.3039 98.762 91.3943 98.2196C91.4395 97.6772 91.6203 95.1008 91.6203 95.1008Z" fill="#3D3532"/>
    <path d="M94.1062 58.0819L89.7218 56.0027L87.5522 61.6075L91.9818 64.0483L94.1062 58.0819Z" fill="white"/>
    <path d="M125.249 61.1555L136.459 57.6299C136.459 57.6299 138.221 62.1047 138.267 62.2855C138.312 62.5115 126.695 65.9919 126.695 65.9919L125.249 61.1555Z" fill="white"/>
    <path d="M123.802 60.8842C123.802 60.8842 95.8236 58.127 95.2812 58.3078C94.7388 58.4886 94.4224 62.9182 94.4224 62.9182L123.531 65.5398L123.802 60.8842Z" fill="white"/>
    <path d="M126.108 79.2355C126.108 79.4163 131.487 81.4955 131.396 82.3543C131.306 83.2131 124.662 97.7675 124.662 97.7675L136.64 83.4391L134.696 81.6311L137.318 80.5011L126.741 67.0767L126.108 79.2355Z" fill="#2B8F5F"/>
    <path d="M127.373 82.8517C127.373 82.8517 127.012 75.5292 127.373 66.9864C127.735 58.4436 131.758 49.7201 131.396 49.3133C130.989 48.9065 124.345 47.8217 123.622 48.1833C122.899 48.5449 121.271 69.9696 122.582 76.1168C123.893 82.264 127.102 84.2981 127.373 82.8517Z" fill="#2E2826"/>
    <path d="M100.389 46.3298C100.389 46.3298 94.6035 79.597 93.3379 79.7778C92.1175 79.9586 89.5411 60.5226 93.3379 47.3694C94.0159 46.827 100.389 46.3298 100.389 46.3298Z" fill="#2E2826"/>
    <path d="M95.7332 100.932C95.7332 100.932 89.9928 108.028 89.8572 108.39C89.7216 108.751 90.264 110.378 90.264 110.378C90.264 110.378 97.4056 102.875 97.3604 102.468C97.3604 102.062 95.7332 100.932 95.7332 100.932Z" fill="#231E1C"/>
    <path d="M133.069 174.156H123.125C123.125 174.156 123.667 179.037 123.667 179.489C123.667 179.941 121.543 186.631 122.311 186.902C130.628 190.066 137.86 187.625 137.86 186.902C137.86 186.179 133.249 178.766 133.249 178.766L133.069 174.156Z" fill="#3D3532"/>
    <path d="M104.819 174.156L104.457 179.534C104.457 179.534 105.858 185.953 105.271 186.224C102.152 187.806 87.1456 186.721 87.01 186.224C86.9196 185.727 95.9144 178.676 95.9144 178.676L95.4624 173.432L104.819 174.156Z" fill="#3D3532"/>
    <path d="M105.09 45.9231C105.09 45.9231 103.779 56.7259 109.971 56.9519C116.118 57.1779 121.045 48.0023 121.045 48.0023L105.09 45.9231Z" fill="url(#paint4_linear_6_2658)"/>
    <path d="M119.644 39.55L110.288 38.0583L105.903 46.0136L119.644 47.8216V39.55Z" fill="url(#paint5_radial_6_2658)"/>
    <path d="M101.474 23.5038C101.067 24.4982 100.841 25.5378 100.705 26.6226C100.705 26.713 100.705 26.7582 100.66 26.8486C100.524 28.1594 100.253 29.425 99.8012 30.6454C99.2136 30.3742 98.6712 29.877 98.174 29.0634C96.818 26.939 97.6768 23.8654 99.6656 23.323C100.434 23.1422 101.022 23.2778 101.474 23.5038Z" fill="#A16552"/>
    <path d="M101.474 23.5038C101.067 24.4982 100.841 25.5378 100.705 26.6226C100.705 26.713 100.705 26.7582 100.66 26.8486C100.524 28.1594 100.253 29.425 99.8012 30.6454C99.2136 30.3742 98.6712 29.877 98.174 29.0634C96.818 26.939 97.6768 23.8654 99.6656 23.323C100.434 23.1422 101.022 23.2778 101.474 23.5038Z" fill="#F5DCB4"/>
    <path d="M129.317 32.4084C128.639 33.0864 128.006 33.448 127.373 33.5836C127.238 32.2728 127.192 31.0072 127.373 29.6964C127.373 29.606 127.373 29.5608 127.418 29.4704C127.509 28.3856 127.509 27.3008 127.328 26.2612C127.825 26.1256 128.413 26.1256 129.136 26.4872C130.854 27.4364 131.034 30.6456 129.317 32.4084Z" fill="#A16552"/>
    <path d="M129.317 32.4084C128.639 33.0864 128.006 33.448 127.373 33.5836C127.238 32.2728 127.192 31.0072 127.373 29.6964C127.373 29.606 127.373 29.5608 127.418 29.4704C127.509 28.3856 127.509 27.3008 127.328 26.2612C127.825 26.1256 128.413 26.1256 129.136 26.4872C130.854 27.4364 131.034 30.6456 129.317 32.4084Z" fill="#F5DCB4"/>
    <path d="M123.215 33.2219C122.582 34.0355 122.265 35.1203 122.537 36.1599C122.717 36.9283 122.853 37.7871 122.763 38.4199C122.265 43.0303 117.519 46.2847 112.141 45.6971C106.762 45.1095 102.829 40.9059 103.327 36.3407C103.417 35.7079 103.733 34.8943 104.05 34.1711C104.502 33.2219 104.457 32.0919 104.005 31.1879C103.914 30.9619 103.779 30.7359 103.733 30.5099C103.507 29.7867 103.417 29.0183 103.507 28.2499C103.824 25.2215 106.717 23.0067 109.926 23.3683C110.965 23.4587 111.96 23.8655 112.819 24.4531C113.813 25.1763 115.124 25.3119 116.209 24.8147C117.158 24.4079 118.197 24.2271 119.237 24.3627C122.446 24.7243 124.751 27.4815 124.435 30.5099C124.345 31.2783 124.119 32.0015 123.712 32.6795C123.531 32.8151 123.35 32.9959 123.215 33.2219Z" fill="#A16552"/>
    <path d="M123.215 33.2219C122.582 34.0355 122.265 35.1203 122.537 36.1599C122.717 36.9283 122.853 37.7871 122.763 38.4199C122.265 43.0303 117.519 46.2847 112.141 45.6971C106.762 45.1095 102.829 40.9059 103.327 36.3407C103.417 35.7079 103.733 34.8943 104.05 34.1711C104.502 33.2219 104.457 32.0919 104.005 31.1879C103.914 30.9619 103.779 30.7359 103.733 30.5099C103.507 29.7867 103.417 29.0183 103.507 28.2499C103.824 25.2215 106.717 23.0067 109.926 23.3683C110.965 23.4587 111.96 23.8655 112.819 24.4531C113.813 25.1763 115.124 25.3119 116.209 24.8147C117.158 24.4079 118.197 24.2271 119.237 24.3627C122.446 24.7243 124.751 27.4815 124.435 30.5099C124.345 31.2783 124.119 32.0015 123.712 32.6795C123.531 32.8151 123.35 32.9959 123.215 33.2219Z" fill="url(#paint6_linear_6_2658)"/>
    <path d="M107.982 37.8324C107.666 37.7872 107.395 38.0132 107.35 38.3296C107.35 38.3748 107.35 38.3748 107.35 38.42C107.44 40.906 109.564 43.0756 112.367 43.392C115.214 43.7084 117.746 42.036 118.333 39.6404C118.424 39.324 118.198 39.0528 117.926 38.9624C117.881 38.9624 117.881 38.9624 117.836 38.9624L107.982 37.8324Z" fill="#4E3F3F"/>
    <path d="M109.293 42.1264C111.101 43.5728 113.587 43.844 115.711 42.8044C115.44 41.358 114.129 41.5388 112.638 41.4032C111.146 41.2676 109.835 40.7704 109.293 42.1264Z" fill="#E6646E"/>
    <path d="M129.814 25.5379C128.729 24.9503 127.78 25.0859 127.102 25.4023C127.012 24.9051 126.876 24.4531 126.695 24.0011C126.56 23.6395 126.469 23.3231 126.334 23.0067C124.932 19.5715 122.266 16.5883 118.966 15.0967L119.102 13.2435L116.751 14.3283C116.661 14.3283 116.57 14.2831 116.48 14.2831C116.299 14.2379 116.164 14.2379 115.983 14.1927L115.802 12.7915L115.757 12.3847C115.666 12.3847 115.531 12.3847 115.44 12.3847C113.361 12.3395 112.141 14.0571 111.96 14.3735C108.434 15.1419 105.18 17.4923 103.101 20.5207C102.875 20.8371 102.694 21.1083 102.513 21.4247C102.242 21.8315 102.016 22.2835 101.835 22.7355C101.79 22.7355 101.79 22.6903 101.745 22.6903C101.157 22.2835 100.298 21.9671 99.1232 22.2835C96.592 22.9615 95.5072 26.8939 97.2248 29.5607C97.9028 30.6455 98.7164 31.3235 99.4848 31.6399C99.4848 31.6851 99.4396 31.7303 99.4396 31.7755C99.2136 32.4083 99.078 33.0863 98.9876 33.7643C98.4904 38.5103 101.519 42.9851 106.355 45.2903C107.485 45.8327 108.66 46.2395 109.881 46.5559C110.514 46.6915 111.146 46.8271 111.824 46.8723C111.87 46.8723 111.915 46.8723 111.96 46.8723C119.825 47.7311 126.786 43.2111 127.464 36.7927C127.554 36.1147 127.554 35.4367 127.464 34.7135C127.464 34.6683 127.464 34.6231 127.464 34.5779C128.322 34.3971 129.181 33.9451 130.13 33.0411C132.345 30.7811 132.119 26.7583 129.814 25.5379ZM101.474 23.5039C101.067 24.4983 100.841 25.5379 100.705 26.6227C100.705 26.7131 100.705 26.7583 100.66 26.8487C100.524 28.1595 100.253 29.4251 99.8012 30.6455C99.2136 30.3743 98.6712 29.8771 98.174 29.0635C96.818 26.9391 97.6768 23.8655 99.6656 23.3231C100.434 23.1423 101.022 23.2779 101.474 23.5039ZM123.622 32.5891C123.486 32.8151 123.35 32.9959 123.17 33.2219C122.537 34.0355 122.22 35.1203 122.492 36.1599C122.672 36.9283 122.808 37.7871 122.718 38.4199C122.22 43.0303 117.474 46.2847 112.096 45.6971C106.717 45.1095 102.784 40.9059 103.282 36.3407C103.372 35.7079 103.688 34.8943 104.005 34.1711C104.457 33.2219 104.412 32.0919 103.96 31.1879C103.869 30.9619 103.734 30.7359 103.688 30.5099C103.462 29.7867 103.372 29.0183 103.462 28.2499C103.779 25.2215 106.672 23.0067 109.881 23.3683C110.92 23.4587 111.915 23.8655 112.774 24.4531C113.768 25.1763 115.079 25.3119 116.164 24.8147C117.113 24.4079 118.152 24.2271 119.192 24.3627C122.401 24.7243 124.706 27.4815 124.39 30.5099C124.3 31.1879 124.028 31.9111 123.622 32.5891ZM129.317 32.4083C128.639 33.0863 128.006 33.4479 127.373 33.5835C127.238 32.2727 127.192 31.0071 127.373 29.6963C127.373 29.6059 127.373 29.5607 127.418 29.4703C127.509 28.3855 127.509 27.3007 127.328 26.2611C127.825 26.1255 128.413 26.1255 129.136 26.4871C130.854 27.4363 131.034 30.6455 129.317 32.4083Z" fill="url(#paint7_linear_6_2658)"/>
    <path d="M110.966 33.9904C111.101 33.7644 111.372 33.674 111.598 33.8096L112.638 34.4424C112.864 34.578 112.954 34.8492 112.819 35.0752C112.683 35.3012 112.412 35.3916 112.186 35.256L111.146 34.6232C110.875 34.4876 110.83 34.1712 110.966 33.9904Z" fill="#4E3F3F"/>
    <path d="M113.768 35.1656C113.678 34.9396 113.813 34.6684 114.085 34.578L115.215 34.2164C115.441 34.126 115.712 34.2616 115.802 34.5328C115.893 34.7588 115.757 35.03 115.486 35.1204L114.356 35.482C114.13 35.5272 113.859 35.3916 113.768 35.1656Z" fill="#4E3F3F"/>
    <path d="M108.66 30.9618C107.756 30.8714 107.078 30.0578 107.169 29.199L107.214 28.6566C107.304 27.7978 108.118 27.165 109.067 27.2554C109.971 27.3458 110.649 28.1594 110.559 29.0182L110.514 29.5606C110.423 30.4646 109.564 31.0522 108.66 30.9618Z" fill="#4E3F3F"/>
    <path d="M109.067 27.3008L108.887 29.154C108.841 29.606 109.158 29.9676 109.655 30.0128C110.107 30.058 110.514 29.7416 110.559 29.3348L110.604 29.0636C110.649 28.1596 109.971 27.3912 109.067 27.3008Z" fill="#5D5360"/>
    <path d="M109.478 28.4183C109.511 28.1205 109.295 27.8531 108.997 27.8209C108.7 27.7888 108.432 28.0042 108.4 28.3021C108.368 28.5999 108.583 28.8673 108.881 28.8995C109.179 28.9316 109.446 28.7162 109.478 28.4183Z" fill="white"/>
    <path d="M118.514 32.1823C117.61 32.0919 116.932 31.2783 117.022 30.4195L117.067 29.8771C117.158 29.0183 117.971 28.3855 118.921 28.4759C119.825 28.5663 120.503 29.3799 120.412 30.2387L120.367 30.7811C120.277 31.6399 119.463 32.2727 118.514 32.1823Z" fill="#4E3F3F"/>
    <path d="M118.921 28.5212L118.74 30.3744C118.695 30.8264 119.011 31.188 119.509 31.2332C119.961 31.2784 120.367 30.962 120.413 30.5552L120.458 30.284C120.503 29.38 119.825 28.6116 118.921 28.5212Z" fill="#5D5360"/>
    <path d="M119.343 29.6381C119.375 29.3403 119.16 29.0728 118.862 29.0407C118.564 29.0086 118.297 29.224 118.265 29.5218C118.233 29.8196 118.448 30.0871 118.746 30.1192C119.044 30.1513 119.311 29.9359 119.343 29.6381Z" fill="white"/>
    <path opacity="0.35" d="M115.847 12.7463C115.486 12.6559 114.582 13.1531 113.497 14.0571C113.226 14.2831 112.955 14.5543 112.638 14.8255C110.469 16.8595 107.892 20.1591 106.717 23.7299C104.773 29.6963 103.508 36.7023 105.316 40.8607C106.853 44.3863 109.881 46.4655 109.881 46.4655C108.661 46.1943 107.485 45.7875 106.355 45.1999C101.519 42.8495 98.4906 38.4199 98.9878 33.6739C99.0782 32.9959 99.2138 32.3179 99.4398 31.6851C99.4398 31.6399 99.485 31.5947 99.485 31.5495C98.7166 31.2331 97.903 30.5551 97.225 29.4703C95.5526 26.7583 96.6374 22.8711 99.1234 22.1931C100.253 21.8767 101.112 22.1931 101.745 22.5999C101.79 22.5999 101.79 22.6451 101.835 22.6451C102.061 22.1931 102.287 21.7863 102.513 21.3343C102.694 21.0179 102.875 20.7015 103.101 20.4303C105.225 17.4019 108.435 15.0515 111.96 14.2831C112.141 13.9667 113.361 12.2491 115.441 12.2943C115.531 12.2943 115.667 12.2943 115.757 12.2943L115.847 12.7463Z" fill="#4E3F3F"/>
    <path d="M118.107 104.05C118.107 104.05 125.61 111.599 125.61 111.915C125.61 112.186 124.661 114.085 124.39 114.085C124.164 114.085 116.39 105.316 116.435 104.999C116.48 104.683 118.107 104.05 118.107 104.05Z" fill="#231E1C"/>
    <path d="M103.056 126.424C104.864 138.945 104.954 147.804 102.468 151.33C102.423 151.42 102.333 151.51 102.242 151.601C103.508 151.646 104.412 151.691 104.412 151.691C104.412 151.691 105.542 150.878 106.355 147.081C107.124 140.256 106.536 130.221 106.039 124.345C105.813 121.407 106.762 122.13 106.175 119.238L104.728 113.045C104.773 113.045 101.248 113.904 103.056 126.424Z" fill="#231E1C"/>
    <path d="M105.135 151.51C105.044 151.51 92.7048 150.697 92.3884 150.878C92.072 151.058 92.8856 152.595 92.8856 152.595C92.8856 152.595 91.6652 153.996 91.7556 154.403C91.846 154.81 92.976 155.85 92.976 155.85C92.976 155.85 91.62 157.477 91.7556 158.064C91.8912 158.652 101.474 160.234 105.768 159.33C106.265 158.742 105.27 157.025 105.27 157.025C105.27 157.025 106.626 156.211 106.626 155.714C106.626 155.217 104.276 153.138 104.276 153.138C104.276 153.138 106.355 151.736 105.135 151.51Z" fill="#231E1C"/>
    <path d="M132.119 153.183C132.119 153.183 117.926 152.866 117.474 153.183C117.022 153.499 117.655 154.448 117.655 154.494C117.655 154.539 116.932 155.307 116.932 155.94C116.887 156.573 118.559 157.884 118.559 157.884C118.559 157.884 116.706 160.415 117.203 160.776C117.7 161.183 128.639 162.178 132.571 160.957C133.068 160.415 132.029 158.923 132.029 158.923C132.029 158.923 133.249 157.703 133.249 157.296C133.249 156.889 131.667 155.533 131.803 155.352C131.938 155.172 132.933 153.906 132.888 153.635C132.752 153.364 132.119 153.183 132.119 153.183Z" fill="#231E1C"/>
    <path d="M116.299 54.1043C119.192 51.4827 121.045 48.0023 121.045 48.0023L105.09 45.9231C105.09 45.9231 104.638 49.9007 105.632 53.0647C107.983 52.7031 112.503 52.3867 116.299 54.1043Z" fill="url(#paint8_radial_6_2658)"/>
    <path d="M107.078 119.735C106.22 120.141 106.4 121.407 106.4 121.407L104.818 118.379L107.078 119.735Z" fill="#231E1C"/>
    <path d="M160.912 187.58C159.963 186.586 158.969 185.41 159.421 184.687C159.873 183.964 161.183 180.755 161.545 180.258C161.907 179.806 162.946 178.947 163.895 178.947C164.845 178.947 167.24 178.992 169.907 179.58C172.574 180.167 174.517 183.241 175.15 184.642C175.783 186.088 176.19 189.117 173.839 189.524C171.489 189.93 170.675 189.343 166.291 189.84C161.952 190.337 162.087 188.8 160.912 187.58Z" fill="#AFAFAF"/>
    <path opacity="0.3" d="M159.33 185.049C159.33 185.049 160.776 185.817 161.183 186.766C161.59 187.716 161.771 188.71 164.121 188.394C166.472 188.077 166.969 188.394 167.963 187.264C168.958 186.134 170.766 186.043 171.353 186.992C171.941 187.942 173.93 187.806 174.246 187.67C174.562 187.535 175.466 187.806 175.557 188.258C175.647 188.71 174.924 189.252 175.014 189.885C175.105 190.518 175.105 190.699 174.291 190.834C173.432 190.97 169.636 190.654 167.466 191.06C165.296 191.467 164.302 191.06 163.172 190.744C162.042 190.473 161.409 189.252 160.957 188.529C160.505 187.806 159.601 185.953 159.511 185.682C159.33 185.32 159.059 185.049 159.33 185.049Z" fill="black"/>
    <path d="M161.002 196.575C160.369 195.761 161.319 195.174 161.906 195.128C162.494 195.083 163.172 195.806 163.036 196.168C162.946 196.53 162.268 196.801 161.951 196.756C161.635 196.71 161.228 196.846 161.002 196.575Z" fill="#8C9DA5"/>
    <path opacity="0.3" d="M160.867 196.394C160.821 196.304 161.183 196.575 161.273 196.62C161.364 196.62 161.545 196.62 161.771 196.575C161.997 196.575 161.997 196.665 162.177 196.62C162.358 196.53 162.81 196.439 162.81 196.439C162.81 196.439 162.72 196.575 162.539 196.71C162.358 196.801 162.132 196.936 161.951 196.936C161.771 196.936 161.454 196.936 161.319 196.936C161.183 196.936 161.002 196.801 160.957 196.71C160.912 196.62 160.867 196.394 160.867 196.394Z" fill="black"/>
    <path d="M65.6754 179.851C65.0878 179.58 63.8674 178.947 62.6018 179.128C61.3362 179.308 56.093 181.523 55.0534 181.749C54.0138 181.975 49.991 182.518 48.861 183.196C47.7762 183.919 47.1886 185.546 47.4598 186.179C47.731 186.766 48.2282 188.439 50.2622 188.529C52.2962 188.62 55.3698 187.896 56.7258 187.987C58.0366 188.077 59.3474 185.862 59.9802 185.139C60.613 184.416 63.4154 182.834 64.5002 182.427C65.585 182.02 66.7602 180.348 65.6754 179.851Z" fill="#AFAFAF"/>
    <path opacity="0.3" d="M47.5505 186.495C47.5505 186.495 48.6805 186.224 49.5393 186.766C50.3981 187.309 49.7201 187.489 50.6241 187.535C51.5281 187.58 52.2965 187.309 53.2909 187.535C54.2853 187.761 55.2797 187.896 56.0029 187.761C56.7261 187.625 57.4041 188.032 57.9917 187.309C58.5793 186.585 59.0313 185.41 59.4833 185.003C59.9353 184.597 60.7941 184.099 61.3365 183.964C61.8789 183.828 63.7321 182.608 64.0485 182.472C64.4101 182.382 65.5853 181.659 65.6305 181.568C65.7209 181.478 65.4949 182.111 64.9073 182.517C64.3197 182.924 63.2801 183.195 63.1445 183.331C63.0089 183.467 61.2461 184.416 60.9749 184.777C60.7037 185.094 59.6641 186.043 59.3477 186.45C59.0313 186.857 57.8561 188.122 57.4945 188.258C57.1329 188.393 56.3193 188.303 55.6865 188.439C55.0537 188.574 54.1045 188.981 53.6525 189.207C53.2005 189.433 51.4829 189.252 50.8501 189.433C50.2173 189.614 48.4093 189.569 48.1833 188.936C47.9573 188.303 47.3245 186.676 47.5505 186.495Z" fill="black"/>
    <path d="M62.0597 199.965C63.7321 199.829 64.0937 199.151 67.8001 199.829C71.4613 200.507 73.2241 200.598 69.8341 202.858C66.4441 205.118 64.0034 206.248 62.6474 205.208C61.2914 204.168 57.5849 200.281 62.0597 199.965Z" fill="#B2956B"/>
    <path opacity="0.1" d="M60.749 203.264C60.749 203.264 61.879 204.304 62.2406 204.62C62.6022 204.937 62.8734 205.208 63.7322 205.253C64.591 205.298 66.1278 204.846 66.625 204.575C67.077 204.304 71.2354 201.863 71.2354 201.863C71.2354 201.863 70.1958 203.084 69.563 203.581C68.9302 204.078 66.4442 205.524 65.721 205.75C64.9978 205.976 64.2294 206.067 63.3706 205.931C62.5118 205.796 62.1954 205.344 62.0598 205.027C61.9242 204.711 60.749 203.264 60.749 203.264Z" fill="black"/>
    <path d="M145.363 181.975C145.634 181.614 145.589 181.116 146.674 181.297C147.713 181.478 148.165 181.523 148.256 181.975C148.301 182.382 148.482 183.105 147.849 183.196C147.216 183.286 145.951 183.15 145.679 182.924C145.408 182.698 145.227 182.201 145.363 181.975Z" fill="#B2956B"/>
    <path d="M140.255 178.314C140.617 177.998 141.295 176.822 142.877 177.139C144.459 177.455 144.821 177.591 144.775 178.178C144.73 178.766 145.001 179.851 144.233 180.032C143.51 180.258 141.476 181.116 140.979 180.936C140.481 180.71 139.08 179.354 140.255 178.314Z" fill="#B2956B"/>
    <path opacity="0.1" d="M145.318 182.292C145.318 182.201 145.544 182.744 145.815 182.789C146.086 182.879 146.583 183.015 147.035 182.97C147.487 182.924 147.759 182.789 147.939 182.789C148.12 182.789 148.211 182.789 148.211 182.789C148.256 182.789 148.256 182.97 148.165 183.105C148.075 183.241 147.939 183.286 147.668 183.376C147.397 183.467 146.9 183.331 146.674 183.331C146.448 183.331 145.905 183.196 145.589 183.06C145.408 182.97 145.318 182.472 145.318 182.292Z" fill="black"/>
    <path opacity="0.1" d="M139.849 179.58C139.849 179.58 140.255 179.986 140.527 180.077C140.798 180.167 140.753 179.941 141.25 180.077C141.747 180.212 141.431 180.438 142.063 180.393C142.741 180.348 143.826 180.077 144.052 179.986C144.278 179.896 144.685 179.625 144.775 179.308C144.821 178.992 144.821 179.715 144.73 179.941C144.64 180.167 143.871 180.348 143.691 180.438C143.465 180.574 142.244 180.89 141.973 181.026C141.702 181.162 140.979 181.116 140.707 181.026C140.481 180.936 139.939 180.077 139.894 179.896C139.849 179.67 139.849 179.58 139.849 179.58Z" fill="black"/>
    <defs>
        <linearGradient id="paint0_linear_6_2658" x1="127.814" y1="140.99" x2="125.655" y2="184.409" gradientUnits="userSpaceOnUse">
            <stop stop-color="#A16552"/>
            <stop offset="0.201" stop-color="#935848"/>
            <stop offset="0.504" stop-color="#935848"/>
            <stop offset="0.6028" stop-color="#9C604E"/>
            <stop offset="0.7268" stop-color="#A16552"/>
            <stop offset="1" stop-color="#966444"/>
        </linearGradient>
        <linearGradient id="paint1_linear_6_2658" x1="100.291" y1="139.622" x2="98.1325" y2="183.041" gradientUnits="userSpaceOnUse">
            <stop stop-color="#A16552"/>
            <stop offset="0.201" stop-color="#935848"/>
            <stop offset="0.504" stop-color="#935848"/>
            <stop offset="0.6028" stop-color="#9C604E"/>
            <stop offset="0.7268" stop-color="#A16552"/>
            <stop offset="1" stop-color="#966444"/>
        </linearGradient>
        <linearGradient id="paint2_linear_6_2658" x1="124.36" y1="138.857" x2="122.921" y2="79.8457" gradientUnits="userSpaceOnUse">
            <stop stop-color="#A16552"/>
            <stop offset="0.201" stop-color="#935848"/>
            <stop offset="0.504" stop-color="#935848"/>
            <stop offset="0.6028" stop-color="#9C604E"/>
            <stop offset="0.7268" stop-color="#A16552"/>
            <stop offset="1" stop-color="#966444"/>
        </linearGradient>
        <linearGradient id="paint3_linear_6_2658" x1="92.8643" y1="139.625" x2="91.425" y2="80.6139" gradientUnits="userSpaceOnUse">
            <stop stop-color="#A16552"/>
            <stop offset="0.201" stop-color="#935848"/>
            <stop offset="0.504" stop-color="#935848"/>
            <stop offset="0.6028" stop-color="#9C604E"/>
            <stop offset="0.7268" stop-color="#A16552"/>
            <stop offset="1" stop-color="#966444"/>
        </linearGradient>
        <linearGradient id="paint4_linear_6_2658" x1="104.98" y1="51.4377" x2="121.043" y2="51.4377" gradientUnits="userSpaceOnUse">
            <stop stop-color="#E7BC91"/>
            <stop offset="0.3993" stop-color="#F3D5B5"/>
            <stop offset="0.6602" stop-color="#F5DCB4"/>
            <stop offset="0.7034" stop-color="#F4DAB2"/>
            <stop offset="1" stop-color="#EFD3AB"/>
        </linearGradient>
        <radialGradient id="paint5_radial_6_2658" cx="0" cy="0" r="1" gradientUnits="userSpaceOnUse" gradientTransform="translate(113.872 31.1093) scale(60.9731)">
            <stop offset="0.1429" stop-color="#92594B"/>
            <stop offset="0.2417" stop-color="#91584A"/>
            <stop offset="0.2571" stop-color="#905749"/>
            <stop offset="0.5513" stop-color="#814C3F"/>
            <stop offset="0.7934" stop-color="#7C483C"/>
        </radialGradient>
        <linearGradient id="paint6_linear_6_2658" x1="103.245" y1="34.2561" x2="124.252" y2="34.8643" gradientUnits="userSpaceOnUse">
            <stop stop-color="#E7BC91"/>
            <stop offset="0.3993" stop-color="#F3D5B5"/>
            <stop offset="0.6602" stop-color="#F5DCB4"/>
            <stop offset="0.7034" stop-color="#F4DAB2"/>
            <stop offset="1" stop-color="#EFD3AB"/>
        </linearGradient>
        <linearGradient id="paint7_linear_6_2658" x1="96.2787" y1="28.3455" x2="131.575" y2="30.8976" gradientUnits="userSpaceOnUse">
            <stop stop-color="#A16552"/>
            <stop offset="0.201" stop-color="#935848"/>
            <stop offset="0.504" stop-color="#935848"/>
            <stop offset="0.6028" stop-color="#9C604E"/>
            <stop offset="0.7268" stop-color="#A16552"/>
            <stop offset="1" stop-color="#966444"/>
        </linearGradient>
        <radialGradient id="paint8_radial_6_2658" cx="0" cy="0" r="1" gradientUnits="userSpaceOnUse" gradientTransform="translate(113.874 34.9217) scale(46.5824 46.5824)">
            <stop offset="0.1429" stop-color="#92594B"/>
            <stop offset="0.2417" stop-color="#91584A"/>
            <stop offset="0.2571" stop-color="#905749"/>
            <stop offset="0.5513" stop-color="#814C3F"/>
            <stop offset="0.7934" stop-color="#7C483C"/>
        </radialGradient>
    </defs>
</svg>
