<svg width="60" height="60" viewBox="0 0 45 59" fill="none" xmlns="http://www.w3.org/2000/svg">
    <path
      d="M22.0964 34.7417C22.0964 34.7417 22.4293 30.0593 16.4436 24.9153C7.87965 17.5604 6.89669 15.9431 13.9941 17.0925C21.0914 18.2419 26.2606 24.1899 26.2606 24.1899"
      fill="#FFCA28"
    />
    <path
      d="M7.15062 47.6833L6.93393 44.6904L1.02679 45.1238C0.73362 45.1455 0.461072 45.2827 0.269083 45.5054C0.0770938 45.728 -0.0186157 46.0177 0.00300466 46.3109L0.0501116 47.0803C0.0718192 47.3737 0.208952 47.6465 0.431462 47.839C0.653972 48.0315 0.943711 48.128 1.23719 48.1072L7.15062 47.6833Z"
      fill="#AC752C"
    />
    <path
      d="M7.15061 47.6832L7.0407 46.1884L0.03125 46.7002L0.050093 47.0802C0.0718006 47.3736 0.208934 47.6465 0.431444 47.839C0.653954 48.0315 0.943693 48.1279 1.23718 48.1071L7.15061 47.6832Z"
      fill="#7D551F"
    />
    <path
      d="M33.2413 37.458C32.2075 36.3645 31.0269 35.4197 29.7335 34.6505C28.4773 33.8779 27.1332 33.2656 25.8142 32.6218C24.6491 32.0533 23.5908 31.4064 22.3221 31.1583L22.1493 31.4033C22.0897 31.4849 22.0269 31.5634 21.9703 31.6451C21.8416 31.8304 21.7003 32.0125 21.5589 32.1978L21.5055 32.2669L21.3265 32.4993C21.2637 32.5809 21.1946 32.6595 21.1287 32.7411C20.9874 32.9232 20.8398 33.0991 20.689 33.2718C20.2494 33.7963 19.7846 34.3082 19.301 34.8044C19.2193 34.8902 19.1377 34.9719 19.056 35.0493C18.9273 35.1844 18.7954 35.3163 18.6603 35.4419L18.3745 35.7151C18.2772 35.8093 18.183 35.8972 18.0856 35.9852L18.0228 36.0448C17.8784 36.1799 17.7276 36.3149 17.5737 36.4437L17.4701 36.5347C17.4125 36.5915 17.3516 36.645 17.288 36.6949L17.1058 36.8488C16.9488 36.9775 16.7918 37.1094 16.641 37.2351C16.4243 37.4141 16.1951 37.5931 15.969 37.7658C15.7429 37.9385 15.6047 38.0453 15.4163 38.1772L15.3126 38.2494L14.8541 38.5635C14.6092 38.7362 14.3548 38.9058 14.0973 39.0691C13.5739 39.4103 13.0337 39.7369 12.4768 40.0489C11.4714 40.6177 10.4321 41.1243 9.36465 41.5657C8.90929 41.7604 8.4445 41.9426 7.97658 42.1122C7.74105 42.1969 7.50238 42.2817 7.2637 42.3602C7.02503 42.4388 6.84603 42.5016 6.63562 42.5675C6.3467 42.6555 6.06092 42.7371 5.77514 42.8188C5.70194 42.849 5.63063 42.8836 5.56159 42.9224C5.52391 42.9444 5.47994 42.9695 5.43283 42.9915L5.36061 43.0354L5.28837 43.0826C4.62793 43.4969 4.11224 44.1058 3.81237 44.8255C3.81237 44.8475 3.81237 44.8695 3.78725 44.8946C3.61254 45.3811 3.54504 45.8996 3.5894 46.4145C3.60809 46.7086 3.65649 47.0001 3.73386 47.2844C3.78507 47.4901 3.8621 47.6885 3.96311 47.8748C4.33461 48.5164 4.90437 49.0201 5.58671 49.31C6.97478 49.9632 8.78367 50.0857 9.8734 50.0889C14.5036 50.0134 19.0548 48.8772 23.1772 46.7675C27.2995 44.6579 30.8832 41.631 33.6527 37.9197C33.5208 37.7689 33.3858 37.6151 33.2413 37.458Z"
      fill="#FFB300"
    />
    <path
      d="M25.8018 32.6342C24.6367 32.0658 23.5783 31.4189 22.3096 31.1708L22.1369 31.4157C22.0772 31.4974 22.0144 31.5759 21.9579 31.6575C21.9013 31.7392 21.8354 31.8208 21.7726 31.8994C21.7098 31.9779 21.6218 32.1066 21.5465 32.2134L21.4931 32.2825L21.3141 32.5149C21.2513 32.5965 21.1822 32.675 21.1162 32.7567C21.0503 32.8383 20.9781 32.92 20.909 33.0048L20.6766 33.2874C20.5415 33.4476 20.4002 33.6015 20.262 33.7616C20.2369 33.7899 20.2118 33.8213 20.1835 33.8496L19.9857 34.0725C19.8381 34.2358 19.6905 34.3866 19.5366 34.5562L19.2885 34.82C19.2068 34.9058 19.1252 34.9875 19.0435 35.0649C18.9116 35.2 18.7797 35.3287 18.6479 35.4575L18.3621 35.7307C18.2647 35.8249 18.1705 35.9128 18.0732 36.0008L18.0103 36.0604C17.8659 36.1955 17.7151 36.3274 17.5613 36.4593L17.4576 36.5503L17.2755 36.7105L17.0933 36.8644C16.9363 36.9931 16.7793 37.125 16.6286 37.2507L16.2046 37.5647L15.9565 37.7657C15.7744 37.9007 15.5922 38.0452 15.4038 38.1771L15.3001 38.2493L14.8416 38.5634C14.7223 38.6481 14.5998 38.7235 14.4742 38.8052L14.0848 39.069C13.8964 39.1914 13.7079 39.3045 13.5195 39.4238L13.2055 39.606C12.9605 39.7567 12.7093 39.9043 12.4612 40.0488L11.9524 40.3251L11.1893 40.7208L10.6617 40.9752C10.4 41.1008 10.1331 41.2233 9.86092 41.3426L9.34903 41.5656C9.03499 41.6912 8.74607 41.8137 8.44145 41.9268L8.09286 42.0587C8.04889 42.0775 7.99865 42.0932 7.96096 42.112C7.72543 42.1968 7.48675 42.2816 7.24808 42.3601L6.62 42.5674C6.33108 42.6553 6.0453 42.737 5.75952 42.8186C5.68631 42.8489 5.615 42.8835 5.54597 42.9223C5.50828 42.9443 5.46432 42.9694 5.41721 42.9914L5.34498 43.0353L5.27275 43.0824C4.6123 43.4967 4.09661 44.1057 3.79675 44.8254C3.79675 44.8474 3.79675 44.8693 3.77162 44.8945C3.59691 45.3809 3.52942 45.8994 3.57378 46.4144C3.59247 46.7085 3.64086 47 3.71824 47.2843H3.76848C4.89068 47.2934 6.01251 47.24 7.12875 47.1242C8.75004 46.9574 10.3549 46.6581 11.9273 46.2291C12.2885 46.1349 12.6496 46.0282 13.0108 45.9151C19.2761 43.9725 24.7363 40.0384 28.5622 34.71C28.6941 34.5279 28.8197 34.3395 28.9453 34.1542C27.9153 33.6235 26.8538 33.1304 25.8018 32.6342Z"
      fill="#FFD54F"
    />
    <path
      d="M34.4382 36.8143L28.5467 34.7416L21.5059 32.2669L21.5592 32.1978C21.6346 32.0942 21.7131 31.9906 21.7854 31.8838C21.8576 31.777 21.9078 31.7236 21.9706 31.642C22.0335 31.5603 22.09 31.4818 22.1496 31.4002C22.3046 31.1908 22.4553 30.9814 22.6019 30.7721C22.6992 30.6339 22.7903 30.4894 22.8845 30.3513C23.0698 30.0655 23.2519 29.7828 23.4215 29.4939C23.4843 29.3966 23.544 29.2992 23.6037 29.2019L23.6571 29.1108L23.9711 28.5832C24.0758 28.3948 24.1805 28.2095 24.2851 28.0273L24.618 27.371C24.7091 27.1888 24.8033 27.0036 24.8912 26.8183C24.9792 26.633 25.0765 26.4226 25.1739 26.2247C25.2021 26.1588 25.2336 26.096 25.2587 26.0332C25.3183 25.9013 25.3749 25.7694 25.4314 25.6343V25.6061C25.5099 25.4114 25.5947 25.2198 25.6732 25.0219C25.6937 24.9791 25.7115 24.9351 25.7266 24.89L25.7706 24.7801C25.8239 24.6388 25.8711 24.5038 25.9213 24.3656C25.9716 24.2274 26.0124 24.1426 26.0501 24.0327C26.0877 23.9228 26.1349 23.8066 26.1757 23.6935L26.2071 23.6087C26.2291 23.5397 26.2542 23.4674 26.2762 23.3952C26.2982 23.323 26.3233 23.2539 26.3453 23.1754C26.5023 22.6938 26.6499 22.2102 26.7881 21.7245C26.854 21.4764 26.92 21.2346 26.9828 20.9865C27.0738 20.6348 27.1555 20.283 27.2277 19.9219L27.2528 19.812C27.2528 19.7806 27.2528 19.7523 27.2528 19.724C27.3376 19.3095 27.4099 18.8918 27.4821 18.4679C27.5041 18.3265 27.5261 18.1852 27.5418 18.0439C27.5575 17.9026 27.5795 17.7644 27.6014 17.6199C27.6234 17.4755 27.6423 17.3059 27.6611 17.1206C27.6611 17.017 27.6831 16.9196 27.6925 16.8066C27.7176 16.6276 27.7302 16.4423 27.7459 16.257C27.7616 16.0717 27.7742 15.943 27.7867 15.7608C27.8056 15.4719 27.8181 15.1798 27.8338 14.8878C27.8338 14.7402 27.8338 14.5737 27.8338 14.4387C27.8338 14.3822 27.8338 14.3256 27.8338 14.2722C27.837 14.2158 27.837 14.1591 27.8338 14.1027C27.8338 13.9927 27.8338 13.8797 27.8338 13.7698C27.8338 13.6599 27.8338 13.5123 27.8338 13.3866C27.8338 12.9595 27.815 12.5387 27.793 12.1116C27.793 12.0896 27.793 12.0677 27.793 12.0457C27.771 11.6594 27.7428 11.27 27.7051 10.8774C27.6234 9.27268 27.011 5.5387 27.3031 2.8819C27.4381 1.67283 27.7616 0.683598 28.4148 0.253358C28.4953 0.196166 28.5816 0.147738 28.6723 0.108899C28.7677 0.0767792 28.8653 0.0515897 28.9644 0.033528H28.9801C29.8767 -0.0824441 30.7863 0.104349 31.5647 0.564262C32.6911 1.21861 33.6841 2.07947 34.4915 3.10173C37.8236 8.09907 39.5933 13.9749 39.5754 19.9811C39.5575 25.9874 37.7528 31.8526 34.391 36.83L34.4382 36.8143Z"
      fill="#FFD770"
    />
    <path
      d="M28.5467 34.7416C32.0085 29.9367 33.9848 24.2219 34.231 18.305C34.4772 12.388 32.9823 6.52883 29.9316 1.453C29.7495 1.1578 29.5642 0.859458 29.3758 0.567398C29.2564 0.382112 29.1277 0.196827 29.0084 0.0178223C28.9093 0.0358839 28.8117 0.0610734 28.7163 0.0931932C28.6255 0.132032 28.5392 0.18046 28.4588 0.237653C27.8056 0.674173 27.4821 1.65713 27.3471 2.86619C27.055 5.51044 27.6611 9.25697 27.749 10.8617C27.7867 11.2543 27.815 11.6437 27.837 12.03C27.837 12.052 27.837 12.0739 27.837 12.0959C27.8589 12.523 27.8747 12.9438 27.8778 13.3709C27.8778 13.4086 27.8778 13.4526 27.8778 13.4871V13.7918C27.8778 13.9017 27.8778 14.0147 27.8778 14.1246C27.881 14.1811 27.881 14.2377 27.8778 14.2942C27.8778 14.3476 27.8778 14.4041 27.8778 14.4607C27.8778 14.6114 27.8778 14.7747 27.8778 14.9097C27.8621 15.2018 27.8495 15.4939 27.8307 15.7828C27.8307 15.9492 27.8087 16.1157 27.7899 16.279C27.771 16.4423 27.7553 16.6495 27.7365 16.8286C27.7365 16.9322 27.7145 17.0295 27.7051 17.1426C27.6862 17.3122 27.6674 17.4786 27.6454 17.6419C27.6234 17.8052 27.6046 17.9277 27.5857 18.0659C27.5669 18.2041 27.548 18.3485 27.5261 18.4898C27.4538 18.9044 27.3816 19.3221 27.2968 19.746C27.2968 19.7743 27.2968 19.8025 27.2968 19.8339L27.2717 19.9439C27.1995 20.305 27.1178 20.6567 27.0267 21.0085C26.9639 21.2566 26.898 21.4984 26.832 21.7465C26.6938 22.2343 26.5462 22.7179 26.3892 23.1973C26.3672 23.2759 26.3453 23.345 26.3201 23.4172C26.295 23.4894 26.273 23.5616 26.251 23.6307L26.2196 23.7155C26.1788 23.8286 26.138 23.9416 26.094 24.0547C26.0501 24.1677 26.0092 24.2777 25.9653 24.3876C25.9213 24.4975 25.8679 24.6608 25.8145 24.8021L25.7706 24.912C25.7555 24.957 25.7377 25.0011 25.7172 25.0439C25.6387 25.2418 25.5539 25.4333 25.4754 25.628V25.6563C25.4188 25.7913 25.3623 25.9232 25.3026 26.0551C25.2775 26.118 25.2461 26.1808 25.2178 26.2467C25.1205 26.4446 25.0294 26.6455 24.9352 26.8403C24.841 27.035 24.7531 27.2108 24.662 27.393L24.3291 28.0493C24.2244 28.2315 24.1197 28.4167 24.0151 28.6052L23.701 29.1328L23.6037 29.1799C23.544 29.2772 23.4843 29.3746 23.4215 29.4719C23.2519 29.7609 23.0698 30.0435 22.8845 30.3293C22.7903 30.4675 22.6992 30.6119 22.6019 30.7501C22.4553 30.9595 22.3046 31.1688 22.1496 31.3782C22.09 31.4598 22.0272 31.5383 21.9706 31.62C21.9141 31.7016 21.8482 31.7833 21.7854 31.8618C21.7225 31.9403 21.6346 32.0691 21.5592 32.1758L21.5059 32.2449L28.5467 34.7416Z"
      fill="#FFEA8C"
    />
    <path
      d="M21.5059 32.2672C21.5059 32.2672 27.837 34.6445 30.3556 37.16C34.3188 41.1232 35.8419 42.3417 33.5368 54.2816C33.4552 54.7181 33.383 55.1547 33.3327 55.5975C33.1097 57.5822 32.8899 62.6132 40.7065 50.9685C50.1058 36.9621 36.7746 33.024 36.7746 33.024C31.8756 31.6077 26.6719 31.4538 21.5059 32.2672Z"
      fill="#FFCA28"
    />
  </svg>