<svg xmlns="http://www.w3.org/2000/svg" xmlns:xlink="http://www.w3.org/1999/xlink" version="1.1" id="Laag_1" x="0px" y="0px" viewBox="0 0 338 442" style="enable-background:new 0 0 338 442;" xml:space="preserve">
<style type="text/css">
	.st0{display:none;}
	.st1{display:inline;}
	.st2{fill:url(#SVGID_1_);}
	.st3{opacity:0.1;}
	.st4{fill:url(#SVGID_00000158712496819748809410000015566369347131094159_);}
	.st5{fill:url(#SVGID_00000066502348896359722800000012034181269319271591_);}
	.st6{fill:url(#SVGID_00000109023651217419394710000015994953282341560723_);}
	.st7{opacity:0.15;}
	.st8{fill:#FFFFFF;}
	.st9{opacity:0.25;fill:url(#SVGID_00000114069011128354431360000014105308401535816611_);}
	.st10{opacity:0.2;fill:url(#SVGID_00000100354938436438036770000008153180035228388742_);}
	.st11{fill:url(#SVGID_00000183927243908281486580000005214699078841715855_);}
	.st12{opacity:0.25;fill:url(#SVGID_00000095303078888504500990000015838894010066859392_);}
	.st13{fill:url(#SVGID_00000170278167659233410230000006668836672661482684_);}
	.st14{opacity:0.25;fill:url(#SVGID_00000021077188375357662450000017248538145297722755_);}
	.st15{fill:url(#SVGID_00000146470402915048954990000013281392163635465627_);}
	.st16{opacity:0.2;fill:url(#SVGID_00000125561353077880091320000015877803014689714611_);}
	.st17{fill:url(#SVGID_00000068641804287163936690000000975031855789323933_);}
	.st18{fill:url(#SVGID_00000049938159171653535050000017359461562055715774_);}
	.st19{opacity:0.2;fill:url(#SVGID_00000106105887738666861030000006976694668059499449_);}
	.st20{fill:url(#SVGID_00000163784855957429147830000005855654810400112300_);}
	.st21{fill:url(#SVGID_00000182496257376338099960000005297485906905585839_);}
	.st22{fill:#7A4A3D;}
	.st23{fill:url(#SVGID_00000034063777192586784260000001030206999795787438_);}
	.st24{opacity:0.21;}
	.st25{fill:url(#SVGID_00000075120526256400197520000001244783286632353455_);}
	.st26{fill:url(#SVGID_00000040553390647051789950000001413964370211058582_);}
	.st27{fill:url(#SVGID_00000157287940929011479620000015298659331259269775_);}
	.st28{fill:url(#SVGID_00000013873165818231644800000004811734708205398152_);}
	.st29{fill:url(#SVGID_00000134952664047273101810000001394798492100630454_);}
	.st30{fill:url(#SVGID_00000047739560733841076200000008467162701536303265_);}
	.st31{fill:url(#SVGID_00000070826830347819562490000003631545937083433386_);}
	.st32{fill:url(#SVGID_00000040542651835022842060000017099991372221717426_);}
	.st33{fill:url(#SVGID_00000064329162168296000380000013077345385047020212_);}
	.st34{fill:#4E3F3F;}
	.st35{fill:url(#SVGID_00000019648942515149915990000008494815905459399823_);}
	.st36{fill:url(#SVGID_00000142887398349523340540000017847976642805878660_);}
	.st37{fill:#5D5360;}
	.st38{fill:url(#SVGID_00000060729077043140943520000000068632099273195656_);}
	.st39{fill:url(#SVGID_00000011716021390033512900000002995395743637376693_);}
	.st40{fill:#F1F0F0;}
	.st41{fill:url(#SVGID_00000021829315511015360410000011965182557429358003_);}
	.st42{display:inline;opacity:0.2;fill:url(#SVGID_00000026125026262444709670000015171707736217574302_);}
	.st43{fill:url(#SVGID_00000084505945515621221710000008545007328572848533_);}
	.st44{opacity:0.1;clip-path:url(#SVGID_00000010305179836337960350000010127527194885943707_);}
	.st45{fill:#020202;}
	.st46{fill:url(#SVGID_00000164492454643350726600000009875615065422120866_);}
	.st47{fill:url(#SVGID_00000093882455701015795970000002380142715615852474_);}
	.st48{fill:url(#SVGID_00000133526514965303658430000001673450130201088173_);}
	.st49{fill:url(#SVGID_00000014633190550793874760000015385790230746948786_);}
	.st50{fill:none;}
	.st51{display:inline;fill:#4D4040;}
	.st52{font-family:'Poppins-Black';}
	.st53{font-size:58.7009px;}
	.st54{display:none;opacity:0.49;fill:url(#SVGID_00000060018548593558926340000000622766726945803697_);}
	.st55{clip-path:url(#SVGID_00000014592492092074154520000014094481312128937912_);}
	.st56{opacity:0.2;fill:url(#SVGID_00000044889705164992355320000017309938393657072058_);}
	.st57{opacity:0.26;}
	.st58{filter:url(#Adobe_OpacityMaskFilter);}
	.st59{mask:url(#SVGID_00000183244491059380751990000014344043757789647503_);}
	.st60{fill:#3A3333;}
	.st61{fill:url(#SVGID_00000155143693692171647060000003178285554687144359_);}
	.st62{fill:url(#SVGID_00000047759409141625003810000015911924585207154599_);}
	.st63{opacity:0.17;}
	.st64{fill:#3D8ED1;}
	.st65{fill:#2B7AC9;}
	.st66{fill:#155784;}
	.st67{fill:#0E3772;}
	.st68{opacity:0.19;}
	.st69{fill:#FDFFFF;}
</style>
    <rect x="-64.1" y="99.9" class="st50" width="482" height="229.4"/>
    <text transform="matrix(1 0 0 1 -64.1285 208.1187)" class="st0"><tspan x="0" y="0" class="st51 st52 st53">STAKING</tspan><tspan x="0" y="56.4" class="st51 st52 st53">POOLS</tspan></text>
    <linearGradient id="SVGID_1_" gradientUnits="userSpaceOnUse" x1="122.8541" y1="260.6452" x2="1055.2294" y2="260.6452" gradientTransform="matrix(0 1 -1 0 438.5901 -284.2675)">
	<stop offset="0" style="stop-color:#001865"/>
        <stop offset="0.3239" style="stop-color:#002E84"/>
</linearGradient>
    <path style="display:none;opacity:0.49;fill:url(#SVGID_1_);" d="M-17.1-63.5l0,834.5h390l0-925c-32.9-7.5-44.4-7.4-79.5-7.4  C184.4-161.4,61.5-127.3-17.1-63.5z"/>
    <g>
	<defs>
		<rect id="SVGID_00000146460247085576884630000017030248096409291411_" width="338" height="442"/>
	</defs>
        <clipPath id="SVGID_00000125563606269325012990000016001074831885411991_">
		<use xlink:href="#SVGID_00000146460247085576884630000017030248096409291411_" style="overflow:visible;"/>
	</clipPath>
        <g style="clip-path:url(#SVGID_00000125563606269325012990000016001074831885411991_);">

			<radialGradient id="SVGID_00000040575893496965754920000003922066098311545017_" cx="243.5656" cy="229.3797" r="500.331" gradientTransform="matrix(0 1 -1 0 492.5265 195.2544)" gradientUnits="userSpaceOnUse">
			<stop offset="0" style="stop-color:#1D1D1B;stop-opacity:0"/>
                <stop offset="0.5621" style="stop-color:#1D1D1B"/>
                <stop offset="0.7054" style="stop-color:#1F1D1B"/>
                <stop offset="0.757" style="stop-color:#261C1C"/>
                <stop offset="0.7938" style="stop-color:#311B1D"/>
                <stop offset="0.8235" style="stop-color:#421A1E"/>
                <stop offset="0.8487" style="stop-color:#581721"/>
                <stop offset="0.8628" style="stop-color:#681622"/>
                <stop offset="0.9464" style="stop-color:#691620;stop-opacity:0.3904"/>
                <stop offset="0.9765" style="stop-color:#6E1619;stop-opacity:0.171"/>
                <stop offset="0.9979" style="stop-color:#77160E;stop-opacity:1.501763e-02"/>
                <stop offset="1" style="stop-color:#78160C;stop-opacity:0"/>
		</radialGradient>
            <path style="opacity:0.2;fill:url(#SVGID_00000040575893496965754920000003922066098311545017_);" d="M1.5,15v101.7h334.8V-60.2    c-28.2-6.5-57.6-8.2-87.8-8.2C154.9-68.3,69-39.8,1.5,15z"/>
            <g class="st57">
			<defs>
				<filter id="Adobe_OpacityMaskFilter" filterUnits="userSpaceOnUse" x="-1" y="-142.2" width="339.8" height="693.3">
					<feFlood style="flood-color:white;flood-opacity:1" result="back"/>
                    <feBlend in="SourceGraphic" in2="back" mode="normal"/>
				</filter>
			</defs>

                <mask maskUnits="userSpaceOnUse" x="-1" y="-142.2" width="339.8" height="693.3" id="SVGID_00000140704890337965338740000014119665066132675506_">
				<g class="st58">
					<image style="overflow:visible;" width="344" height="699" xlink:href="7AFB9011.jpg" transform="matrix(1 0 0 1 -3 -145)">
					</image>
				</g>
			</mask>
                <g style="mask:url(#SVGID_00000140704890337965338740000014119665066132675506_);">
				<path class="st60" d="M-1-64v615.1h339.8v-684.3c-28.8-5.9-58.6-9-89.1-9C163.3-131.4,70.2-113.3-1-64z"/>
			</g>
		</g>

            <linearGradient id="SVGID_00000083767208741742193320000009712563933824744844_" gradientUnits="userSpaceOnUse" x1="-278.0738" y1="323.5922" x2="453.6808" y2="323.5922" gradientTransform="matrix(0 1 -1 0 492.5265 195.2544)">
			<stop offset="0" style="stop-color:#0077B6"/>
                <stop offset="0.1084" style="stop-color:#0096C7"/>
                <stop offset="0.3239" style="stop-color:#00B4D8"/>
		</linearGradient>
            <path style="fill:url(#SVGID_00000083767208741742193320000009712563933824744844_);" d="M-1,1.2v647.7h339.9V-76.5    c-28.7-6.5-38.7-6.3-69.3-6.3C174.5-82.8,67.4-53.5-1,1.2z"/>

            <linearGradient id="SVGID_00000037650575152458206270000017659208359973193355_" gradientUnits="userSpaceOnUse" x1="-290.904" y1="323.5922" x2="492.3599" y2="323.5922" gradientTransform="matrix(0 1 -1 0 492.5265 195.2544)">
			<stop offset="0" style="stop-color:#0096C7"/>
                <stop offset="0.3239" style="stop-color:#00B4D8"/>
                <stop offset="0.9667" style="stop-color:#0077B6"/>
		</linearGradient>
            <path style="fill:url(#SVGID_00000037650575152458206270000017659208359973193355_);" d="M0.3-3.5v691.1h337.4V-88.7    c-28.4-7.1-38.4-6.9-68.8-6.9C174.5-95.6,68.2-63.6,0.3-3.5z"/>
            <g>
			<g class="st63">
				<g>
					<polygon class="st64" points="221.7,5.5 211.8,11.9 208,29.8 221.7,31.9 228.7,20.1      "/>
                    <polygon class="st64" points="208,35.8 222.3,35.8 226.5,52.8 209,60.5 206.7,44.7      "/>
                    <polygon class="st64" points="225.8,34.3 231.5,50.3 243.3,46.3 240.6,34.3 232.3,24.5      "/>
                    <polygon class="st64" points="209.9,64.5 225.8,57.9 226.5,73.9 220.6,80.6 210.9,82.4      "/>
                    <polygon class="st64" points="230.6,57 230.6,71.8 239.9,78.2 249.6,75 244.1,50.3      "/>
                    <polygon class="st64" points="229.9,76.6 237.2,81.1 240.1,97.3 236.6,105.3 225.8,103.4 221.8,88 225.8,81.3      "/>
                    <polygon class="st64" points="212,87 217.7,87 221.8,104.3 220.4,108.9 212,108.1      "/>
                    <polygon class="st64" points="241.1,81.6 243.9,96.3 254.6,94.3 250.9,78.5      "/>
                    <polygon class="st64" points="241.1,106.7 244.6,99.4 255.7,98 257.9,117.2 256.7,128.8 243,118.8      "/>
                    <polygon class="st64" points="225.2,107.3 237.1,108.9 239.1,118.7 232.2,127.3 221.8,121.2      "/>
                    <polygon class="st64" points="212.9,111.1 219,112.1 215.9,127.3 211.3,128.8      "/>
                    <polygon class="st64" points="211.3,132.9 216,131 216.9,146.2 213.1,152.4 208,149      "/>
                    <polygon class="st64" points="220.8,125.5 232.2,131.9 233.2,148 220.8,145.8      "/>
                    <polygon class="st64" points="238.1,148 235.6,128.8 242.1,123.2 256.4,134.7 255.1,150.2      "/>
                    <polygon class="st64" points="169.5,242.5 177.4,231.2 185,236.4 182.9,242      "/>
                    <path class="st64" d="M180,227.6c0.3,0.1,6.1,4.6,6.1,4.3s4.7-8.1,4.7-8.1l1.3-8l-2.4-5.6L180,227.6z"/>
                    <polygon class="st64" points="192.1,206.4 195.3,210.2 202.1,196.3 197.1,194.1      "/>
                    <polygon class="st64" points="207.2,157.3 204.3,170.1 209.8,172.2 214.4,164.7 213.1,156.1 208,154.2      "/>
                    <polygon class="st64" points="203.8,174.5 208,176.3 211.8,187.9 206.5,193.2 204.8,193.7 198.5,191.2      "/>
                    <polygon class="st64" points="216.9,155.3 220.3,149.5 233.2,151 233.9,166.4 227.7,175 217.5,164.5      "/>
                    <path class="st64" d="M237.1,166.2c0.2-0.2,1.2-14.7,1.2-14.7l16.9,2l1.3,4.5l-1.9,11.7l-9.2,0.9L237.1,166.2z"/>
                    <polygon class="st64" points="216.9,170 211.8,175.5 214.4,186.4 221.3,189.3 227,177.9      "/>
                    <polygon class="st64" points="225.4,190.8 236.1,170 243.8,174.5 254.1,173.5 251.9,186.7 247.9,198.6      "/>
                    <polygon class="st64" points="209.3,195.2 214.4,189.7 234.8,196.7 228.3,207.1 220,207.7 206.9,197.2      "/>
                    <polygon class="st64" points="237.1,198 246.7,200.4 241.9,215.3 232.6,207.7      "/>
                    <polygon class="st64" points="204.4,200.2 217.7,209 198.5,225 195,224.5 195.8,216.7      "/>
                    <path class="st64" d="M186.5,241.5c0,0,2.7-8.4,3-8.8s3.2-5.6,3.2-5.6l8.1,0.6v13.8H186.5z"/>
                    <polygon class="st64" points="231.9,210.2 240.8,217.5 237.3,228.7 229.3,226.7 220.8,210.7      "/>
                    <polygon class="st64" points="218.7,212.6 225.4,226.7 222.9,230.3 203.9,228.1 203.5,225      "/>
                    <polygon class="st64" points="204,230.7 204,241.1 220.8,241.5 222.1,232.7      "/>
                    <polygon class="st64" points="224.2,241.5 225.8,231.9 227.6,229.5 236,231.9 231.1,241.5      "/>
				</g>
                <g>
					<polygon class="st65" points="226.5,5.5 231.5,18.7 243.9,19.8 251.4,15.6 237.3,7      "/>
                    <polygon class="st65" points="236.7,23.6 245.2,23.6 247.9,31.9 243.3,31.9      "/>
                    <polygon class="st65" points="244.5,35.1 249.5,56.4 259.8,56.4 264.2,37.4 258.8,35.1      "/>
                    <polygon class="st65" points="247.9,22.7 251.4,30.2 267.3,33.8 260.2,22.7 255.7,19.8      "/>
                    <polygon class="st65" points="250.5,60.5 253.4,74.1 266,74.9 266.8,63.2 261.2,60.1      "/>
                    <polygon class="st65" points="263.8,57.5 267.3,38 269.5,37 280.8,57.9 269.4,61.3      "/>
                    <polygon class="st65" points="254.6,78.5 258.7,93.1 260.3,103.5 270.9,101.2 271.4,86.6 266.1,79.2      "/>
                    <polygon class="st65" points="269.2,76.6 270.2,64.3 282,60.5 290.5,82.4 274.8,84.9      "/>
                    <polygon class="st65" points="260.8,107.3 270.6,105.3 269.9,118.6 261.6,117      "/>
                    <polygon class="st65" points="275.1,88.5 273.1,118.6 290.5,122.3 298.7,114.6 292,86.1      "/>
                    <polygon class="st65" points="261.5,121 285.4,124.9 283.7,143.8 260.3,149.5      "/>
                    <polygon class="st65" points="259.2,152.7 260.8,158.6 281.8,151.1 283.3,146.9      "/>
                    <polygon class="st65" points="299.7,120.5 288.6,127.3 286.8,150.2 301.9,145.8      "/>
                    <polygon class="st65" points="235.4,241.5 241.5,229.5 244.3,220 251.5,225 251.5,243.6      "/>
                    <polygon class="st65" points="255.5,244.1 255,225 269.8,228.1 275.8,225 283.4,226.5 269.7,246.7      "/>
                    <polygon class="st65" points="280.7,249.7 274.8,247.8 287.4,227.2 291.3,226.9      "/>
                    <polygon class="st65" points="278,220.7 286.9,223.2 292.4,223.2 296.5,207.2 292.4,204.9 282.3,208      "/>
                    <polygon class="st65" points="245.5,217.3 249.7,201.9 256.9,201.9 261.1,207.7 257.9,223.2 252.1,222.3      "/>
                    <polygon class="st65" points="261.3,223.8 263.4,208.1 278.8,208.1 274.1,222.3 269,225.4      "/>
                    <polygon class="st65" points="250.5,199.3 254.4,188.3 256.9,173.4 262.1,182.5 260.4,193.8 256.9,199.3      "/>
                    <polygon class="st65" points="263.2,205.6 260.1,200.2 262.8,194.8 264.1,183.5 270.3,189.3 278.4,205.8      "/>
                    <polygon class="st65" points="258.2,171.4 259.5,161.7 280.5,154.8 280.3,171.9 263.8,180.4      "/>
                    <polygon class="st65" points="266.5,182.1 279.5,176 279.5,187.3 272.8,188.3      "/>
                    <polygon class="st65" points="274.1,190.8 281.2,204.9 291.8,202.3 296.5,204.3 299.1,191.9 287,188.3      "/>
                    <polygon class="st65" points="284.1,155.5 302.4,149.5 302.4,169.3 284.1,176      "/>
                    <polygon class="st65" points="282.4,185.5 283,179.2 301.9,172.2 299.1,187.9 287.3,185.4      "/>
				</g>
                <g>
					<polygon class="st66" points="169.5,248.7 169.5,246.7 185,245.1 200.4,243.6 203.5,248.7 199.2,254.7 186.1,254.7      "/>
                    <polygon class="st66" points="205.1,243.6 206.9,248.5 222.1,252.1 231.9,249.7 233.8,244.7 220.8,243.6      "/>
                    <polygon class="st66" points="202.1,256 206.9,252.1 221.4,254.7 222.1,262.9 213.1,267.9 203.5,263.2      "/>
                    <polygon class="st66" points="191,257.3 198.5,257.3 199.2,261.4      "/>
                    <polygon class="st66" points="236,250.2 237.7,245 251.5,246.4 251.5,252.1 240.8,260.9      "/>
                    <polygon class="st66" points="225.4,254.7 233.3,252.9 237.6,262.8 235.4,269.9 230.1,269.3 225.4,261.9      "/>
                    <path class="st66" d="M215.7,269.9c0.5,0.3,7.7-3.8,7.7-3.8l3.7,5.2l-3.7,5L215.7,269.9z"/>
                    <polygon class="st66" points="255,247.1 255.4,252.9 252.8,256.5 268.1,260.4 280.8,252.9 269.2,250.3      "/>
                    <polygon class="st66" points="239.8,271.2 242,264 250.5,258.6 266.8,263 261.3,274.3 244.9,276.3      "/>
                    <polygon class="st66" points="225.9,277.7 230.1,272.1 236.7,273 242.6,278.9 240.8,291.4      "/>
                    <polygon class="st66" points="265.8,274.8 270.7,262.4 285.3,253.8 296.5,260 292.3,272.9 274.8,278.6      "/>
                    <polygon class="st66" points="246.7,280.1 263,277.5 272.4,281.7 265.1,293 250.5,302.1 243.7,294.5      "/>
                    <polygon class="st66" points="252.8,305.7 266.8,296.3 267.7,311.9 260.2,319.4      "/>
                    <polygon class="st66" points="270,293.7 276.6,281.7 283,280 283.4,309.7 272.4,310.3      "/>
                    <polygon class="st66" points="297.1,274.1 301.4,262.2 312.8,270.8 302.9,281.7      "/>
                    <polygon class="st66" points="286.4,280 293.1,276.3 300.3,284.2 294.8,309.5 287.2,309.5      "/>
                    <polygon class="st66" points="299.7,309.5 305,285.5 315.4,273.3 324.5,283.8 320.5,298.9 306,310.3      "/>
                    <polygon class="st66" points="324.5,299.1 327.4,288.4 333.7,303.1      "/>
                    <path class="st66" d="M311.6,312l11-8.9c0,0,11,3,11.2,3.2c0.2,0.2,1.9,9,1.9,9l-12.4,4.1L311.6,312z"/>
                    <polygon class="st66" points="262.1,324.2 270,316 287.3,313.8 288.5,327 275.3,334.2 263.7,334.2      "/>
                    <polygon class="st66" points="293.4,325 291.3,313.8 299.7,313.8 309.8,316 320.5,322.7 315.3,331.6 303.2,331.6      "/>
                    <polygon class="st66" points="321,331.6 324.5,323.5 335.6,320.1 334.7,334.2 331.9,342.9 323.6,337.8      "/>
                    <polygon class="st66" points="264.2,339.7 275.3,340.7 276.7,359.2 267.7,373.5 263.1,371.3      "/>
                    <polygon class="st66" points="280,339.7 291.9,330.8 301.4,335.3 299.7,357.3 282,358      "/>
                    <polygon class="st66" points="305.9,335.8 305,356.6 323.6,363.8 329.1,347.8 321,340.7 316.4,335.8      "/>
                    <path class="st66" d="M321.8,368.6l-18.8-6.5h-20.7l-5.6,9.4c0,0,35.5,13.6,35.6,13.3C312.4,384.5,321.8,368.6,321.8,368.6z"/>
                    <polygon class="st66" points="271,379.3 274.2,374.4 291.6,382.3 283.3,398.4 273.9,394.9      "/>
                    <polygon class="st66" points="287.3,399.3 295.1,383.9 309,388.9 294.5,410.3 288.5,403.5      "/>
                    <polygon class="st66" points="262.5,376.5 266.9,378.7 268.9,394.4 259.5,397.1      "/>
                    <polygon class="st66" points="258.2,402.4 271.6,398.4 281.3,402.4 272.7,411.2 256.6,411.7      "/>
                    <polygon class="st66" points="277.2,412.3 284.4,405.1 291.6,413.6 284.4,423.3      "/>
                    <polygon class="st66" points="255.8,415.7 273.4,415.7 278.8,428.7 273.7,435.3 264.2,428.8 255.8,419.6      "/>
                    <path class="st66" d="M255,423.3c0.3,0.2,5.9,7.6,5.9,7.6l-5.1,9.8l-2.1-6.4L255,423.3z"/>
                    <polygon class="st66" points="258.7,442.1 264.2,432.6 271,437.3 264.8,442.6      "/>
                    <polygon class="st66" points="165.6,241.5 173.8,228.7 167.5,220 160.7,220 156.4,223.8      "/>
                    <polygon class="st66" points="175.9,226.6 183.1,214.6 175.1,206.7 165.6,207 169.9,216.7      "/>
                    <path class="st66" d="M154.9,221c0.3-0.3,4.7-4.3,4.7-4.3h6.4l-3.5-9.1l-9.6-1l-7.8,2.3L154.9,221z"/>
                    <path class="st66" d="M178.5,204.9c0,0.5,6.5,6.3,6.5,6.3l7.1-15.5l-8.9-8.5l-12,2.5L178.5,204.9z"/>
                    <path class="st66" d="M185,185.9c0.9,0.3,8.7,6.8,8.7,6.8l4.8-10.6l-12.9-11.5l-7.2,4.3l-2.5,5.4L185,185.9z"/>
                    <path class="st66" d="M173.1,182.2c0.8,0.1,5.1,3,5.1,3l-9.1,1.2l-12.7-4.7l1.5-1.7L173.1,182.2z"/>
                    <path class="st66" d="M173.8,203.3l-7.1-14.1l-11.7-5c0,0-21.4,12.2-21.1,12.3c0.3,0.1,7.9,9.8,8.3,9.2       c0.4-0.6,10.5-3.7,10.5-3.7s10.2,1.5,10.9,1.4C164.5,203.4,173.8,203.3,173.8,203.3z"/>
                    <polygon class="st66" points="183.9,169.2 175.8,173.2 173.5,179 159.7,178.2 166.4,165.4 175,161.9      "/>
                    <polygon class="st66" points="131.4,193.7 142.2,187.2 122.8,175 112.9,170.7 105.2,172.2      "/>
                    <polygon class="st66" points="103.1,169.5 110.5,168.2 103.1,157.2 94.3,161.5      "/>
                    <polygon class="st66" points="113.9,167.6 107,156.3 120.1,156.8 134,162 134,171.9 124.7,172.6      "/>
                    <polygon class="st66" points="127.3,175 135.9,174 154.4,179 152.8,182.2 145.2,186.1      "/>
                    <polygon class="st66" points="137.4,171.1 137.4,162.2 162,165 156.4,176.7      "/>
                    <polygon class="st66" points="92,159.2 100.5,155.1 90.6,143.9 80.1,139.8 76.5,142.1      "/>
                    <polygon class="st66" points="76.5,140.5 80.1,138.2 80.8,131.6 74.4,133 73.9,137.2      "/>
                    <path class="st66" d="M81.6,138.8l1.1-7.7c0,0,13.5,0.7,13.7,0.6c0.2-0.2,2.4,5,2.4,5l-7.6,5.1L81.6,138.8z"/>
                    <polygon class="st66" points="103.2,153.7 93.6,143.2 101,138.3 119.1,141.3 120.1,154.5      "/>
                    <path class="st66" d="M100.1,132c0.1,1,1.2,4.4,1.2,4.4l18.1,3l1.5-3.7L100.1,132z"/>
                    <polygon class="st66" points="171.3,159.4 164.1,162.8 138.8,159.8 141.8,147.1 146.8,144.9      "/>
                    <polygon class="st66" points="122.6,155.2 135.3,159.2 137.4,151.5 122.1,146.6      "/>
                    <polygon class="st66" points="122.4,144.1 122.1,140.4 123.4,136.4 142.6,143.5 139.2,146.1 137.9,149.2      "/>
				</g>
                <g>
					<polygon class="st67" points="213.9,272.8 227.1,282.7 221.4,293.7 207.6,299 198,290.7      "/>
                    <polygon class="st67" points="230.1,285.4 239.8,293.4 230.1,304.2 225.4,294.8      "/>
                    <polygon class="st67" points="227.1,311.2 241.9,297 246.8,303.1 224.8,324.9      "/>
                    <polygon class="st67" points="223.1,296.3 227.1,306.5 223.5,310.3 222.1,316.4 211.1,316.4 209.3,302.1      "/>
                    <polygon class="st67" points="195.5,293.3 205.5,302.1 208.1,316.4 190.3,318.5 180,307.9      "/>
                    <polygon class="st67" points="222.4,319.4 220.9,328.3 203.9,341 206.1,324.9 209.7,319.4      "/>
                    <path class="st67" d="M205.8,319.9l-3,4.1c0,0-14.3,5.7-14.3,5.4c0-0.3,3-8.1,3-8.1L205.8,319.9z"/>
                    <polygon class="st67" points="201.5,329.4 199.8,344.4 187.4,351.3 181.3,339.7 188.5,332.9      "/>
                    <polygon class="st67" points="177,310.3 186.9,320.8 184.7,331.4 179.3,335.5 164.5,328.9 161.5,322.1      "/>
                    <polygon class="st67" points="163.2,333.4 176.6,339.7 182.9,353.6 164.9,363.1 151.1,367.8 146.7,350.6      "/>
                    <polygon class="st67" points="158.1,324 161.2,330.2 145.8,346.6 137.1,344.3 132.4,338.1      "/>
                    <polygon class="st67" points="146.8,369.7 142,349.6 133.8,347.3 118.1,358.5 116.7,376.6      "/>
                    <polygon class="st67" points="129.3,339.3 131.7,345 114.2,356.9 113,363.4 105,362.5 97.2,351.3      "/>
                    <polygon class="st67" points="105.3,366.7 113.1,366.7 112.5,378.1 92.8,380.5 89.9,375      "/>
                    <polygon class="st67" points="93.4,351.9 101.5,364.7 87.4,371.2 77,355.9      "/>
                    <polygon class="st67" points="72.2,356.9 84.3,375 85.3,380.5 71.3,380.5 61.4,368.7 62.1,358.8      "/>
                    <polygon class="st67" points="57.3,359 56.2,366.7 36.4,366.7 33.3,360.5      "/>
                    <polygon class="st67" points="65.9,380.5 57.3,370.1 40.2,370.1 48.7,376.6      "/>
				</g>
                <polygon class="st65" points="32,355.7 32.7,343.1 39.3,332.2 57,346.6 57.3,355.7 32.3,356.9     "/>
                <polygon class="st65" points="60.9,355.3 60.1,346 92.7,338.7 105.6,344.5 76.3,352.8     "/>
                <polygon class="st65" points="59,343.5 48.1,335.2 68,332.5 89.2,328.7 91.3,336     "/>
                <polygon class="st65" points="41.9,330 46.6,332.7 88.2,325.6 87.2,310.7 49.2,325.4     "/>
                <path class="st65" d="M211.6,271.2c-0.1-0.3-9.8-5.9-9.8-5.9l-6.7,12.5l5.3,5.2L211.6,271.2z"/>
                <polygon class="st65" points="199.2,264.4 179.3,254.7 176.3,265.3 183.1,277.7 192.1,276.3     "/>
                <polygon class="st65" points="184.4,280.9 192.6,279.5 198,285.4 183.3,300.6 179.3,293.3     "/>
                <path class="st65" d="M164.5,249.1c0.2,0.4,11.4,4.7,11.4,4.7l-3.5,9.1l-16-5L164.5,249.1z"/>
                <path class="st65" d="M154.7,260.9c1.1,0.2,18.4,5.3,18.4,5.3l3.5,7l-16.8,7.5l-18.9-6.4L154.7,260.9z"/>
                <polygon class="st65" points="162.2,284.3 176.3,277.7 181.3,280 175.3,291.4     "/>
                <polygon class="st65" points="139,276.9 155.2,283 132.4,292.5 120.8,290     "/>
                <polygon class="st65" points="90.1,309.2 91.9,322 106.4,314.9 102.3,303     "/>
                <path class="st65" d="M105.6,301.7c0,0,4.1,10.6,5,10.4s19.5-16.4,19.5-16.4l-11.9-3.1L105.6,301.7z"/>
                <polygon class="st65" points="91.9,325.7 94.8,335.5 106.8,341.3 114.9,334.7 113.2,315.6     "/>
                <polygon class="st65" points="109.9,343.5 116.7,336.8 127.1,337.5     "/>
                <polygon class="st65" points="117.9,333.9 117.3,326 126.3,320.7 135.9,326.3 137.1,332.7 129.4,336.4     "/>
                <polygon class="st65" points="117.3,320.7 115.7,312 132.9,297.8 141,314.8 137.1,322.9 125.7,317.6     "/>
                <path class="st65" d="M141,330.7c0,0-2-5.8-1.8-5.8c0.2-0.1,4-8.4,4-8.4l22.2-8.7l3.2,5.6L141,330.7z"/>
                <polygon class="st65" points="167.8,306.9 170.5,311.5 181.3,303 175.9,294.2 168.6,290.7 165.5,294.8     "/>
                <polygon class="st65" points="143.6,313.1 136.9,297.8 162.6,295.8 164.3,305.3     "/>
                <polygon class="st65" points="136.9,295.8 136,294.1 156.4,285.4 165.5,288.8 162.6,293.4     "/>
                <path class="st67" d="M30.2,352.8c0.1-0.2,0.6-7.6,0.6-7.6V342L15,342.9l-5.6,1l-4.1,4.8v4.8L30.2,352.8z"/>
                <polygon class="st65" points="5.3,355.9 29.5,354.8 30.7,359.4 32.8,364.4 13.4,365.9 7,361.9     "/>
			</g>
		</g>
            <g class="st68">
			<g>
				<path class="st69" d="M509.5,349.6c-27.8,0-52.6,0-74.9,12.4s-82.2-0.6-100.9-4.3c-18.7-3.7-75.5-11.2-105.8,3.1      s-64.7,10.6-100.9,1.9c-36.3-8.7-115.4,12.4-126.3,14.9c-10.9,2.5-40.5,10.6-40.5,10.6v18.4c0.1-2.4,2.2-25.5,67.1-6      c68.3,20.5,70.1,23.6,139,6.2c68.9-17.4,49-44.7,109.4-41.6c60.4,3.1,64.7,18.5,99.1,26.3c34.5,7.8,74.9,5.3,94.9-12.1      c19.9-17.4,67.1-6.2,81.6,3.7c14.5,9.9,24.2,12.4,24.2,12.4v-28C575.3,367.6,537.3,349.6,509.5,349.6z M155.5,391.2      c-10.9,2.9-37.3,11.2-52.8,10.8s-41.9-5-45.9-9.3c-4.6-4.8-8.9-8.7,1-10.6c9.9-1.9,10.5-6.8,38.3-7.7s41.7,5.2,51.4,7.7      C157.1,384.6,166.4,388.3,155.5,391.2z"/>
			</g>
                <g>
				<path class="st69" d="M367.6,35.1c-27.8,0-52.6,0-74.9,12.4s-82.2-0.6-100.9-4.3S116.2,32,86,46.3S21.3,56.8-15,48.1      S-130.4,60.5-141.3,63s-40.5,10.6-40.5,10.6V92c0.1-2.4,2.2-25.5,67.1-6c68.3,20.5,70.1,23.6,139,6.2s49-44.7,109.4-41.6      s64.7,18.5,99.1,26.3c34.5,7.8,74.9,5.3,94.9-12.1c19.9-17.4,67.1-6.2,81.6,3.7c14.5,9.9,24.2,12.4,24.2,12.4v-28      C433.5,53.1,395.4,35.1,367.6,35.1z M13.6,76.7C2.8,79.6-23.6,87.9-39.1,87.5c-15.5-0.4-41.9-5-45.9-9.3      c-4.6-4.8-8.9-8.7,1-10.6c9.9-1.9,10.5-6.8,38.3-7.7s41.7,5.2,51.4,7.7C15.2,70.1,24.5,73.8,13.6,76.7z"/>
			</g>
                <path class="st69" d="M422,154c0,0-32.3,3.6-48.8-3c-16.5-6.6-74.7-15.1-83.5-13.9c-8.8,1.2-58.8,12.7-95.9-3.6     s-95.3,3.6-122.9,9.7s-51.2,11.5-70,12.1s-31.8,10.4-74.7,10.6c-42.9,0.2-95.9-24.5-95.9-24.5V160c0,0,50,16.9,70.6,21.2     s47.6,0.6,80-10.6c32.3-11.2,82.3-5.1,114.7,6.3c32.3,11.5,60.6,37.5,112.3,23.6c51.8-13.9,32.9-48.4,95.9-40.5     c62.9,7.9,103.5,22.8,118.2,21.7C426.1,173.3,422,154,422,154z M227.6,172.1c-5.6,8.5-11.5,7.3-28.8,14.2s-24.1-2.4-39.4-2.7     s-19.4-6.6-24.1-12.1c-4.7-5.4-26.5-12.1-30.9-15.9c-4.4-3.8,2.4-5,14.6-3.5c12.2,1.5,14,0,23.7,0c9.7,0,17.1-6.6,33.5-4.8     c16.5,1.8,24.7,16.3,33.8,16.9C224.1,165.2,233.2,163.6,227.6,172.1z"/>
                <path class="st69" d="M-142.6,257.4c0,0-1.2-10,43.8-9.4s79.2,13.8,109.6,16.9s102.9,3.8,140.7-3.8s56.6-22.6,106.6-13.2     c49.9,9.4,112.9,48.2,143.7,48.2s36.5-6.3,36.5-6.3v26.9c0,0-37.8-0.6-58.5-5.6c-20.7-5-68.8-33.2-90.1-40.1s-76.1-8.8-116.3,3.1     c-40.2,11.9-54.8,20.7-85.9,21.3s-98-3-126.1-14.7c-28-11.6-75.5-5.9-91.3,0C-145.7,286.8-142.6,257.4-142.6,257.4z"/>
		</g>
	</g>
</g>
</svg>