<svg width="62" height="18" viewBox="0 0 62 18" fill="none" xmlns="http://www.w3.org/2000/svg">
<path fill-rule="evenodd" clip-rule="evenodd" d="M7.5 0.749878C11.2279 0.749878 14.25 1.69008 14.25 2.84988V15.1499C14.25 16.3097 11.2279 17.2499 7.5 17.2499C3.77208 17.2499 0.75 16.3097 0.75 15.1499V2.84988C0.75 1.69008 3.77208 0.749878 7.5 0.749878Z" fill="#D59361"/>
<path fill-rule="evenodd" clip-rule="evenodd" d="M14.1639 1.42842C14.5839 1.73735 15 2.20886 15 2.85V15.15C15 15.7911 14.5839 16.2626 14.1639 16.5716C13.7288 16.8917 13.1471 17.1484 12.4958 17.3511C11.1841 17.7591 9.41798 18 7.5 18C5.58202 18 3.8159 17.7591 2.50423 17.3511C1.8529 17.1484 1.27122 16.8917 0.836056 16.5716C0.416057 16.2626 0 15.7911 0 15.15V2.85C0 2.20886 0.416057 1.73735 0.836056 1.42842C1.27122 1.10833 1.8529 0.85157 2.50423 0.648933C3.8159 0.240859 5.58202 0 7.5 0C9.41798 0 11.1841 0.240859 12.4958 0.648933C13.1471 0.85157 13.7288 1.10833 14.1639 1.42842ZM14.25 2.85C14.25 1.6902 11.2279 0.75 7.5 0.75C3.77208 0.75 0.75 1.6902 0.75 2.85V15.15C0.75 16.3098 3.77208 17.25 7.5 17.25C11.2279 17.25 14.25 16.3098 14.25 15.15V2.85Z" fill="#472D1D"/>
<ellipse cx="7.5" cy="2.84988" rx="6.75" ry="2.1" fill="#FFC69B" fill-opacity="0.7"/>
<circle cx="4.35" cy="9.14993" r="0.6" fill="#472D1D"/>
<circle cx="10.6508" cy="9.14993" r="0.6" fill="#472D1D"/>
<ellipse opacity="0.962091" cx="3.90156" cy="10.9496" rx="1.05" ry="0.6" fill="#FFB2B2"/>
<ellipse opacity="0.962091" cx="11.1008" cy="10.9496" rx="1.05" ry="0.6" fill="#FFB2B2"/>
<mask id="mask0_39_24676" style="mask-type:alpha" maskUnits="userSpaceOnUse" x="6" y="9" width="3" height="3">
<path d="M9 10.3133C9 11.0791 8.32843 11.7 7.5 11.7C6.67157 11.7 6 11.0791 6 10.3133C6 9.75 6.67157 9.75 7.5 9.75C8.32843 9.75 9 9.75 9 10.3133Z" fill="#472D1D"/>
</mask>
<g mask="url(#mask0_39_24676)">
<path d="M9 10.3133C9 11.0791 8.32843 11.7 7.5 11.7C6.67157 11.7 6 11.0791 6 10.3133C6 9.75 6.67157 9.75 7.5 9.75C8.32843 9.75 9 9.75 9 10.3133Z" fill="#472D1D"/>
<ellipse cx="7.49833" cy="11.6348" rx="0.642857" ry="0.585" fill="#CF4F40"/>
</g>
<path d="M24.6297 9.91161C26.6877 9.91161 27.7857 8.80761 27.7857 7.15161C27.7857 5.46561 26.6877 4.34961 24.6117 4.34961H21.0117V12.7496H23.0157V9.91161H24.6297ZM24.5817 6.16761C25.3017 6.16761 25.7457 6.50961 25.7457 7.15161C25.7457 7.78761 25.3017 8.12361 24.5817 8.12361H23.0157V6.16761H24.5817Z" fill="#F2B78A"/>
<path d="M34.5195 6.86361H32.7015V7.49961C32.3475 7.03761 31.8075 6.70161 31.0155 6.70161C29.4375 6.70161 28.2735 8.06961 28.2735 9.79761C28.2735 11.5376 29.4375 12.9056 31.0095 12.9056C31.8075 12.9056 32.3475 12.5756 32.7015 12.1136V12.7496H34.5195V6.86361ZM31.4595 8.45361C32.1975 8.45361 32.7195 9.02361 32.7195 9.80361C32.7195 10.5836 32.1975 11.1536 31.4595 11.1536C30.7095 11.1536 30.2055 10.5716 30.2055 9.80361C30.2055 9.03561 30.7095 8.45361 31.4595 8.45361Z" fill="#F2B78A"/>
<path d="M38.6897 6.70161C36.8117 6.70161 35.5157 8.00361 35.5157 9.80361C35.5157 11.2916 36.3977 12.4376 37.7597 12.7916L37.1237 14.6756H38.8457L39.4277 12.8276C40.1717 12.6596 40.7777 12.2396 41.2097 11.6276L39.7457 10.5836C39.4517 10.9556 39.0797 11.1536 38.6357 11.1536C37.9817 11.1536 37.4357 10.6556 37.4357 9.80361C37.4357 8.95761 37.9937 8.45361 38.6477 8.45361C39.1037 8.45361 39.4397 8.63961 39.7337 9.01761L41.2037 7.99161C40.6397 7.18761 39.7817 6.70161 38.6897 6.70161Z" fill="#F2B78A"/>
<path d="M44.8132 6.70161C42.9772 6.70161 41.6212 8.02161 41.6212 9.80361C41.6212 11.5856 42.9772 12.9056 44.8132 12.9056C46.6552 12.9056 48.0112 11.5856 48.0112 9.80361C48.0112 8.02161 46.6552 6.70161 44.8132 6.70161ZM44.8132 8.45361C45.5512 8.45361 46.0912 9.01161 46.0912 9.80361C46.0912 10.5956 45.5512 11.1536 44.8132 11.1536C44.0812 11.1536 43.5412 10.5956 43.5412 9.80361C43.5412 9.01161 44.0812 8.45361 44.8132 8.45361Z" fill="#F2B78A"/>
<path d="M51.885 6.70161C50.007 6.70161 48.711 8.00361 48.711 9.80361C48.711 11.6036 50.007 12.9056 51.885 12.9056C52.977 12.9056 53.841 12.4256 54.405 11.6276L52.941 10.5836C52.647 10.9556 52.275 11.1536 51.831 11.1536C51.177 11.1536 50.631 10.6556 50.631 9.80361C50.631 8.95761 51.189 8.45361 51.843 8.45361C52.299 8.45361 52.635 8.63961 52.929 9.01761L54.399 7.99161C53.835 7.18761 52.977 6.70161 51.885 6.70161Z" fill="#F2B78A"/>
<path d="M61.0625 6.86361H59.2445V7.49961C58.8905 7.03761 58.3505 6.70161 57.5585 6.70161C55.9805 6.70161 54.8165 8.06961 54.8165 9.79761C54.8165 11.5376 55.9805 12.9056 57.5525 12.9056C58.3505 12.9056 58.8905 12.5756 59.2445 12.1136V12.7496H61.0625V6.86361ZM58.0025 8.45361C58.7405 8.45361 59.2625 9.02361 59.2625 9.80361C59.2625 10.5836 58.7405 11.1536 58.0025 11.1536C57.2525 11.1536 56.7485 10.5716 56.7485 9.80361C56.7485 9.03561 57.2525 8.45361 58.0025 8.45361Z" fill="#F2B78A"/>
</svg>
